<svg xmlns="http://www.w3.org/2000/svg" width="351" height="39" viewBox="0 0 351 39">
    <g fill="none" fill-rule="evenodd">
        <path fill="#FFF" d="M212.8 0H350.4V38.4H212.8z"/>
        <path fill="#FFF" fill-rule="nonzero" d="M0 5.93h7.115v19.964h12.433v6.404H0V5.93zm34.88 14.502c-.123-1.13-.49-2.028-1.101-2.693s-1.394-.998-2.347-.998c-.93 0-1.688.333-2.274.998-.587.665-.978 1.563-1.174 2.693h6.895zm-2.862 12.355c-1.565 0-2.995-.257-4.29-.772-1.297-.515-2.415-1.23-3.357-2.147-.941-.916-1.675-2.028-2.2-3.333-.526-1.306-.789-2.75-.789-4.332v-.076c0-1.481.245-2.869.734-4.162.489-1.293 1.18-2.423 2.072-3.39.892-.967 1.95-1.727 3.172-2.279 1.223-.553 2.568-.829 4.035-.829 1.711 0 3.197.302 4.456.904 1.26.603 2.298 1.413 3.117 2.43.82 1.017 1.43 2.197 1.834 3.54.404 1.344.605 2.77.605 4.276v.716c0 .25-.012.502-.036.753H28.094c.269 1.13.776 1.971 1.522 2.524.746.552 1.669.829 2.77.829.83 0 1.595-.164 2.291-.49.697-.327 1.4-.854 2.11-1.582l3.85 3.277c-.953 1.256-2.133 2.26-3.539 3.013-1.406.754-3.1 1.13-5.08 1.13zm20.246-.075c-2.103 0-3.741-.515-4.915-1.544-1.174-1.03-1.76-2.763-1.76-5.198v-8.287H43.24v-5.764h2.348V6.76h6.968v5.16h4.621v5.764h-4.621v6.893c0 .728.159 1.25.477 1.563.318.314.794.47 1.43.47.465 0 .917-.062 1.357-.187.44-.126.868-.29 1.284-.49v5.612c-.636.352-1.357.634-2.164.848-.807.213-1.7.32-2.677.32zm15.807.038c-1.687 0-3.325-.245-4.915-.735-1.589-.49-3.08-1.25-4.474-2.279l2.604-4.332c1.15.779 2.317 1.363 3.503 1.752 1.185.39 2.292.584 3.319.584 1.173 0 1.76-.364 1.76-1.092v-.076c0-.402-.269-.715-.807-.942-.538-.226-1.332-.49-2.384-.79-.978-.252-1.895-.547-2.75-.886-.856-.339-1.602-.753-2.238-1.243-.635-.49-1.137-1.086-1.503-1.789-.367-.703-.55-1.57-.55-2.6v-.074c0-1.08.201-2.04.605-2.882.403-.841.96-1.544 1.668-2.11.71-.565 1.547-.998 2.513-1.299.966-.301 2.023-.452 3.172-.452 1.467 0 2.91.207 4.328.621 1.418.415 2.702.999 3.851 1.752l-2.384 4.52c-1.027-.577-2.066-1.036-3.117-1.375-1.052-.339-1.969-.508-2.751-.508-.538 0-.941.094-1.21.282-.27.189-.404.42-.404.697v.076c0 .401.275.721.825.96.55.239 1.351.521 2.403.848.978.276 1.895.583 2.75.922.856.34 1.602.754 2.238 1.243.635.49 1.137 1.087 1.503 1.79.367.703.55 1.544.55 2.524v.075c0 1.13-.195 2.116-.586 2.957-.392.841-.942 1.55-1.65 2.128-.71.578-1.566 1.01-2.568 1.3-1.003.288-2.103.433-3.3.433zm23.803-6.328c1.1 0 1.944-.208 2.53-.622.587-.414.88-1.01.88-1.79v-.075c0-.728-.28-1.305-.843-1.732-.562-.427-1.442-.64-2.64-.64h-5.429v4.859h5.502zm-1.027-9.983c1.1 0 1.938-.188 2.512-.565.575-.376.862-.954.862-1.732v-.076c0-.728-.269-1.287-.807-1.676-.538-.39-1.344-.584-2.42-.584h-4.622v4.633h4.475zM79.441 5.93h13.166c1.614 0 2.996.2 4.145.603 1.15.402 2.103.992 2.86 1.77.514.527.918 1.143 1.21 1.846.294.703.441 1.507.441 2.41v.076c0 1.532-.373 2.769-1.119 3.71-.745.942-1.693 1.664-2.842 2.166 1.565.528 2.806 1.287 3.723 2.28.917.991 1.375 2.378 1.375 4.161v.076c0 2.285-.85 4.068-2.549 5.349-1.7 1.28-4.09 1.92-7.17 1.92H79.44V5.93zm25.82 5.99h6.968v4.105c.563-1.381 1.333-2.486 2.31-3.315.979-.828 2.3-1.205 3.962-1.13v7.534h-.587c-1.834 0-3.24.552-4.218 1.657-.978 1.105-1.467 2.838-1.467 5.199v6.328h-6.968V11.919zm15.844 0h6.968v20.378h-6.968V11.919zm-.147-7.12h7.262v5.274h-7.262V4.8zm11.003 7.12h6.969v2.862c.317-.427.672-.841 1.063-1.243.391-.402.831-.753 1.32-1.055.49-.301 1.027-.546 1.614-.734.587-.189 1.235-.283 1.944-.283 2.127 0 3.784.666 4.97 1.997 1.186 1.33 1.778 3.164 1.778 5.5v13.334h-6.968V21.26c0-1.13-.257-1.984-.77-2.561-.514-.578-1.186-.867-2.017-.867-.856 0-1.56.289-2.11.867-.55.577-.824 1.43-.824 2.561v11.037h-6.969V11.919zm33.412 13.07c1.174 0 2.14-.377 2.897-1.13.758-.753 1.137-1.695 1.137-2.825v-.075c0-1.13-.379-2.066-1.137-2.807-.757-.74-1.723-1.11-2.897-1.11-1.198 0-2.176.376-2.934 1.13-.758.753-1.137 1.694-1.137 2.824v.076c0 1.13.379 2.065 1.137 2.806.758.74 1.736 1.111 2.934 1.111zm-.403 13.41c-1.932 0-3.71-.2-5.337-.603-1.626-.401-3.16-.98-4.603-1.732l2.238-4.747c1.075.603 2.164 1.074 3.264 1.413 1.1.339 2.323.508 3.667.508 1.76 0 3.069-.426 3.925-1.28.856-.854 1.283-2.097 1.283-3.73v-.79c-.709.828-1.54 1.544-2.494 2.147-.953.602-2.163.904-3.63.904-1.223 0-2.366-.22-3.43-.66-1.063-.439-1.992-1.067-2.787-1.883-.795-.816-1.424-1.808-1.889-2.976-.464-1.167-.697-2.48-.697-3.936v-.075c0-1.457.233-2.775.697-3.956.465-1.18 1.088-2.178 1.87-2.994.783-.816 1.694-1.444 2.733-1.884 1.04-.439 2.133-.659 3.282-.659 1.492 0 2.715.276 3.668.829.954.552 1.81 1.23 2.567 2.034v-2.41h6.969V27.4c0 1.884-.208 3.485-.624 4.804-.415 1.318-1.063 2.43-1.943 3.333-.905.93-2.067 1.639-3.485 2.128-1.418.49-3.166.735-5.244.735zm15.587-32.47h7.152v26.368h-7.152V5.93zm19.328 26.782c-2.102 0-3.74-.515-4.914-1.544-1.174-1.03-1.76-2.763-1.76-5.198v-8.287h-2.348v-5.764h2.347V6.76h6.969v5.16h4.621v5.764h-4.621v6.893c0 .728.159 1.25.477 1.563.317.314.794.47 1.43.47.465 0 .917-.062 1.357-.187.44-.126.868-.29 1.284-.49v5.612c-.636.352-1.357.634-2.164.848-.807.213-1.7.32-2.678.32z"/>
        <path fill="#FF485E" fill-rule="nonzero" d="M219.2 6.4h9.744c2.262 0 4.277.31 6.045.933 1.769.621 3.26 1.493 4.476 2.614 1.215 1.122 2.141 2.457 2.779 4.005.637 1.548.956 3.249.956 5.102v.073c0 1.853-.325 3.566-.974 5.138-.65 1.573-1.588 2.932-2.815 4.078-1.228 1.146-2.737 2.042-4.53 2.688-1.792.646-3.82.969-6.081.969h-9.6V6.4z"/>
        <path fill="#FFF" fill-rule="nonzero" d="M228.388 25.6c2.047 0 3.694-.551 4.941-1.654 1.247-1.103 1.871-2.673 1.871-4.71v-.072c0-2.013-.624-3.577-1.87-4.692-1.248-1.115-2.895-1.672-4.942-1.672H225.6v12.8h2.788z"/>
        <path fill="#FF485E" fill-rule="nonzero" d="M259.964 32c-1.948 0-3.752-.355-5.411-1.065-1.66-.71-3.09-1.675-4.293-2.895-1.203-1.221-2.146-2.653-2.832-4.297-.685-1.644-1.028-3.4-1.028-5.268V18.4c0-1.868.343-3.63 1.028-5.287.686-1.656 1.641-3.1 2.868-4.334 1.227-1.233 2.67-2.204 4.329-2.914 1.66-.71 3.463-1.065 5.411-1.065 1.948 0 3.752.355 5.411 1.065 1.66.71 3.09 1.675 4.293 2.895 1.203 1.221 2.146 2.653 2.832 4.297.685 1.644 1.028 3.4 1.028 5.268v.075c0 1.868-.343 3.63-1.028 5.287-.686 1.656-1.641 3.1-2.868 4.334-1.227 1.233-2.67 2.204-4.329 2.914-1.66.71-3.463 1.065-5.411 1.065z"/>
        <path fill="#FFF" fill-rule="nonzero" d="M259.218 25.6c.956 0 1.828-.19 2.617-.571.79-.381 1.458-.896 2.008-1.543.55-.648.98-1.403 1.29-2.267.312-.863.467-1.778.467-2.743V18.4c0-.965-.155-1.88-.466-2.743-.31-.863-.753-1.625-1.327-2.286-.573-.66-1.255-1.187-2.043-1.58-.79-.394-1.662-.591-2.618-.591s-1.822.19-2.6.571c-.776.381-1.445.896-2.007 1.543-.562.648-.992 1.403-1.29 2.267-.3.863-.449 1.778-.449 2.743v.076c0 .965.155 1.88.466 2.743.31.863.747 1.625 1.309 2.286.562.66 1.237 1.187 2.026 1.58.788.394 1.66.591 2.617.591z"/>
        <path fill="#FF485E" fill-rule="nonzero" d="M320 6.4L326.572 6.4 337.572 20.265 337.572 6.4 344 6.4 344 32 337.828 32 326.971 17.957 326.971 32 320 32zM275.2 6.472L282.744 6.472 287.233 21.137 292.201 6.4 298.346 6.4 303.314 21.137 307.803 6.472 315.2 6.472 306.589 32 300.37 32 295.182 17.408 290.03 32 283.811 32z"/>
    </g>
</svg>
