<svg xmlns="http://www.w3.org/2000/svg" width="902" height="554" viewBox="0 0 902 554">
  <path
    fill="#FFF"
    fill-rule="evenodd"
    d="M902 67.052v10.992c-7.7 7.694-16.5 14.29-24.2 21.984-5.5 5.496-13.2 8.793-15.411 15.389-3.289 6.595-2.2 14.29-2.2 21.984 0 6.595 9.911 14.29 16.5 12.091-1.089-2.198-2.189-3.298-4.389-6.595 8.8 6.595 8.8 7.694 2.2 12.091-2.2 1.1-7.7 1.1-8.811 2.199-5.5 9.892-16.5 8.793-24.189 14.29-5.5 3.297-12.111 7.694-16.5 12.09-2.2 2.199-4.4 7.695-3.311 9.893 7.7 14.29 1.111 24.183-5.5 34.076-4.389-2.199-6.589-3.298-9.889-4.397-1.111 0-1.111 1.1-2.2 1.1 20.9 15.388 6.589 30.777 3.289 46.166H804.1V249.52h-2.211c0 1.099-1.089 2.198-1.089 4.397-2.2-3.298-3.3-4.397-5.5-7.695-2.2 3.298-3.3 5.496-2.2 6.595 1.089 5.496 3.289 12.092 4.4 17.588 1.1 2.198 2.189 4.397 3.3 5.496 9.889 3.297 9.889 13.19 14.3 19.786 4.4 8.793 2.2 13.19-6.6 17.587-2.2 1.099-3.311 4.397-5.5 6.595 3.3 1.1 5.5 1.1 8.8 2.198-4.411 3.298-6.611 6.596-9.911 7.695-14.289 4.397-17.589 23.083-31.889 27.48-1.111 0-2.2 3.298-2.2 4.397-1.111 10.992-9.911 17.587-16.5 24.182-8.8 8.794-15.411 18.687-16.5 31.877 0 13.19 3.3 25.282 9.889 36.274 5.5 8.794 12.111 16.488 16.5 26.381 7.7 16.488 16.5 31.877 14.311 51.663-1.111 9.893-3.311 16.488-14.311 21.984l9.911-9.893-1.1-1.1c-3.311 1.1-6.611 2.2-9.9 3.299-3.3-4.397-6.6-9.893-9.911-13.19-5.5-5.497-13.189-7.695-17.589-14.29-8.8-12.092-18.711-24.183-16.5-41.77 1.089-3.298-2.211-7.695-4.411-10.993-4.389-4.396-9.889-7.694-15.389-12.09-5.5-4.398-11-7.695-17.611 0-4.389 4.396-9.889 7.694-17.589 3.297-5.5-4.397-13.211-7.695-19.8-7.695-7.7-1.099-16.5 1.1-25.3 2.199-1.111-2.199-2.2-4.397-2.2-4.397-6.611 2.198-9.911 4.397-15.411 4.397-6.589-1.1-14.289-1.1-18.7 8.793 3.311-1.099 5.5-2.198 7.7-3.297 1.111 0 1.111 1.099 2.211 1.099-1.1 3.298-3.3 6.595-5.5 10.992 2.2 1.1 4.4 2.199 6.589 2.199 2.2 1.099 3.311 2.198 6.611 3.297-6.611 4.397-6.611 4.397-18.7-3.297-1.1 3.297-3.3 5.496-5.5 9.892-1.1-3.297-1.1-4.396-2.211-6.595-8.789 8.794-15.389 7.695-20.889-2.198-2.2-3.298-7.7-4.397-12.111-6.596 0 1.1-1.089 1.1-1.089 2.199 2.2 1.1 3.3 2.198 5.5 2.198-8.8 1.1-17.611-1.099-25.3-1.099-8.811 0-18.7 1.1-26.4 5.496-16.5 8.794-30.8 20.885-47.3 30.778-5.5 3.298-7.7 6.595-7.7 13.19v32.977c-7.711-2.199-15.4-4.397-23.1-7.695-11-4.397-17.611-12.091-17.611-24.182 0-2.199-2.189-4.397-3.289-6.596-5.5-8.793-13.211-15.389-16.5-26.38-3.3-12.092-13.211-19.786-26.4-23.084-7.7-2.198-12.1 0-15.4 6.595-2.2 3.298-4.411 6.596-6.6 10.992-6.6-3.297-12.1-6.595-17.6-8.793-6.6-3.298-11-8.794-11-16.488-1.1-19.786-22-25.282-29.711-40.671H266.2c-8.811-1.1-18.7-2.198-27.5-3.298-1.1 3.298-2.2 6.596-3.311 9.893-9.889-1.099-18.689-3.297-28.589-3.297-33-3.298-58.3-25.282-84.7-40.671-4.4-2.198-8.8-5.496-13.211-5.496-7.689-1.1-16.5-2.198-24.189-3.298-2.2-1.099-5.5-4.396-6.6-6.595-1.1-9.893-3.3-18.686-14.3-23.083-1.1 0-1.1-2.199-2.2-2.199-8.8-8.793-15.4-18.686-27.5-21.984-5.5-1.099-5.5-3.297-5.5-7.694 0-6.595-1.1-12.091-2.211-18.687C25.3 284.694 22 280.298 19.8 277c-3.3-6.595-5.5-12.091 0-16.488-2.2-6.595-4.411-12.091-6.6-18.687-2.2-8.793-1.1-17.587-5.5-25.281-5.5-8.794-6.6-17.588-3.311-27.48C5.5 184.666 6.6 178.07 0 175.872v-3.298c7.7-10.992 16.5-23.083 13.2-38.472-1.1-5.496 1.1-12.091 3.3-17.587C25.3 95.63 36.3 75.846 44 54.96c3.3-8.793 2.2-19.785 3.3-29.678V4.397c11 3.297 17.589 15.389 29.7 8.793 0 2.199 1.1 3.298 1.1 5.497h2.2C79.2 12.09 78.1 6.595 77 0h3.3c9.9 3.298 19.8 5.496 29.7 8.794C224.389 37.373 339.889 54.96 458.7 53.86c6.6 0 13.189 1.1 14.3-10.992 2.189 4.397 4.389 5.496 4.389 7.694 0 6.596 3.3 9.893 9.911 9.893 9.889 1.1 18.7 3.298 28.589 5.496 4.411 1.1 9.911 4.397 14.3 4.397 7.7 1.1 15.411 0 24.2 0 0 1.1 1.111 2.199 1.111 4.397-15.4 3.298-26.4 13.19-34.111 27.48 6.611-2.198 11-4.397 16.5-6.595v6.595c18.711 2.199 27.5-16.488 44-19.786-2.2 3.298-4.389 6.596-6.589 9.893 4.389 2.199 9.889 2.199 11 4.397 5.5 7.695 11 4.397 17.589 2.199 6.611-2.199 13.211-4.397 20.911-7.695 1.089 13.19 8.8 4.397 14.3 5.496 1.089 3.298 2.2 7.695 3.289 10.992-23.089 2.199-48.389 1.1-55 34.076 3.3-5.496 6.611-8.794 9.911-13.19-2.2 14.289-4.411 26.38-6.611 40.67-1.089 14.29 1.111 27.48 12.111 37.373 13.2-7.695 17.589-24.183 9.889-37.373-1.089-2.199-3.3-4.397-3.3-7.695-2.2-18.686 8.8-32.976 19.8-46.166 1.111-1.1 5.5-1.1 7.7-1.1 3.3 0 5.5 2.199 8.8 3.298 12.111 4.397 16.5 21.984 7.7 31.877-1.089 2.198-1.089 4.397-2.2 6.595 1.111 0 2.2 1.1 3.311 1.1 2.189-2.199 3.3-5.497 5.5-7.695 1.1-1.1 4.389-3.298 6.6-2.198 5.5 2.198 12.089 25.281 8.789 30.777-4.389 6.596-7.7 12.092-11 18.687 9.911 4.397 16.5 7.694 25.3 1.1 8.811-6.596 19.811-12.092 28.611-18.687 7.7-6.596 18.7-12.092 8.8-26.381 7.7-1.1 13.2-2.199 18.7-3.298 6.589-1.1 13.2-2.198 19.8-5.496 2.2-1.1 5.5-8.794 4.4-9.893-5.5-6.595-1.111-9.893 3.3-14.29 2.2-2.198 3.3-4.396 4.389-6.595 3.311-6.595 7.7-8.793 15.411-10.992 15.4-3.297 31.9-4.397 45.089-16.488 6.611-6.595 9.911-13.19 8.811-19.786-1.111-12.09 2.189-23.083 6.6-32.976 4.4 0 7.7 0 9.9-1.099 6.6-3.298 12.1-2.198 14.3 5.496 2.2 6.595 3.3 13.19 5.5 18.687 4.389 3.297 8.8 9.892 18.7 10.992" 
    opacity=".15"
  />
</svg>