<svg xmlns="http://www.w3.org/2000/svg" width="140" height="232" viewBox="0 0 140 232">
    <path opacity=".15" fill="#FFF" fill-rule="evenodd" d="M33.99 203.95v-5.475c0-1.061.403-2.059 1.061-2.801.616-.743 1.55-1.295 2.632-1.401l101.894-13.539-2.271-4.138c-.319-.615-.489-1.315-.489-2.037v-23.045l-3.225-7.512c-.213-.53-.34-1.103-.34-1.676v-10.76c0-.678.17-1.336.446-1.951l3.565-6.918-1.273-1.464c-.382-.404-.616-.85-.807-1.316l-1.655-4.499-5.476-5.878c-.467-.445-.764-1.018-.955-1.613L93.012.595.118 12.287v152.214l9.91 63.3 6.538-.255 1.188-8.106 1.91-6.026c.595-1.74 2.229-2.929 4.054-2.929h2.186c1.762 0 3.332 1.104 4.011 2.738l2.483 6.578 1.528 6.324c.191.679.17 1.4-.02 2.1l-.722 2.823h2.674l7.28-2.462v-11.82l-8.172-10.143c-.636-.785-.976-1.697-.976-2.674"/>
</svg>
