<?xml version="1.0" encoding="utf-8"?>
<!-- Generator: Adobe Illustrator 21.0.0, SVG Export Plug-In . SVG Version: 6.00 Build 0)  -->
<svg version="1.1" id="Layer_1" xmlns="http://www.w3.org/2000/svg" xmlns:xlink="http://www.w3.org/1999/xlink" x="0px" y="0px"
	 viewBox="0 0 432 432" style="enable-background:new 0 0 432 432;" xml:space="preserve">
<style type="text/css">
	.st0{fill:#050505;}
	.st1{fill:none;stroke:#000000;stroke-width:0;stroke-linecap:round;stroke-linejoin:round;}
	.st2{fill:#050505;stroke:#050505;stroke-width:8.239910e-03;}
</style>
<g transform="translate(0,-952.36216)">
	<path opacity="0.15" fill="#FFFFFF" d="M244.2,994.3L244.2,994.3c-0.1,0-0.2,0-0.3,0l-131.8,9.3c-1.4,0.1-2.6,1.3-2.6,2.7l-6.8,203.7
		c0,0.2,0,0.3,0,0.5l16.1,112.4c0.2,1.5,1.7,2.6,3.2,2.4c0.4-0.1,0.8-0.2,1.1-0.4l6.8-4.2c0.4-0.3,0.8-0.6,1-1l12.3-22.5l7.7,20
		v10.5c0,1.6,1.3,2.8,2.8,2.8c0.3,0,0.5,0,0.7-0.1l18.6-5.1c1.2-0.3,2-1.3,2.1-2.5l1.7-23.7c0.1-0.8-0.2-1.6-0.8-2.2l-14.1-14.1
		l1.9-10l139-15.8c1.6-0.2,2.7-1.6,2.5-3.1c-0.1-0.5-0.2-0.9-0.5-1.3l-5.4-7.7v-18.5c0,0,0-0.1,0-0.1l-0.8-22.5l6.7-31.8
		c0.3-1.2-0.3-2.4-1.4-3l-4.5-2.6v-4.3c0-0.6-0.2-1.3-0.6-1.8l-12.3-15.6l-27.7-97.5c0-0.1,0-0.1-0.1-0.2l-10.8-30L247,997
		C246.9,995.6,245.7,994.4,244.2,994.3z"/>
</g>
</svg>
