<svg xmlns="http://www.w3.org/2000/svg" width="599" height="475" viewBox="0 0 599 475">
    <path opacity=".15" fill="#FFF" fill-rule="evenodd" d="M267.533 1034.972L257.287 1044.386 242.501 1044.386 227.843 1049.262 216.048 1057.531 202.96 1060.754 195.365 1067.518 181.746 1087.915 153.554 1094 149.333 1102.247 150.966 1108.566 162.994 1113.654 178.861 1124.722 182.786 1133.712 187.771 1135.832 206.142 1137.55 209.96 1150.886 204.233 1152.561 201.369 1150.335 188.747 1147.939 167.937 1149.529 132.807 1166.809 128.607 1170.35 131.365 1173.594 142.629 1178.895 149.799 1194.669 157.86 1198.973 171.649 1197.277 179.392 1195.348 184.144 1197.235 194.411 1198.358 208.899 1190.768 216.345 1189.581 218.106 1194.881 213.927 1200.309 216.579 1206.67 217.767 1218.352 213.545 1221.639 199.247 1223.823 193.35 1230.565 185.65 1232.367 177.992 1227.724 172.752 1228.975 162.909 1248.418 156.163 1257.111 154.593 1267.012 157.584 1276.787 163.27 1283.614 165.815 1298.371 169.74 1300.915 176.273 1311.241 187.368 1312.598 191.038 1309.184 197.953 1306.682 203.617 1311.643 206.46 1318.28 204.423 1326.316 207.075 1337.935 212.569 1339.567 217.597 1336.175 226.761 1333.927 234.801 1337.786 240.168 1347.137 243.414 1345.334 243.414 1342.048 241.462 1336.238 245.789 1336.238 250.074 1340.224 260.511 1337.277 263.312 1339.313 258.751 1345.525 256.311 1362.678 246.32 1376.12 225.828 1395.075 184.568 1425.84 138.896 1454.188 102.621 1473.779 71.946 1483.384 46.66 1494.918 20.78 1499.455 0.5 1508 43.648 1505.477 53.406 1499.583 69.592 1496.763 150.372 1459.658 254.572 1399.38 264.648 1383.52 270.1 1380.849 275 1370.459 294.75 1352.692 309.387 1335.92 309.387 1332.549 301.856 1331.107 300.095 1329.03 301.729 1323.856 311.699 1311.58 319.59 1305.898 326.145 1293.6 334.864 1282.617 344.749 1276.066 348.78 1277.719 353.15 1281.218 350.626 1284.398 341.907 1286.179 330.43 1311.983 333.103 1316.456 331.152 1319.382 329.943 1324.153 334.376 1326.019 342.798 1323.856 360.553 1309.905 377.736 1307.806 385.034 1304.201 391.291 1298.519 407.371 1297.247 424.066 1303.671 450.074 1306.216 469.759 1312.598 497.231 1331.913 506.543 1341.009 515.283 1346.564 533.399 1346.564 539.063 1349.829 550.943 1361.639 552.216 1366.198 550.582 1369.548 547.697 1370.735 539.615 1369.781 534.693 1367.067 529.878 1368.466 528.287 1374.424 529.369 1385.237 536.242 1395.711 539.785 1402.729 543.391 1406.058 546.806 1405.316 555.652 1393.231 559.152 1391.704 562.398 1392.658 564.286 1402.433 569.568 1415.26 574.235 1419.84 580.344 1423.932 582.848 1429.063 587.387 1433.982 593.815 1432.519 596.679 1429.572 597.824 1410.617 599.5 1401.139 596.7 1396.475 581.829 1385.98 571.605 1363.335 559.343 1345.525 551.07 1335.92 538.851 1326.549 537.578 1318.195 534.672 1314.188 529.878 1312.322 523.429 1316.16 519.335 1324.45 513.926 1330.874 511.847 1330.874 495.915 1317.729 489.17 1305.643 484.1 1301.085 468.211 1299.452 463.014 1297.777 463.014 1074.663 453.383 1069.85 436.603 1061.645 415.941 1065.673 385.734 1063.68 381.745 1058.719 359.068 1053.524 334.567 1055.687 321.33 1046.782 301.602 1044.386 280.664 1033z" transform="translate(-.5 -1033)"/>
</svg>
