<?xml version="1.0" encoding="utf-8"?>
<!-- Generator: Adobe Illustrator 21.0.0, SVG Export Plug-In . SVG Version: 6.00 Build 0)  -->
<svg version="1.1" id="Layer_1" xmlns="http://www.w3.org/2000/svg" xmlns:xlink="http://www.w3.org/1999/xlink" x="0px" y="0px"
	 viewBox="0 0 432 432" style="enable-background:new 0 0 432 432;" xml:space="preserve">
<style type="text/css">
	.st0{fill:white;}
	.st1{fill:none;stroke:#000000;stroke-width:0;stroke-linecap:round;stroke-linejoin:round;}
	.st2{fill:white;stroke:#050505;stroke-width:8.239910e-03;}
</style>
<g opacity="0.15">
	<polygon fill="white" points="49.4,185 47.3,182 45.1,177.3 43.3,177.3 43.3,180.9 47.3,186.5 	"/>
	<polygon fill="white" points="44.5,302.4 45.1,305.3 41.5,308.9 37.8,308 36.9,305 32,304.5 25.7,306.2 19.3,310.3 21.4,311.5 24.4,310.9 
		32.7,308.3 39.7,310.3 44.8,311.2 53,309.2 55.2,305.9 49.7,301.2 	"/>
	<polygon fill="white" points="80.4,142.9 83.7,145.6 87.1,152.9 92.6,153.5 92.9,151.7 88.9,142 83.7,140.8 81,138.2 78.9,133.8 75.5,138.2 
		75.8,142.9 	"/>
	<polygon fill="white" points="115.7,300.3 111.4,302.1 114.4,305.6 118.4,302.7 	"/>
	<polygon fill="white" points="84,202.9 84.3,207.9 90.7,214.4 96.5,214.7 99.5,207.9 98,206.2 91,204.4 	"/>
	<polygon fill="white" points="256.7,241.2 257.4,245.3 261.9,242.7 260.1,239.4 	"/>
	<path fill="white" d="M411.8,315.3l-1.8-7.9l-9.7-3.8l-9.4-3.2l-2.7-6.8l-4.3-5l-5.2-7.1l-6.4-10.9l-7.3-3.2l-2.1-4.4l-3.6-2.1l-1.2-5.3
		l-5.8-3.8l-3.6,2.6l-2.1,0.3l-2.7,2.9l-0.6,5.6l-1.2,0.3l-6.4,3.5l-0.9-4.7L321.5,250l-0.3-5.3h-4.9l-2.7,2.1l-5.8-0.3l-3-1.8
		l0.6-155.4l0,0l-8.2-5.3l-9.1-3.5l-3.6,1.5l-4,1.2l-9.7-4.7l-2.7,1.8l-11.9-7.7l-13.4-1.2l-3.6-2.6l-0.6-6.8l-7.3-0.6l-3,2.9
		l-1.2-2.1l0.9-2.1l-3.6-3.8l-6.7-4.4h-2.1l-5.2,5.6l-8.5,0.3l-1.8-1.5l-2.1,0.3l-7,3.8l-5.2,1.2l-3-1.8l-7,4.4l-2.1,5.6l-7,6.5
		l-7.9,0.3l-3.3-1.2h-6.1l-5.5,3.5l4.6,7.7l5.5,8.5l1.5,7.1l-0.9,2.9l0.9,2.1l6.4,3.5l-1.8,1.5l1.8,5.9l4.3,7.9l-3.3,1.8l-9.4-3.2
		l-5.2-2.9l0.9-2.6l2.7-3.8l-2.7-2.1l-4.9-0.6l-7.3,1.2l0.3,2.9h-1.2l-1.8-1.8h-4l-12.8,0.9l-0.9,1.5l3.6,6.8l4,3.2l-1.2,4.4
		l-0.9,7.1l6.7,6.8l9.4,0.3l6.7,3.2l3.6,0.9l6.1-1.5l4.9-1.5l2.1,3.5c0,0-0.6,0.9-1.8,1.8c-1.2,0.9-1.8,6.2-1.8,6.2l-1.5,7.9
		l-4.3,2.4h-3l-1.8-1.2l-3-1.2l-6.1,4.4l-4.6,0.6l-0.6-4.4l-4.9-2.1l-5.2,2.4l-3.6,6.8l-4.9,2.9l-8.5,5.9l-1.8,9.1l2.1,5l2.4-0.9
		l1.5,0.9l-2.1,2.1l-0.3,3.8l-4,1.5v1.8l4,6.5l1.2,7.1l2.7,2.4H123l1.5-2.6l1.8,1.8v7.9l1.2,3.2l-2.4,0.3l-2.7,1.8l1.2,3.5l-0.9,4.7
		l-2.7,2.6l4.9,0.6l4-2.1l7.6-0.3l0.6,3.5l2.1,0.9l2.4-2.4l2.7,10.6l2.7,0.3l0.3-5.3l1.8-1.8l2.4,0.6l1.2,4.4l6.4-1.2l3-2.4
		l-0.6,4.7l-3,2.6l-4.3,8.2l-3.6,6.8l-7.6,2.6l-2.4,6.8h-1.5l-1.2-0.9l-2.4,0.6l-6.4,1.2l-5.8,1.8l-4.3,5l-1.8,0.6l-3-2.4l-5.2-0.3
		l-3.3,1.5l-5.5,1.2l-4,3.8l-8.2,2.9l-11.9-1.2l-5.8,2.4v3.5l3,2.1l1.8-1.8l4.3-1.2l4.9,2.1l4,0.6l3-1.5l4-2.4h6.1l5.5-3.5l6.4,2.4
		l5.5-1.8l6.7-2.4l-0.6,4.4h1.8l1.5-4.1l6.1-0.3l5.2,1.8l0.9-2.1l2.7-2.6l-3.3-2.4l10-4.1l10-2.1l4-2.1l14.6-7.7l12.2-7.7l5.2-5.9
		l-1.5-3.8l-4.3-1.8l0.6-2.9l5.8-4.7l7.9-2.6l2.1-4.1l3.3-4.7l4.6-6.2l9.4-5l7,0.6l2.4,4.7h-5.2l-1.8-2.4l-8.2,4.1l-0.3,1.5v3.2
		l-4.3,7.1l-1.8,4.4l4.3,1.2v2.4l-7,1.2l0.9,3.8l8.8,0.3l6.4-3.8l3.3-3.8l5.8-3.8l5.2,3.2l2.4-2.1l2.4,1.5l0.9,3.5l2.4,0.6l7.3-7.9
		l-1.2-2.9l-6.1,5l2.7-7.9l-1.8-0.6l-2.1,5.3l-0.9-8.2l6.7-2.6l6.7-0.6l5.2,10.6l4,0.6l12.2,7.1l1.2-0.9h10.3L302,253l7,2.1l5.5-2.1
		l3.3-2.9v2.9l-2.4,5.9l7.6,4.7l9.1,4.7l4.9,5.3l6.4,4.4l4.9-1.2l0.9,0.6l-4,2.4v4.1l3,2.1l3,5.3l1.2,6.8l4,0.9l6.7,10.9l2.7,2.4
		v-2.1l-0.6-10.3l1.5,0.9l1.2,6.8l1.8,6.8l2.1-0.9l1.5-6.2h1.5v9.1l2.7,2.6l-3.3,3.5c0,0,1.2,2.1,2.4,2.6c1.2,0.6,1.8-1.8,1.8-1.8
		l1.8,4.1c0,0,3,5,4,6.2s2.4,1.8,2.4,1.8l1.5-1.5l-2.4-3.2l-0.9-2.9l4,2.4l3.6,3.5l2.1-0.9l-0.3-6.8l-2.7-5l1.5-1.5l3.3,2.1l5.2,2.6
		l2.7,5.6l3,1.5l3.3-4.1l1.8-6.2L411.8,315.3z"/>
	<polygon fill="white" points="203.2,264.1 198.1,267.7 189.2,274.2 180.1,279.4 177.7,281.5 179.8,292.1 185.3,293.6 194.7,288.3 202.9,283.6 
		199.9,279.2 200.8,274.7 196.8,277.1 191.4,275.6 194.4,273.6 198.1,275 205.4,271.8 206.3,269.1 201.7,267.7 	"/>
	<line fill="white" class="st1" x1="177.7" y1="281.5" x2="177.7" y2="281.5"/>
	<polygon fill="white" points="161.3,304.2 164,307.4 165.8,305.3 164.3,301.8 	"/>
	<polygon fill="white" points="116.9,307.7 121.4,307.7 123,304.2 119,303.6 	"/>
</g>
</svg>
