<?xml version="1.0" encoding="utf-8"?>
<!-- Generator: Adobe Illustrator 21.0.0, SVG Export Plug-In . SVG Version: 6.00 Build 0)  -->
<svg version="1.1" id="Layer_1" xmlns="http://www.w3.org/2000/svg" xmlns:xlink="http://www.w3.org/1999/xlink" x="0px" y="0px"
	 viewBox="0 0 432 432" style="enable-background:new 0 0 432 432;" xml:space="preserve">
<style type="text/css">
	.st0{fill:#050505;}
	.st1{fill:none;stroke:#000000;stroke-width:0;stroke-linecap:round;stroke-linejoin:round;}
	.st2{fill:#050505;stroke:#050505;stroke-width:8.239910e-03;}
</style>
<polygon opacity="0.15" fill="#FFFFFF" points="368.5,59 294,58.9 195.4,57.6 112.6,55.9 110.9,107.4 108.6,109.4 104.7,119 97.8,116.2 88,111.2 
	77.1,110.7 73.1,118.4 77.4,127.4 76.7,141.2 77.2,153.7 79.2,166.3 75.3,178.7 76.2,184.5 78.6,193.3 82.5,204.7 88.8,217.1 
	98.3,229.8 81.6,242.3 76,271.5 64.8,285.7 67.1,297.1 68.5,306.8 77.6,316.1 71.1,328.7 63.9,328.3 58.3,340.4 139.4,375 
	264.1,422.9 373.7,422.3 "/>
</svg>
