<svg xmlns="http://www.w3.org/2000/svg" width="236" height="298" viewBox="0 0 236 298">
    <path opacity=".15" fill="#FFF" fill-rule="evenodd" d="M140.604 17.64L58.299.623l-4.032 30.027-3.693 13.178c-.51 1.824-2.186 3.098-4.075 3.098h-3.905c-1.167 0-2.292-.488-3.098-1.337l-4.86-5.178-4.309-2.164-2.886 1.676-2.462 6.43v33.337l-2.271 9.613-.212.891 4.435 13.623 7.938 15.152c.318.615.467 1.273.467 1.952v5.75c0 1.804-1.146 3.417-2.844 4.011l-5.455 1.91-8.468 6.918-3.226 15.618c-.19.955-.7 1.783-1.443 2.398l-7.598 6.366v10.377l6.134 9.761c.934 1.507.849 3.46-.255 4.86l-4.011 5.135c-.403.53-.892.955-1.486 1.23l-6.027 2.95v.807l140.817 86.24 67.894 12.307 26.571-263.663-95.335-16.254z"/>
</svg>
