<?xml version="1.0" encoding="utf-8"?>
<!-- Generator: Adobe Illustrator 21.0.0, SVG Export Plug-In . SVG Version: 6.00 Build 0)  -->
<svg version="1.1" id="Layer_1" xmlns="http://www.w3.org/2000/svg" xmlns:xlink="http://www.w3.org/1999/xlink" x="0px" y="0px"
	 viewBox="0 0 432 432" style="enable-background:new 0 0 432 432;" xml:space="preserve">
<style type="text/css">
	.st0{fill:#050505;}
	.st1{fill:none;stroke:#000000;stroke-width:0;stroke-linecap:round;stroke-linejoin:round;}
	.st2{fill:#050505;stroke:#050505;stroke-width:8.239910e-03;}
</style>
<g>
	<path opacity="0.15" fill="#FFFFFF" d="M406.9,96.8c2.7,3.4,7.8,6,3,10.7c-5.6-5.9-8.4,2.8-5,6.9c-5.5,0.2-17.5,5.8-15.7,11.4
		c1.6,4.7,5.8,2.3,3.9,7.7c-1.1,3.2-7,6.2-9.4,7.6c-3.9,2.1-5.8,3.3-8.4,7.3c-0.4,0.6,0.5,2,0.1,2.5c-0.9,1.5-3.8,2.1-4.4,3.6
		c-1,2.5-0.3,3.3,0.1,5.8c0.5,3.2,2.6,7.6,3.6,10.7c1,3,2.7,7,5.8,8.2c-2,1.6-5.9,2.5-7.6,4.4c-1.3,1.4-0.8,3.6-1.9,5
		c-2.7,3.6-8.7,1-9.5,4.4c-1.3,5.8,7.9,5.4,2.4,11.5c-3.4,3.8-8.6,3.6-11.2-0.3c-9.1,5.8,3.6,23.8-10.1,27.7c-0.4-1.2-2.1-3-2.4-3.7
		c-1.9,5.4,1.6,7.8,1.8,11.9c0.4,6.8-8.1,10-6.8,16.9c0.3,0.2,1,0.5,1.2,0.7c-5.1,4.8-9.2,2.2-13.3,5.7c-3.1,2.6-4.5,10.9-10,8.8
		c-1.3,2.5-2.6,6.6,1.2,6.9c1.1,4.8-5.3,7.3-2.4,11.2c-5,4.4-11.4,5.8-8.7,13.2c0.9-0.3,2.6,0.1,3.5-0.3c-1.2,4.5-6.7,6.1-8.5,10
		c-1.5,3.4,0.7,10.5-6.9,9.4c-0.2,3.6-1.7,9.1,3,9.4c0.9,3.8-3.8,8.7,1.9,8.8c-0.1,2.7-1.5,5.2-2.9,7.6c5.9,2.6,8,4.6,7.9,11.3
		c0,0.8,1.5,0.8,1.2,2.5c-0.2,1.3-3,2.7-3.1,3.3c-0.4,2.6-1.1,3.5,1.8,4.4c1.1,5.1-5.2,5.8-7.5,9.3c2,2.8,1.8,6,5.7,6.9H62.3v-54.7
		c-3.1,0.9-7.5-0.8-11.3-0.6c-3.5,0.1-7.1,1.6-10.7,1.9c-1.6,0.2-6.1,0.7-7.4,0c-3.7-1.9-0.5-1.9-2.6-4.5c-2.4-3-4.6-3.9-6.3-8.1
		c0,0,8.2-103.8,5.7-142.1c-1-9.5-9.4-132.1-9.4-132.1L371.7,49c-0.4,1.4,0,3.5,0.1,4.9c6,1.9,3.8,4.4,3.8,8.9
		c0,3.5,2.2,2.2,0.4,6.3c-1.2,2.6-5.1,4.5-6.8,6.8c-3.9,5.1-13.2,15.5-12.5,22.2L406.9,96.8z"/>
</g>
</svg>
