<svg xmlns="http://www.w3.org/2000/svg" width="184" height="170" viewBox="0 0 184 170">
    <path opacity=".15" fill="#FFF" fill-rule="evenodd" d="M140.193 119.172c.064-.36.213-.7.382-.997l8.872-17.74c.148-.361.403-.68.679-.998l6.919-7.47 3.14-13.071c.107-.446.298-.87.553-1.273l9.02-14.451 3.947-9.21V44.71c0-.615.127-1.21.425-1.761l6.303-13.751 2.78-7.47-16.215 2.059c-.212.021-.382.042-.551.042-1.02 0-2.017-.382-2.802-1.06-.912-.807-1.443-1.953-1.443-3.184V14.96c0-.891.318-1.761.828-2.504l6.961-9.57V1.25L168.314.04.437 8.275l6.134 48.127 2.44 47.385v37.157H24.76c2.314 0 4.245 1.91 4.245 4.244v24.128l110.638-6.366-3.333-24.7c-.063-.468-.042-.977.064-1.444l3.82-17.634z"/>
</svg>
