<?xml version="1.0" encoding="utf-8"?>
<!-- Generator: Adobe Illustrator 21.0.0, SVG Export Plug-In . SVG Version: 6.00 Build 0)  -->
<svg version="1.1" id="Layer_1" xmlns="http://www.w3.org/2000/svg" xmlns:xlink="http://www.w3.org/1999/xlink" x="0px" y="0px"
	 viewBox="0 0 432 432" style="enable-background:new 0 0 432 432;" xml:space="preserve">
<style type="text/css">
	.st0{fill:#050505;}
	.st1{fill:none;stroke:#000000;stroke-width:0;stroke-linecap:round;stroke-linejoin:round;}
	.st2{fill:#050505;stroke:#050505;stroke-width:8.239910e-03;}
</style>
<polygon opacity="0.15" fill="#FFFFFF" points="374.1,375.1 371.7,368 377.6,358 378.7,338.9 388.3,329.5 381.2,322.2 376.1,314.9 372.7,307.9 
	370.3,302.5 369.3,298.9 309.1,251 246.9,200 183.7,146.7 180.5,23.3 50.9,23.4 51.3,58.8 43.7,92.8 60.1,115.6 64,149.2 
	88.6,183.9 103,197.6 101.8,207.1 129.5,264.3 162.7,305.3 167.2,327.8 176.1,334.3 203.2,336.7 218.5,349.2 232.4,350.2 
	270.3,373.2 286.2,393.7 291.3,408.7 330.8,403 374.7,395.2 379.4,394.9 382.5,386.3 375.9,381.2 "/>
</svg>
