<svg xmlns="http://www.w3.org/2000/svg" width="281" height="532" viewBox="0 0 281 532">
    <path opacity=".15" fill="#FFF" fill-rule="evenodd" d="M257.647 521.045l-5.22-8.297c-.425-.658-.659-1.443-.659-2.25v-13.601c0-1.274.552-2.462 1.528-3.247l8.002-6.663 3.225-15.661c.191-.955.722-1.825 1.465-2.44l10.23-8.34c.382-.318.827-.552 1.294-.721l3.311-1.168v-1.718l-7.725-14.876-5.073-15.427c-.254-.743-.276-1.55-.085-2.313l.064-.276-154.719-243.291c-.636-.997-.827-2.207-.509-3.353l35.528-135.937L26.991.107l-1.846 19.056-3.8 14.918-4.944 10.398-3.502 11.056c-.276.848-.785 1.57-1.507 2.1l-9.317 6.982-1.931 3.332L3.476 83.46l6.621 22.345c.213.742.234 1.506.043 2.249l-1.825 7.13-3.8 8.085v23.937l13.86 34.1c.403.998.424 2.101.042 3.099l-1.443 3.756.658 4.54 4.69 5.815.36-.148 2.314-3.395c.467-.7 1.146-1.231 1.931-1.55l5.115-2.015c.998-.404 2.165-.425 3.163.02l4.881 1.995c.53.213.997.53 1.4.913l3.863 3.862c.807.806 1.253 1.889 1.253 3.013 0 1.125-.446 2.207-1.253 2.992l-2.1 2.101c-.34.34-.701.594-1.126.807l-6.558 3.225-4.096 4.202-5.242 3.904v25.337l3.29 6.07 5.03 3.267c.636.425 1.146.976 1.485 1.655l4.16 8.276c.552 1.104.594 2.398.127 3.544l-3.565 8.573c-.255.616-.637 1.146-1.125 1.57l-3.014 2.632v7.618l29.055 67.417c.234.53.361 1.103.361 1.676v8.87c0 .53-.106 1.04-.297 1.528l-2.76 7.003 2.187 9.91 8.234 5.347 19.102 8.955c.488.234.912.552 1.294.934l19.632 21.008 7.237 5.369 7.662 2.61c.997.34 1.825 1.04 2.355 1.974l5.03 9.124c.191.34.319.7.425 1.083l1.507 6.472 7.194 3.098c.68.297 1.274.764 1.72 1.358l13.71 18.292 12.649 22.982c.34.615.53 1.315.53 2.037v21.857l76.744 15.342v-.658c0-1.634.934-3.098 2.377-3.82l7.492-3.67 1.592-2.038z"/>
</svg>
