<?xml version="1.0" encoding="utf-8"?>
<!-- Generator: Adobe Illustrator 21.0.0, SVG Export Plug-In . SVG Version: 6.00 Build 0)  -->
<svg version="1.1" id="Layer_1" xmlns="http://www.w3.org/2000/svg" xmlns:xlink="http://www.w3.org/1999/xlink" x="0px" y="0px"
	 viewBox="0 0 432 432" style="enable-background:new 0 0 432 432;" xml:space="preserve">
<style type="text/css">
	.st0{fill:#050505;}
	.st1{fill:none;stroke:#000000;stroke-width:0;stroke-linecap:round;stroke-linejoin:round;}
	.st2{fill:#050505;stroke:#050505;stroke-width:8.239910e-03;}
</style>
<g>
	<path opacity="0.15" fill="#FFFFFF" d="M282,305.7l7.1,87.1l-129-3.1l-17.2-319c2.5-0.6,6.6-8.3,8.3-11.1c4.9-7.8,12.8-10.2,20.5-14.6
		c5.3-3,7.8-6.6,14-5.8c4.5,0.6,8.5,2.5,13.1,2.7c8.4,0.5,11.2,5,17.8,8.5c-8.9,1.4-7.8,13.1-11.2,19.2c-1.3,2.2-4.1,6.6-6.1,7.9
		c-1.6,1-6,0.2-8.4,2.4c-1.7,1.6-2,4.2-3.7,6c-2.8,2.8-5.2,1-8.2,3c-5.5,3.7-3.6,13.3-0.4,17.7c5.9-0.1,9.4,3.2,10.2,8.9
		c1.2,7.8-6,8.5-7.2,14.6c-1.1,5.7,3.2,8.4,6.8,11.6c4.5,4,5.2,7.9,7.2,13.4c1.7,4.7,3.9,11,7.5,14.5c4.5,4.4,8.4,5.1,11.3,11.2
		c1,2.1,3.1,4.1,3.8,6.1c0.8,2.4-0.3,5.9,0,8.4c0.4,3.6,3.7,10,0,12.5l-0.5,28.7c2.1,3.6,5.7,5.7,8.9,8c4.1,2.9,3.8,3.9,6.1,8.4
		c2.1,4,3.8,5.6,3.8,10.7c0,4.5-0.2,8.6,2.2,12.6c2.2,3.6,6.1,7.3,8.9,10.6c3.5,4.2,7.6,8.7,11.3,12.6
		C263.8,304.8,275.5,316.1,282,305.7"/>
</g>
</svg>
