<?xml version="1.0" encoding="utf-8"?>
<!-- Generator: Adobe Illustrator 21.0.0, SVG Export Plug-In . SVG Version: 6.00 Build 0)  -->
<svg version="1.1" id="Layer_1" xmlns="http://www.w3.org/2000/svg" xmlns:xlink="http://www.w3.org/1999/xlink" x="0px" y="0px"
	 viewBox="0 0 432 432" style="enable-background:new 0 0 432 432;" xml:space="preserve">
<style type="text/css">
	.st0{fill:#050505;}
	.st1{fill:none;stroke:#000000;stroke-width:0;stroke-linecap:round;stroke-linejoin:round;}
	.st2{fill:#050505;stroke:#050505;stroke-width:8.239910e-03;}
</style>
<path opacity="0.15" fill="#FFFFFF" d="M408.7,371.6l-2.7-52.3l0,0l-32.7-70.8l-1.6-25l0,0L345,183.7l-27.8-82.2l2.2-5.4c0,0,0,0,0-0.5c0-0.5,0,0,0,0
	l-24-4.9h-0.5l-3.8,4.9c0,0,0,0,0,0.5l2.2,9.8l-1.1,11.4l-6,0.5l-2.2-2.7l-1.6-8.7c0,0,0-0.5-0.5-0.5l-137.8-5.4l-4.4-6.5L137,83.5
	c0,0,0,0-0.5,0L0.9,83l0,0c0,0-0.5,0-0.5,0.5l-1.1,8.7c0,0,0,0,0,0.5l11.4,12.5l-2.2,7.1l0,0l1.1,9.8c0,0,0,0,0,0.5c0,0,0,0,0.5,0
	l8.2-7.6l4.9-0.5l0,0l4.9-3.8h1.1v2.2l-2.7,7.1c0,0,0,0,0,0.5c0,0.5,0,0,0.5,0l38.7-4.9l3.8,1.6L69,120l-2.7,1.1l0,0c0,0,0,0,0,0.5
	l0.5,1.6l0,0l41.4,21.2l9.3,14.2l0,0l3.8,3.3c0,0,0,0,0.5,0l27.2-5.4l0,0l13.6-7.1h6l0,0l1.1-0.5l0,0l0.5-4.9l4.9-3.8h13.1l9.3,3.3
	l16.3,17.4l0,0l4.9,2.2l0.5,9.3c0,0,0,0,0,0.5l4.9,2.2l10.3,12l0,0l18,8.2l2.2,3.3l2.2,74.6l0,0l0.5,1.1c0,0,0,0,0.5,0h4.4l0,0
	c0,0,0.5,0,0.5-0.5l0.5-8.7l3.8,1.1l3.8,3.3l-5.4,21.2l0,0l1.6,10.3l0,0l20.1,28.9l0,0l2.2,1.1c0,0,0,0,0.5,0l7.1-2.7l3.3,16.3l0,0
	c0,0,0,0,0.5,0l4.4-1.6l0.5,0.5l-2.7,4.4l0,0l-0.5,3.8c0,0,0,0,0,0.5l9.3,12l7.6,19.1l0,0l5.4,5.4l0,0h8.7l5.4,4.9l10.9,20.7v12.5
	l0,0l1.1,2.2l0,0l4.4,3.3l0,0l0,0l22.9-3.8l0,0l12-6.5l7.6,3.3h0.5l4.4-7.6v-0.5l-4.4-3.3L408.7,371.6L408.7,371.6z"/>
</svg>
