<svg xmlns="http://www.w3.org/2000/svg" width="345" height="251" viewBox="0 0 345 251">
    <path opacity=".15" fill="#FFF" fill-rule="evenodd" d="M249.903 9.444l-1.125-7.406-2.377.785c-1.549.51-3.204.128-4.372-1.04L240.777.533h-4.584l-.53 2.546 2.016 12.86c.275 1.485-.34 2.992-1.486 3.947l-3.99 3.31c-1.167.955-2.78 1.273-4.16.7l-3.82-1.379c-1.04-.382-1.889-1.146-2.377-2.143L219.724 16h-2.547l-103.061 10.08c-.17 0-.297.021-.446.021-1.103 0-2.165-.445-2.95-1.21l-6.324-6.11c-.34-.298-.595-.637-.807-1.02l-1.677-3.076L.486 28.394l8.17 10.143c.616.764.956 1.698.956 2.674v6.048l.276-.403c.403-.573.955-1.061 1.613-1.358l8.15-4.053c2.058-1.104 4.626-.234 5.687 1.888l1.635 3.247h.997l10.124-4.563 15.28-3.183c1.507-.19 3.035.213 4.012 1.359l3.714 4.159 8.553 5.093 19.228 6.917c.51.17.955.446 1.337.786l13.265 11.543 4.478-1.315 27.081-14.494 4.118-6.408c.764-1.21 2.143-1.953 3.565-1.953h18.146c.976 0 1.91.34 2.632.913l21.754 17.146 8.659 9.358 21.054 11.756c.89.51 1.57 1.316 1.91 2.292l4.966 14.196c.19.446.255.934.255 1.4v30.028l.785 3.459c.297-.234.615-.446.997-.53l3.141-1.274c1.444-.594 3.226-.318 4.436.827l2.887 2.653c.87.806 1.337 1.931 1.337 3.12v4.456l-1.571 9.358 1.655 8.085 17.319 20.074h5.157c1.74 0 3.29 1.082 3.948 2.716l4.053 10.505 17.467 25.273h9.105c1.146 0 2.207.446 3.014 1.252l11.63 11.65c.446.446.807 1.019 1.019 1.634l4.924 14.557 2.568 1.082 13.095-4.88 10.357-5.836c.615-.36 1.337-.53 2.08-.53l1.867-.276-1.931-2.59c-.68-.89-.955-1.994-.807-3.119l4.012-28.541-3.566-24.68-3.778-17.145-23.324-33.316-6.855-13.369c-.191-.446-.382-.934-.425-1.422l-2.08-17.082-11.821-15.47L280.38 69.35l-18.019-30.918-12.267-27.968c-.042-.297-.148-.68-.19-1.019"/>
</svg>
