<svg xmlns="http://www.w3.org/2000/svg" width="202" height="206" viewBox="0 0 202 206">
    <path opacity=".15" fill="#FFF" fill-rule="evenodd" d="M195.836 120.945c-1.656-.318-2.972-1.528-3.354-3.12l-2.016-7.83-3.29-5.857-5.518-3.501c-.827-.51-1.422-1.273-1.74-2.186l-2.717-7.681-5.645-8.743-3.969-1.592c-.424-.17-.743-.403-1.082-.636L153.43 69.082l-13.753-13.22-22.624-17.464c-.318-.234-.552-.467-.785-.764l-8.362-10.907c-.276-.382-.467-.786-.615-1.252l-.892-2.653-7.874-1.358c-.7-.127-1.358-.424-1.974-.87l-4.541-3.692-4.712-1.316c-2.059-.594-3.374-2.631-3.056-4.753l1.21-7.576L86.28.88h-9.869L63.593 4.573 47.187 7.586l-.255.021-2.504.318L.58 13.485l33.3 104.935 5.433 5.793c.424.424.7.912.913 1.422l1.655 4.583 2.674 3.056c1.146 1.316 1.38 3.183.552 4.753l-4.415 8.573v8.85l3.226 7.511c.234.53.34 1.104.34 1.677v22.833l4.733 8.615 2.759 5.05 4.457 4.308 107.2-9.93c1.633 0 3.098.933 3.82 2.397l2.504 5.135.19-.17-1.782-11.246c-.064-.488-.042-1.019.042-1.507l1.38-6.684c.403-1.974 2.144-3.395 4.16-3.395h9.847c1.125 0 2.186.445 3.014 1.273l.637.615 1.783-1.018 1.825-15.237 4.818-22.62 5.878-20.605-.488-.573-5.2-.934z"/>
</svg>
