<?xml version="1.0" encoding="utf-8"?>
<!-- Generator: Adobe Illustrator 21.0.0, SVG Export Plug-In . SVG Version: 6.00 Build 0)  -->
<svg version="1.1" id="Layer_1" xmlns="http://www.w3.org/2000/svg" xmlns:xlink="http://www.w3.org/1999/xlink" x="0px" y="0px"
	 viewBox="0 0 432 432" style="enable-background:new 0 0 432 432;" xml:space="preserve">
<style type="text/css">
	.st0{fill:#050505;}
	.st1{fill:none;stroke:#000000;stroke-width:0;stroke-linecap:round;stroke-linejoin:round;}
	.st2{fill:#050505;stroke:#050505;stroke-width:8.239910e-03;}
</style>
<path opacity="0.15" fill="#FFFFFF" d="M204,158.5l-1-1.2l-0.3-1.5l0-1.4l-0.2-1l-1.2-0.4l-1.1-0.6l0.2-1.4l0.7-1.4l0.4-0.5l-3.5,0l-1,0.3l2,1.5
	l-1.3,0.5l-0.8,0.1l-0.4-0.4l-0.3,0l-1.7-1.8l-1-0.9l-0.7-1l-1.3-2.9l0.5-0.1l0.2,0.1l0.3,0.5l0-1.5l-0.1-1.2l-0.5-0.9l-1.8-1.3
	l-1.3-1.8l-1.1-2.1l-0.2-1.3l-0.7-1.5l-0.9-1.2l-1.1-0.9l-1.3-0.6l-0.2-0.3l-0.2-0.2l-0.1-0.2l0-0.4l-4.3,2.3l-1.1,0.9l-0.7,1.5
	l-0.5,0.9l-0.6,0.4l-0.5,0.2l-2.2,1.4l-0.3,0.7l0,0.7l-0.3,0.5l-1.1,0.2l-0.8-0.1l-1.4-0.3l-4-0.2l-1.6,0.1l-1.3,0.5l-0.7,1.3
	l2.6,2.3l-0.2,1.4l-0.6,1.6l0.8,1.5l1.2,1.2l0.8,0.7l0.8,1l1.4,2.6l1,1.3l0.6,0.5l1.1,0.5l0.5,0.4l0.3,0.5l1.5,5.3l0.4,0.2l0.3,0.3
	l0.3,0.1l0.7-0.5l0.9-0.5l3.5-0.6l1.6-0.1l1.6,0.5l0.2-2.3l-0.9-1.1l-1.4-0.7l-1.3-1.1h1.4l1.7,0.6l0.9-0.1l-1-2.1l1.1,0.7l0.4,0.4
	l0.6-0.4l0.6,0l0.5,0.3l0.3,0.7l-0.1,1l-0.7,0.4l-0.8,0.2l-0.5,0.6l0.4,1.6l1.5,0.4l1.6-0.5l1-1.1l1.6,0.8l0.7,0.5l0.7,0.8l-0.3,0.8
	l0.7,0.7l2.2,1.2l1,1l0.5,0.1l1.2,0l1.7-0.5l1.9-0.8l1.7-0.2l1,1.4l1.1-1l3.8-2.7l-1.1-1L204,158.5z M87.1,95.6l-0.5-0.3l-0.4-0.7
	l-0.3-0.9l-0.1-0.8l-0.4-1.1l-1-1L83.2,90l-1.8-0.6l-0.8-0.5l-0.8-0.3L79.1,89l-0.5,0.4l-0.8,0.2l-5.6,0.8l-0.5,0.2l-1-0.8l-1.2-0.6
	l-1.1-0.1l-1,0.6l-1.3,0.4l-4,2.1L56.5,96l-0.2,0.2l-0.5,0.2L55.7,97l0,0.7l-0.2,0.6l-2.9,3.7l-0.8,0.6l-0.5,0.8l0.7,1.7l1,1.6
	l0.5,0.4l0.4,1.3l0.9,0.5l1.2,0.4l1.3,0.9l1.2,0.4l1.7-0.1l1.6,0.2l1.1,2.1l2,1.8l0.6,0.7H66l1.7-0.5L71,115l3.3,0.9l1.6,1.6l4-2.7
	l4-3.7l-0.3-0.8l0.1-0.5l0.5-0.1l0.8,0.3l0.1-1.4l-0.1-1.5l-0.2-1.4l-0.3-1l2.6-4.6l0.8-3.2l0-0.8L87.1,95.6z M274.1,172.1l-2.1-0.5
	l-1.4,0l0,0l-0.6-0.2l-0.4-0.2l-0.4-0.2l-0.6,0l-0.4,0.2l-0.8,0.7l-0.6,0.2h-5l-1.5-0.2l-1-0.6l-1.7-1.9l-1.4-1.1l-0.2,0.3l0.1,1
	l-0.6,1l-1.1,0.1l-2.5-1l-1.1-0.3l-9.7-0.5l-0.8-0.6l-0.8-0.9l-0.8-0.6l-0.8,0.2l-0.7,0.4l-0.8,0l-0.8-0.3l-0.4-0.3l-0.1,1.5
	l0.2,1.1l-0.2,1.1l-1.3,1.6l-0.7,0.6l-0.8,0.9l-0.6,1.2l0,1.4l0.8,1.1l1.4,0.6l1.6-0.1l1.4-0.8l1.2-0.4l4.5,0.2l6.2-0.6l1.6,0.2l7,3
	l2.9,0.8l2.8,0.3l2.8-0.6l2.7-1.1l2.7-1.5l2.2-2.2l1.2-3.1L274.1,172.1z M29.9,106.1l-0.8,0.3l-0.9,0.9l-1.6,2.2l-0.8,0.9l-1,0.7
	l-0.2,0.9l-2.2,0.6l-2.6,3.8l-0.9,2.2l-0.4,2.2l0.5,1.8l1.8,0.8h0.8l0.6-0.2l0.4-0.6l0.4-2.3l0.5-1.1l2.4-3l0.7-0.2l1.4,0l1-0.2
	l1.4-1l0.9-0.3l-0.5-2.1l0.3-2l0.9-1.7l1.3-1.2l-0.9-1.1L29.9,106.1z M408.1,293.3l-3.7-2l-2.9-3l-0.5-1l-0.6-3.9L400,282l-0.9-0.7
	l-1.8-0.2l-2.9,0.5l-0.8-0.4l-0.5-1.7v-6.1l-0.3-1.7l-0.6-1.4l-6.1-6.9l-2.4-1.9l-9.5-4.9l-7.9-3.2l-3.2-0.6l-2.7-1.7l-1.6-0.6
	l-0.7,0.2l-0.7,0.5l-0.8,0.2l-0.9-0.6l-0.9-0.9l-0.5-0.3l-1.4-0.4l-1.9-1.8l-4.3-1.7l-0.5-0.4l-0.2-0.7l-0.1-0.7l-0.2-0.6l-0.4-0.4
	l-2-0.4l-4.2-1.9l-2.3-0.4l-1.8,2.1l-1.1,2.9l-0.3,2.3l0.7,2.9l1.2,2.5c1.3,1.6,2.6,3.3,3.8,4.9l0.8,1.5l0,1.3l-0.7,1l-2.3,1.9
	l-0.5,0.5l-2.8,4.2l-0.7,0.9l-1.5,2.5l-3,1.1l-1,0.8l-0.4,1.4l-0.7,0.8l-1.5,1l-1.5,1.4l-0.8,1.8l0.4,3.2l1.5,2.4l1.9,2.2l1.7,2.6
	l0.6,1.6l0.5,1.6l0.3,1.7l0.1,1.8l0.1,0.7l0.9,2.7l0.3,0.1l1-0.1l0.2,0.1l0,0.4l-0.1,0.8l0.1,0.4l1.7,6.2l1,1.7l0.3,0.9l0,0.6
	l-1.9,12.2l-0.1,6.4l0.4,1.6l0.9,0.7l0.9,0.4l0.3,0.9l0.2,1.1l0.4,0.7l0.6,0.2l2.4-0.2l2.7,0.7l2.9,1.3l2.6,1.6l1.6,1.6l1.2,2.2
	l0,0.4l0.9-0.3l1.3-1.4l0.8-0.3l1-0.6l3.2-4.6l1.1-4.3l0.7-1.2l3.1-3l1.1-0.4l3.7-2.1l1-0.8l1.7-1.8l1-0.7l1.2-0.3l0.9-0.3l2.3-2.3
	l1.7-1.3l0.9-0.4l1.3-0.3l5.7,0.3l1.3-0.7l4.9-1.1l2.5-1.4l1.4-0.5l1.8-0.2l1.2-0.4l6.4-5.8l0.5-0.9l5.9-3.4l0.9-1.2l0.8-1.6
	l0.5-1.7l0.2-1.6L408.1,293.3z M265.2,194.6c-0.5-0.3-0.9-0.6-1.4-0.9l-3.7-3.6l-8.4,0.6l-2.1,1.2l1.5,2.4l2.5,1.5l0.7,0.9l0.3,1.6
	l0,1.8l0.2,1.7l0.6,1.5l1.2,1l3,0.5l3.1-1l2.6-1.9l1.7-2.3l0.7-1.3l0.1-0.7l-0.5-0.8L265.2,194.6z M326.3,205.7l0.9-2.9l-1.1-2.7
	l-4.2-2.4l-1-0.4l-3.3-0.5l-0.7-0.8l-0.4-1.6l-0.5-0.8l-2.6-0.5l-1.6-0.5l-0.7-0.9l-0.4-0.8l-1-1.1l-1.2-0.7l-0.9,0.3l-0.2-0.3
	l-0.2-0.2l-0.2-0.1l-0.3,0l-1-0.4l-1.2-0.2l-1.2,0l-1.1,0.1l-1.1,0.4l-2.3,1.7l-0.8,0.2l-2.1,0.1l-1.1,0.2l-1.1,0.5l-0.9,0.6
	l-0.9,0.2l-1-0.7l-2.1-4.9l-0.5-0.9l-0.6-0.8l-2.9-2.9l-0.9-0.6l-1.1-0.9l-0.6-0.1l-0.3,0.8l-0.2,0.4l-0.6,0.1l-0.7-0.1l-0.5-0.2
	l-0.1,0.5l-0.3,1l0,0.6l-0.4-0.2l-0.9-0.2l-0.3-0.2l-0.3,1.8l-2.7,5.6l4.8,7l0.4,0.4l0.6,0.1l1.7,0.7l1.3,0.9l2.1,0.9l0.9,0.1
	l0.7-0.2l0.6-0.2l0.8-0.2l1.8-0.1l0.8,0.2l0.4,0.6l0.2,1.7l0.2,0.8l0.3,0.4l0.7,0.6l0.4,1.5l0.2,6.5l0.8,2.6l1.9,1.5l3.2,0l1.4-0.7
	l0.8-0.3l0.4,0.2l0.4,0.4l0.8,0.1l2.7-0.6l4.1-2.8l1.4-0.3l1.3,0.2l1.4,0.4l1.6,0.2l1.3-0.4l4.9-2.8l2.1-1.8L326.3,205.7z
	 M286.1,216l-1.1-1.1l-1.4,0.2l-1.4,0.8l-2.2,1.6l-2.7,1.1l-1,0.8l-0.7,1.3l2.2,1.5l1,0.2l1.7-0.9l0.7-0.2l3.1,0.1l1.7-0.3l0.9-0.9
	l-0.9-0.7L286.1,216z"/>
</svg>
