<svg xmlns="http://www.w3.org/2000/svg" width="217" height="369" viewBox="0 0 217 369">
    <path opacity=".15" fill="#FFF" fill-rule="evenodd" d="M50.655 129.338l2.016 12.308 5.221 8.53c.403.658.615 1.422.615 2.207v10.27c0 .87-.254 1.698-.742 2.399l-11.376 16.615-7.62 14.854c-.487.955-1.315 1.677-2.334 2.038l-5.56 1.994-7.81 9.74-1.02 4.35 3.142 2.823c.424.36.743.806.976 1.316l2.717 5.58c.594 1.231.573 2.674-.085 3.905l-2.505 4.584-5.157 13.623-20.31 79.767 98.56 23.046 65.793 14.6 32.026 4.54L216.07 251.08l-2.759-2.653c-.403-.382-.722-.848-.934-1.336l-.19-.446-.765 1.103c-.637.934-1.634 1.592-2.759 1.783l-9.869 1.74-33.002-1.464-8.914-1.38c-1.847-.297-3.29-1.76-3.544-3.628l-1.762-13.008-3.226-4.902-5.115-3.968c-1.04-.807-1.655-2.038-1.655-3.353v-10.313l-5.879-27.226-1.762 1.698c-.53.509-1.188.87-1.91 1.04l-7.3 1.824c-1.253.361-2.611.043-3.63-.764l-4.648-3.628c-.7-.552-1.21-1.316-1.464-2.165l-1.337-4.583c-.234-.764-.234-1.57-.021-2.335l2.589-9.294 3.353-6.96 1.847-13.03c.085-.594.297-1.146.615-1.655l5.03-8.021 1.677-3.692-2.165-.7c-.616-.213-1.167-.531-1.634-.998l-6.24-6.048c-.403-.382-.7-.827-.934-1.337l-11.567-26.228-7.619-14.663c-.424-.807-.552-1.74-.424-2.632l1.634-10.44-3.757-7.852c-.148-.318-.275-.657-.34-1.018l-2.334-12.01c-.127-.659-.106-1.338.085-1.996l7.195-24.849 3.947-13.666L81.641.955 52.48 114.335l-1.825 15.003z"/>
</svg>
