<?xml version="1.0" encoding="utf-8"?>
<!-- Generator: Adobe Illustrator 21.0.0, SVG Export Plug-In . SVG Version: 6.00 Build 0)  -->
<svg version="1.1" id="Layer_1" xmlns="http://www.w3.org/2000/svg" xmlns:xlink="http://www.w3.org/1999/xlink" x="0px" y="0px"
	 viewBox="0 0 432 432" style="enable-background:new 0 0 432 432;" xml:space="preserve">
<style type="text/css">
	.st0{fill:#050505;}
	.st1{fill:none;stroke:#000000;stroke-width:0;stroke-linecap:round;stroke-linejoin:round;}
	.st2{fill:#050505;stroke:#050505;stroke-width:8.239910e-03;}
</style>
<path opacity="0.15" fill="#FFFFFF" d="M144.9,17.9c0,19.9,0,39.9,0,59.8c4.1,5.7,8.1,11.3,12.2,17c0.5,1.5,0.9,3,1.4,4.6c-0.8,0.9-1.6,1.9-2.4,2.8
	c1.5,1.3,2.9,2.6,4.4,3.9c-1.8,1-3.5,2-5.3,3c2.7,1.6,5.5,3.1,8.2,4.7c0.4,0.9,0.7,1.8,1.1,2.6c1.7,0.4,3.4,0.9,5.1,1.3
	c1.1,1.1,2.3,2.1,3.4,3.2c3.5,4.4,7.1,8.8,10.6,13.3c1.6,1.2,3.2,2.5,4.8,3.7c0.4,2.2,0.7,4.5,1.1,6.7c1.5,0.6,3,1.2,4.5,1.8
	c0.1,0.9,0.2,1.8,0.3,2.6c0.9-0.2,1.8-0.3,2.7-0.5c1,0.5,2,1,3,1.6c0.3,1.2,0.6,2.5,0.9,3.7c3.5-0.4,6.9-0.7,10.4-1.1
	c0,1.7,0.1,3.4,0.1,5.1c-1,1.4-2,2.8-3,4.2c-0.6,6.3-1.1,12.6-1.7,18.9c-0.8,0.1-1.7,0.2-2.5,0.4c1.2,5.5,2.4,11,3.5,16.4
	c-1,0-2.1,0.1-3.1,0.1c-0.9,1.3-1.8,2.6-2.7,3.9c0.8,1,1.7,2.1,2.5,3.1c-0.8,3-1.7,6-2.5,9.1c1.3,0,2.6,0,3.8,0
	c1.7,2.1,3.3,4.2,5,6.3c1.2-1.7,2.3-3.5,3.5-5.2c2-0.9,3.9-1.7,5.9-2.6c1-2,2-3.9,3-5.9c1.1,0,2.2,0,3.2-0.1
	c1.3,1.6,2.6,3.2,3.9,4.9c0.2,1.7,0.3,3.3,0.5,5c0.8,0.2,1.5,0.3,2.3,0.5c1,4.5,2,9.1,3,13.6c2.9,4.1,5.7,8.3,8.6,12.4
	c0,2.6,0,5.3,0.1,7.9c1.2,1.6,2.3,3.1,3.5,4.7c1.4-0.3,2.8-0.5,4.2-0.8c1.8,0.9,3.6,1.8,5.5,2.7c2,6.3,4,12.5,6,18.8
	c1.7,1,3.4,2.1,5.1,3.1c0.6-2.5,1.1-5,1.7-7.5c5.3,1,10.5,2,15.8,3c1.3-2,2.6-4,3.9-6c2.3,0.8,4.7,1.6,7,2.4
	c2.5-0.9,5.1-1.8,7.6-2.7c1.1,1,2.2,1.9,3.2,2.9c1.5-0.8,3-1.6,4.6-2.4c3,0.3,5.9,0.6,8.9,1c-0.8-1.1-1.5-2.3-2.3-3.4
	c1.7-2.7,3.4-5.5,5.1-8.2c1.5,0.8,3,1.7,4.6,2.5c0.9,2.2,1.9,4.4,2.8,6.5c2.1,2.1,4.2,4.2,6.3,6.3c0,43.8,0,87.5,0,131.3
	c-77.1,0-154.6,0-231.7,0c0-31.2,0-62.3,0-93.5c1.3-6.3,2.6-12.5,3.9-18.8c-0.7-2.2-1.5-4.4-2.2-6.6c-2.1-0.1-4.1-0.2-6.2-0.3
	c-1.2-1.4-2.4-2.9-3.6-4.3c0.5-3,0.9-5.9,1.4-8.9c1-1.6,2-3.3,2.9-4.9c0.9-2.8,1.7-5.6,2.6-8.4c1.4-0.7,2.8-1.4,4.1-2.1
	c1.7-2.7,3.3-5.3,5-8c-0.3-1.9-0.6-3.8-0.9-5.7c1.5-2.1,3-4.3,4.6-6.4c0.8-3.5,1.7-7,2.5-10.5c2.6-4.9,5.3-9.8,7.9-14.7
	c-1-1.6-2-3.2-3-4.8c0.2-1.1,0.3-2.2,0.5-3.3c-2.3-1.4-4.6-2.8-6.9-4.2c-1.4-0.2-2.7-0.4-4.1-0.6c-2.2-5-4.4-9.9-6.6-14.9
	c0.9-1.2,1.9-2.4,2.8-3.6c-1.6-3.3-3.3-6.6-4.9-9.8c0-50.9-0.1-101.8-0.1-152.6H144.9z"/>
</svg>
