<svg xmlns="http://www.w3.org/2000/svg" width="146" height="263" viewBox="0 0 146 263">
    <path opacity=".15" fill="#FFF" fill-rule="evenodd" d="M29.633 10.009l11.843 15.64c.849 1.124 1.082 2.588.636 3.925L37.443 43.24c-.17.403-.34.764-.552 1.104l-8.744 12.201c-.509.743-1.252 1.295-2.122 1.57l-15.748 5.22v3.12l4.415 5.05c.679.786 1.06 1.762 1.06 2.802v5.73c0 .53-.105 1.06-.317 1.57l-5.391 13.517c-.17.403-.382.764-.637 1.082l-6.728 8.34-2.1 7.787v12.287l3.204 11.332 8.022 11.268 15.048 10.8c.658.51 1.21 1.21 1.464 2.017l4.16 11.416 2.186 4.075 1.783-.934c.764-.424 1.591-.615 2.525-.467l10.442 1.316c1.019.127 1.995.636 2.674 1.443l2.61 3.055c.829.934 1.147 2.186.998 3.417L54.02 194.18c-.064.382-.149.722-.319 1.061l-4.287 9.762-.7 4.223 2.25 3.31 14.177 8.785 16.087 11.65c.764.552 1.316 1.38 1.57 2.313l2.208 8.085 2.632 4.647c.658 1.189.7 2.59.106 3.82l-1.465 3.204 3.927 5.815 3.692 1.612 1.74-3.289c.468-.827 1.19-1.485 2.06-1.867l5.942-2.653c.743-.36 1.592-.488 2.44-.318l12.098 2.037c.53.085 1.104.297 1.592.616l.658.445v-.318l-2.08-2.844c-.785-1.082-1.04-2.482-.637-3.777l1.422-4.541c.255-.806.7-1.507 1.337-2.037l8.405-6.854 1.91-10.101v-8.722l2.228-15.83c.085-.616.319-1.189.637-1.719l8.404-12.838 3.226-9.868v-6.642l-3.14-8.063c-.128-.361-.213-.722-.255-1.104l-1.359-12.562c-.063-.446-.042-.892.043-1.316l1.485-7.045L129.956 34.73c-.127-1.083.276-2.059.934-2.907.064-.128 0-.298.106-.404l-6.813-13.241L119.26.693 29.633 10.01z"/>
</svg>
