<?xml version="1.0" encoding="utf-8"?>
<!-- Generator: Adobe Illustrator 21.0.0, SVG Export Plug-In . SVG Version: 6.00 Build 0)  -->
<svg version="1.1" id="Layer_1" xmlns="http://www.w3.org/2000/svg" xmlns:xlink="http://www.w3.org/1999/xlink" x="0px" y="0px"
	 viewBox="0 0 432 432" style="enable-background:new 0 0 432 432;" xml:space="preserve">
<style type="text/css">
	.st0{fill:#050505;}
	.st1{fill:none;stroke:#000000;stroke-width:0;stroke-linecap:round;stroke-linejoin:round;}
	.st2{fill:#050505;stroke:#050505;stroke-width:8.239910e-03;}
</style>
<polygon opacity="0.15" fill="#FFFFFF" points="324.8,263.4 320,258.4 325.5,238.2 322.2,155.2 318.8,72 302.9,34.9 301.7,16.2 301.7,16 301.6,16 
	301.6,16.2 260.6,16.9 205.1,18.1 150.8,18.8 153.9,24.3 160.3,27.9 162.9,35.6 171.3,41.3 176.9,47.4 174.3,66.8 164.5,83.2 
	160.9,88.4 148.6,92.6 130.1,96.2 125.3,108.6 132,114.2 134.4,125.3 127.3,137.7 123.7,148.6 109.7,159.3 108.5,172.4 103.7,190.2 
	108.6,211.7 117.8,226.5 128.4,238.7 141.2,248.3 146.4,251.5 151.1,265.1 152.1,277.1 158.5,280.1 169.1,275.3 179.9,286.8 
	176.9,300 171.8,310.5 168.3,323.2 176.4,333.9 187.7,343.8 194.2,344 209.4,359.5 215.1,361.5 219.7,378.8 217.8,389.6 
	225.5,407.1 231.7,405.1 242.2,416 239.7,405.2 243.4,398.1 258.8,401.6 272.8,407.9 280.2,401.7 277.5,386.1 290.2,379.7 
	300.1,374.1 295,367.5 301.1,357.3 300.5,352 301.8,337.4 309,317.9 320.1,301.8 323.7,289.8 328.3,285.2 328.3,275.6 "/>
</svg>
