<svg xmlns="http://www.w3.org/2000/svg" width="112" height="196" viewBox="0 0 112 196">
    <path opacity=".15" fill="#FFF" fill-rule="evenodd" d="M92.302.467L77.977.382l-34.34 5.05c-.233.022-.424.043-.594.043H27.168l-12.161 8.764c-.616.446-1.337.721-2.123.785l-8.659.7c-.552.085-1.125-.02-1.655-.19l-1.698-.531 11.715 102.919c.085.445.064.89-.042 1.336l-1.465 7.046 1.231 11.331 3.248 8.319c.212.488.297 1.018.297 1.549v8.127c0 .467-.064.934-.213 1.358l-3.968 11.523-8.32 12.987-2.08 14.302v.212l7.45-3.67 9.932-2.293c.573-.106 1.167-.148 1.72-.02l10.102 1.973 2.546-.043 3.057-3.883c.785-1.019 2.016-1.634 3.332-1.634h7.64l4.563-1.146v-2.461c0-1.083.425-2.101 1.146-2.886l3.396-3.65c.806-.87 1.931-1.358 3.077-1.358h3.099c.891 0 1.783.297 2.504.827l4.245 3.12 3.247.827 1.868-1.06 1.698-8.298c.148-.722.467-1.38.934-1.931l5.666-6.515 7.428-10.78 1.613-7.978c.34-1.72 1.698-3.035 3.439-3.332l10.017-1.761 5.221-3.205 1.125-1.718-1.295-3.905c-.19-.51-.276-1.061-.233-1.613l.488-8.233L92.302.467z"/>
</svg>
