<?xml version="1.0" encoding="utf-8"?>
<!-- Generator: Adobe Illustrator 21.0.0, SVG Export Plug-In . SVG Version: 6.00 Build 0)  -->
<svg version="1.1" id="Layer_1" xmlns="http://www.w3.org/2000/svg" xmlns:xlink="http://www.w3.org/1999/xlink" x="0px" y="0px"
	 viewBox="0 0 432 432" style="enable-background:new 0 0 432 432;" xml:space="preserve">
<style type="text/css">
	.st0{fill:#050505;}
	.st1{fill:none;stroke:#000000;stroke-width:0;stroke-linecap:round;stroke-linejoin:round;}
	.st2{fill:#050505;stroke:#050505;stroke-width:8.239910e-03;}
</style>
<path opacity="0.15" fill="#FFFFFF" d="M306.7,295.1l-1.2-0.5l-0.9-1.2l0.6-0.9l2.6-2.6l0.7-1.6l-0.4-1.6l-1.1-1.4l-2-2.1l-0.2-3l2.2-2.5l1.4-0.9
	c0.7-84,1.5-168,2-251.9c-49.3,0-98.7-0.1-148-0.1L149,32.5l-12.4,4.4l-6.5,0.7l-6.8-1.2l-1.6-0.6l-1.1-0.8l-0.5-1.2l0.2-2l-2.3,0.9
	l-2.5-1.9l-2-2.9c-0.3,74.8-0.6,149.6-0.8,224.4l-0.3,0.4l-4.4,2.1l-1.3,1.4l-0.8,1.9l0.3,1.6l1.6,3.1l-0.1,4l-4.7,4.5l-0.2,3.6
	l0.4,0.8l0.6,0.5l1.1,0.7l2.2,2.2l0.7,1.7l0.6,3.4l0.5,1.6l0.8,1l2.1,1.9l0.4,1.2v3.8l-0.2,1l-1,1.5l-0.2,1.1l0.8,3.4l1.6,3.6
	l0.9,3.6l-2.3,6.8l-0.4,0.7l-0.9,0.2l-1,0l-0.7,0.1l-1.2,1l-1.1,1.5l-0.6,1.8l0.3,1.9l-0.2,0.5l-0.2,0.4l-0.3,0.3l-0.3,0.2h0.4
	l-0.9,0.6l-0.9,0.8l-0.7,1l-0.3,1.4l0.2,1.4l1.2,1.9l0,1.1l-0.5,1l-0.4-0.1l-0.4-0.4l-0.7,0l-0.5,0.4l-0.8,0.9l-0.6,0.5l-2.3,1.2
	l-2.2,0.7v0.7l1.1,1.1l-0.4,1.9l-1.1,2l-1.1,1.4L94,343l-1.4,0.5l-0.6,0.4l-0.6,1l-0.6,2.1l-0.5,1l-0.2,0.8L90,350l-0.2,1l-0.5,0.4
	l-0.7-0.4l-0.3-0.9l-0.2-0.9l-0.3-0.4l-0.5,0.3l-0.6,0.7l-0.5,0.8l-0.6,1.7l-0.8-0.5l-0.7-1.1l-0.1-0.6l-1.4,0.4l-0.7,1.1l-0.4,1.5
	l-0.5,1.5l-0.6,0.8l-0.6,0.5l-0.5,0.6l-0.2,1.1l0.2,1l0.5,0.7l0.5,0.6l0.2,0.6l0.7,0.9l1.4,0.8l0.9,1l-0.8,1.6l-0.7,0.4l-1.6,0.4
	l-0.7,0.5l-1.6,1.5l-1.7,1.2l1.2,0.6l2.3-0.2l1.1,1l-1,0.9l-1.2,0.8l-1.3,0.6l-1.2,0.2l-0.9,0.4l1,2.3l-0.9,1.1l0.3,0.9l0.3,1.5
	l0.1,1.4l-0.4,0.6l-0.7,0.5l0,1.1l0.4,1.9l0.2,1.3l0.2,0.9l-0.2,0.7l-1.2,0.6h-0.7l-3.2-0.6l1.2,1.5l3.6,3.4l0.4,1l-0.8,0.4
	l-1.1,0.1l-2.1-0.2l-0.3,0.2l0,0.4l0.3,0.4l0.5,0.2l1.4,0.2l1.7,0.7l1.6-0.2l1.3,0.5l2.6,1.6l1.4,0.3l0.4-0.6l3.3-3.8l-2.2-5.4
	l-0.3-1.2l0.5-1.9l1.3-0.8l1.5,0.3l1.4,1.2l1.1,1.3l1.1,1l1.3,0.7l1.6,0.3l1.4-0.2l2.9-1l0.7-0.1l0.7-0.7l1.1-0.6l1.2-0.1l0.9,0.7
	l0.1,1.3l-0.7,3l0.2,1.4l1.6,1.1l2.2-0.8l1.9-2l0.8-2.5l-0.4-1.9l-1.3-2.6l-0.3-2l0.2-1.2l0.5-0.6l0.7-0.1l0.5,0.2l0.4,0.7l-0.1,1.5
	l0.2,0.9l2.5,2.4l2.8-0.6l3-1.6l3.1-0.8l1.5,0.4l1.7,0.8l1.6,1l1.3,1.1l1.3,0.9l4.9,2l2.6,1.7l0.8,0.4l1,0.3l1.3,0.1l0.9,0.3
	l0.3,0.8l0.2,1l0.4,1l1.1,1.4l0.6,0.5l0.8,0.5l2.3-1.5l1.2-2.1l2-5.7l0.8-1.5l0.9-1l1-0.7l1.3-0.6l4.2-0.4l1-0.5l1.6-1.6l2.8-2.1
	l2.6-1l1.1,1.6l0.6,2.4l1.6,2.4l2.2,1.8l2.5,0.5l3.2-0.6l1.4,0.4l-0.8,1.8l-0.5,1.6l1,0.9l1.7,0l1.5-1l0.6-1.8l0-1.8l0.4-1.4
	l3.9-0.9l0.9-0.9l0.2-1.4l-0.2-6l0.3-1.9l1-0.8l1.6-0.1l1.7-0.5l1.2-1.1l0.3-2l-0.4-1l-1.3-1.5l-0.3-1l0.4-0.9l0.8,0.1l0.8,0.4
	l0.4,0.4l0.4,0.9l0.9,0.3l1.7-0.2l3.1-1.3l1.3-1.4l-0.6-0.7l-1.5-0.5l-1.5-0.9l-0.9-1.7l0.8-0.6l1.5,0.2l1.3,0.6l3.7,3l0.7,1.1
	l-0.2,3.8l0.1,1.4l0.7,1.3l1.1,1l2.9,1.5l1.2,0.9l1.4,0.8l3.7,0.3l1.6,0.4l2.7,2.9l1.6,1.2l0.7-0.7l0.7-1.5l1.7-0.7l3.5-0.6l0.8-0.5
	l0.7-0.7l0.6-0.7l0.4-0.8l0.7-2.3l0.7-8.8l0.3-1.9l0.7-2l1-1.6l1.2-0.7l0.7-0.8l1.6-3.8l1-1.1h0.7l1,0.2l0.9,0.4l0.4,0.3l0.4,0.8
	l0.8,0l2.7-0.8l1.5-0.8l2.6-2l1.6-3.1l1.7-8.1l2.1-2.7l1.5-0.4l3.1-0.3l1.1-0.8l1.1-1.6l1-1.1l3.8-2.9l1-1.4l0.3-1.7l-1.5-3.6
	l-0.6-5.7l-0.5-1.3l-0.6-1.9l0-1.8l1.3-0.8l8.3-0.8l4.6,0.2l1.3,0.6l2.5,2.9l1.4,0.9l2.9-0.6l10.6-6.6l4.6-1.9l2.5-0.3l5.9,0.6
	l0.9-0.5l-1-3.1l0.5-1.8l1-1.3l1-1.6l0.1-1.4l-1.6-0.6L306.7,295.1z"/>
</svg>
