<svg xmlns="http://www.w3.org/2000/svg" width="227" height="144" viewBox="0 0 227 144">
    <path opacity=".15" fill="#FFF" fill-rule="evenodd" d="M205.41 42.16l-5.773-2.187c-.488-.17-.933-.445-1.337-.806l-6.388-5.687c-.51-.446-.891-1.019-1.125-1.655l-3.48-9.019L183.21.546l-62.376 6.875c-.191.022-.36.022-.488.022H.604l2.823 11.734.127 8.955c0 .361-.042.722-.148 1.061L1.199 37.66l.445 1.825c.382.658.616 1.4.616 2.228 0 .043-.043.085-.043.128l1.295 5.284 12.819 34.08 8.702 31.172 2.292 17.358.02 7.152 2.739 2.843h60.868l73.688-3.586 6.919-2.653c.51-.19.997-.297 1.528-.297.891 0 1.74.276 2.44.807l5.413 3.883 6.027 5.241.743-2.673c.127-.573.446-1.104.785-1.55l6.877-8.53 4.86-12.16v-3.31l-4.415-5.05c-.658-.785-1.06-1.761-1.06-2.801v-7.788c0-1.825 1.209-3.459 2.907-4.032l17.36-5.75 7.577-10.568 3.714-10.929-14.814-19.544-6.09-6.28z"/>
</svg>
