<?xml version="1.0" encoding="utf-8"?>
<!-- Generator: Adobe Illustrator 21.0.0, SVG Export Plug-In . SVG Version: 6.00 Build 0)  -->
<svg version="1.1" id="Layer_1" xmlns="http://www.w3.org/2000/svg" xmlns:xlink="http://www.w3.org/1999/xlink" x="0px" y="0px"
	 viewBox="0 0 432 432" style="enable-background:new 0 0 432 432;" xml:space="preserve">
<style type="text/css">
	.st0{fill:#050505;}
	.st1{fill:none;stroke:#000000;stroke-width:0;stroke-linecap:round;stroke-linejoin:round;}
	.st2{fill:#050505;stroke:#050505;stroke-width:8.239910e-03;}
</style>
<g>
	<path opacity="0.15" fill="#FFFFFF" d="M3.8,94.5c-0.7,0.8-1.3,1.5-2,2.3c0.2,0.8,0.5,1.6,0.7,2.4c1,0.9,2.1,1.8,3.1,2.7c0,2.2,0,4.5,0,6.7
		c-1.2,0.5-2.4,1-3.6,1.5c0.7,1.6,1.4,3.2,2.1,4.7c1.6,0.3,3.3,0.6,4.9,0.9c0.7,3.8,1.5,7.6,2.2,11.4c-1.7,0.8-3.3,1.6-5,2.3
		c0.5,0.8,1.1,1.7,1.6,2.5c-2.5,6.4-5.1,12.9-7.6,19.3c0,1.4-0.1,2.8-0.1,4.2c1.2,1,2.5,2,3.7,3c-2.6,1.7-5.2,3.3-7.8,5
		c2.1,2.2,4.1,4.4,6.2,6.6c1.1-0.2,2.2-0.4,3.3-0.6c0.5,1,1.1,1.9,1.6,2.9c1.6,0.2,3.2,0.5,4.8,0.7c0.1,3.4,0.3,6.9,0.4,10.3
		c1.7,2.1,3.4,4.1,5,6.2c-1.1,1.7-2.2,3.4-3.3,5.1c2.1,1.9,4.3,3.8,6.4,5.7c0,1.5-0.1,3-0.1,4.5c0.6,1.5,1.1,3,1.7,4.5
		c1.8,1.2,3.6,2.4,5.5,3.6c-0.4,1.1-0.8,2.2-1.2,3.3c1.6,2.2,3.1,4.4,4.7,6.7c-0.5,1.6-1,3.2-1.6,4.9c-0.3,1.2-0.6,2.4-0.9,3.5
		c0.3,3.9,0.6,7.9,0.9,11.8c0.9,0.6,1.8,1.2,2.7,1.8c1-0.8,2.1-1.5,3.1-2.3c-0.2,1.8-0.4,3.5-0.6,5.3c2.2,0.6,4.4,1.2,6.6,1.8
		c-0.4,3.8-0.9,7.6-1.3,11.4c1,2.7,2,5.3,3,8c-0.4,0.8-0.8,1.6-1.2,2.4c0.2,3.8,0.5,7.5,0.7,11.3c0.6,0.5,1.3,1.1,1.9,1.6
		c-0.3,5.4-0.6,10.8-0.9,16.2c-0.6,1.1-1.2,2.2-1.9,3.3c2.2,2.4,4.4,4.8,6.7,7.2c0,0.9,0,1.8,0,2.7c42.6,0,85.3,0,127.9,0
		c32.2-0.7,64.4-1.5,96.6-2.2c1.2,1.5,2.3,3,3.5,4.5c1.1,0.6,2.2,1.2,3.3,1.8c1,1.6,2.1,3.3,3.1,4.9c0.9,0.2,1.8,0.4,2.7,0.6
		c0,1.2-0.1,2.4-0.1,3.5c2.9,0.4,5.7,0.8,8.6,1.2c-0.2-4.3-0.5-8.5-0.7-12.8c0.5-1.1,0.9-2.2,1.4-3.3c4.4-1.4,8.8-2.7,13.2-4.1
		c0.5-3.9,1.1-7.8,1.6-11.6c2.6-3.3,5.2-6.6,7.8-9.9c0.1-2.2,0.2-4.5,0.3-6.7c-0.5-2.2-1-4.4-1.4-6.6c-1-0.6-2.1-1.3-3.1-1.9
		c-1.4-1.8-2.8-3.7-4.3-5.5c1.2-4.5,2.3-8.9,3.5-13.4c6.9-1.1,13.7-2.2,20.6-3.2c2.3-1.7,4.6-3.3,6.9-5c2-0.1,3.9-0.2,5.9-0.3
		c1.9-2.4,3.8-4.8,5.7-7.1c1-3.2,1.9-6.3,2.9-9.5c2.3-1.7,4.5-3.4,6.8-5.1c0.4-3.9,0.8-7.8,1.2-11.7c-0.1-3.5-0.1-7.1-0.2-10.6
		c-4.4-2.7-8.7-5.4-13.1-8c-0.7-2.8-1.3-5.6-2-8.5c-4-3.5-8-6.9-12-10.4c0.1-1.1,0.2-2.1,0.3-3.2c-1.2-3.1-2.4-6.1-3.6-9.2
		c-3.5-1.1-7.1-2.2-10.6-3.2c-3.2-1.7-6.3-3.4-9.5-5.1c-2.1-7.4-4.3-14.7-6.4-22.1c0.6-3.2,1.2-6.4,1.8-9.6c1.7-2.5,3.4-5,5.1-7.5
		c-0.2-1.2-0.4-2.4-0.6-3.6c-2.7-1.3-5.4-2.5-8-3.8c0-3.7,0-7.3,0-11L3.8,94.5z"/>
</g>
</svg>
