<?xml version="1.0" encoding="utf-8"?>
<!-- Generator: Adobe Illustrator 21.0.0, SVG Export Plug-In . SVG Version: 6.00 Build 0)  -->
<svg version="1.1" id="Layer_1" xmlns="http://www.w3.org/2000/svg" xmlns:xlink="http://www.w3.org/1999/xlink" x="0px" y="0px"
	 viewBox="0 0 432 432" style="enable-background:new 0 0 432 432;" xml:space="preserve">
<style type="text/css">
	.st0{fill:#050505;}
	.st1{fill:none;stroke:#000000;stroke-width:0;stroke-linecap:round;stroke-linejoin:round;}
	.st2{fill:#050505;stroke:#050505;stroke-width:8.239910e-03;}
</style>
<path opacity="0.15" fill="#FFFFFF" d="M378.9,180.2l-0.7-0.3l-1-0.1l-0.1-0.1l-0.1-0.5l-0.2-0.2l-0.2,0l-0.5,0l-0.7-0.1l-1.4,0.1l-1-0.4l-2-1.3
	l-0.9-0.3l-0.8-0.5l-0.2-1.2l-0.1-1.2l-0.4-0.5l-1.5-1l-1-2.2l-0.3-2.3l0.4-1l-1.9-0.4l-0.2-0.3l-0.2-0.9l-0.2-0.3l-1.8-1.3
	l-0.8-0.4l-0.3-0.2l-0.4-0.6l-1-2l-0.3-0.4l-0.7-0.3l-0.8-0.9l-0.5-1.2l0.1-1.2l0.3-0.2l1.2-0.1l0.5-0.3l0.2-0.5l0-0.6l-0.1-1.2
	l0.3-1l0.7-1l1.4-1.4l0.5-0.3l0.4-0.2l0.3-0.4l0.1-1.4l0.1-0.6l0.2-0.5l0.4-0.2l2.1,0.6l1,0.1l0.7-0.7l0.1-0.6l-0.2-0.4l-0.3-0.4
	l-0.2-0.7l0.1-0.6l0.2-1.1l0-0.6l-0.4-0.6l-1.9-1.2l-0.7-0.8l0.4-0.6l0-0.8l-0.3-0.7l-0.6-0.3l-1,0l-0.8,0.2l-0.7,0.4l-1.3,1.2
	l-0.9,0.6l-1,0.3l-0.9-0.5l-1.2-1.4l-0.5-0.4l-0.5-0.2l-0.9-0.1l-0.4-0.1l-0.4-0.3l-0.2-0.4l-0.2-0.5l-0.3-0.5l-0.4-0.2l-0.5-0.1
	l-0.5-0.1l-0.6-0.9l-2.5-2.3H53c0.2,56,0.3,111.9,0.5,167.9h325.2c0-39.4,0-78.7,0-118.1l-0.2-0.1l0-0.2v-0.2l-0.1-0.1l0.6-0.7
	L378.9,180.2z"/>
</svg>
