<svg xmlns="http://www.w3.org/2000/svg" width="265" height="140" viewBox="0 0 265 140">
    <path opacity=".15" fill="#FFF" fill-rule="evenodd" d="M245.371 75.745l7.047-4.987 12.543-13.433L250.974 46.8l-11.566-13.2c-.658-.763-1.04-1.76-1.04-2.779V19.192l-5.71-3.586-7.13-7.172-.552.233-4.224 5.39c-.467.594-1.06 1.04-1.74 1.316l-4.818 1.952c-1.358.573-2.907.36-4.096-.51l-3.268-2.397h-2.696l-5.942 1.697c-.892.213-1.804.213-2.61-.085l-8.914-3.204-11.482-2.483c-1.231-.275-2.292-1.082-2.865-2.206l-2.76-5.39L166.972.9h-10.569l-.085 1.465 1.74 5.092c.446 1.252.213 2.632-.509 3.735l-2.823 4.223c-.34.51-.806.934-1.316 1.252l-6.685 4.096c-.446.275-.955.466-1.486.551l-7.958 1.4-1.253 6.006c-.106.552-.34 1.082-.679 1.57l-8.15 11.863-5.2 6.026-1.846 9.104c-.254 1.21-.997 2.228-2.08 2.843l-5.03 2.865c-.933.552-2.037.722-3.12.424l-5.708-1.421c-.51-.128-1.02-.361-1.486-.68l-3.714-2.716-.913.998v4.095c0 1.974-1.358 3.671-3.268 4.117l-8.787 2.1-6.558.086-3.056 3.883c-.806 1.019-2.058 1.634-3.332 1.634h-5.454l-10.039-1.889-8.129 1.783-7.513 3.735-3.056 2.504-1.974 10.567c-.17.977-.7 1.868-1.506 2.504l-8.553 7.024-.382 1.274 1.634 2.228c.53.721.827 1.613.827 2.525v4.35c0 1.422-.721 2.738-1.91 3.544l-3.968 2.61c-1.359.934-3.184.934-4.606.043l-2.59-1.656-9.974-1.676-3.48 1.549-1.996 3.714L3 126.567c.34.807.403 1.677.212 2.525l-2.037 8.955c-.106.446-.318.87-.488 1.231l28.842-2.758 7.832-2.398 1.825-5.05c.573-1.592 2.08-2.675 3.735-2.78l37.141-2.229 84.194-11.374L229.75 99.3c-.085-.573-.042-1.167.149-1.74l1.464-4.88c.425-1.507 1.698-2.632 3.226-2.95l3.693-.743.34-1.188 5.433-10.462c.34-.7.785-1.21 1.315-1.591"/>
</svg>
