<?xml version="1.0" encoding="utf-8"?>
<!-- Generator: Adobe Illustrator 21.0.0, SVG Export Plug-In . SVG Version: 6.00 Build 0)  -->
<svg version="1.1" id="Layer_1" xmlns="http://www.w3.org/2000/svg" xmlns:xlink="http://www.w3.org/1999/xlink" x="0px" y="0px"
	 viewBox="0 0 432 432" style="enable-background:new 0 0 432 432;" xml:space="preserve">
<style type="text/css">
	.st0{fill:#050505;}
	.st1{fill:none;stroke:#000000;stroke-width:0;stroke-linecap:round;stroke-linejoin:round;}
	.st2{fill:#050505;stroke:#050505;stroke-width:8.239910e-03;}
</style>
<path opacity="0.15" fill="#FFFFFF" d="M429.9,195.3L408,178.7l-15.1-17.4V142l-10.6-6.7l-11.7-11.9l-5.9,2.5l-6.8,8.6l-6.7,2.7l-6.1-4.5h-6.4l-9,2.6
	l-12.3-4.5l-16.7-3.6l-4.4-8.7l-6.3-4.5H274l-5.7-3.3l-0.7,12l2.8,8.1l-3.9,5.9l-9.2,5.7l-15,2.6l-2.5,12.2l-11.3,16.4l-7.8,9
	l-2.8,14.1l-7,4l-7.9-2l-6.8-5h-4.2l-4.7,5v8l-12.2,2.9h-10.6l-5.9,7.6h-7.5l-13.9-2.7l-12.5,2.7l-11.7,5.6l-7,5.6l-3.2,16.7
	l-13.3,10.8l-1.9,6.3l4,5.5v6l-5.5,3.6l-4.5-2.9l-16.7-2.8l-8.3,3.7l-5,9.4l4.6,11.3l-2.8,12.4l-8.7,4.8l-5.3,8.3l3.6-2.8l55.8-5.3
	l14.8-4.4l3.6-9.8l51.4-3.1l116.8-15.8l98.7-20.2l-3.1-4.9l2-6.8l8.6-1.7l1.5-5l7.1-13.4l9.7-6.9l22.2-23.6L429.9,195.3z"/>
</svg>
