<svg xmlns="http://www.w3.org/2000/svg" width="211" height="174" viewBox="0 0 211 174">
    <path opacity=".15" fill="#FFF" fill-rule="evenodd" d="M181.619 135.083l-1.762-2.737-1.952.466-3.035 2.377c-.743.594-1.656.934-2.632.934h-11.1c-1.38 0-2.674-.68-3.46-1.804l-2.355-3.353c-.51-.721-.785-1.57-.785-2.44v-3.735c0-.53.106-1.103.34-1.591l1.167-2.908c.276-.636.7-1.23 1.23-1.676l6.94-5.75c1.104-.87 2.569-1.147 3.906-.807l16.618 4.753-1.486-3.734-4.35-3.947c-.446-.404-.786-.87-1.04-1.401l-1.996-4.393c-.254-.53-.382-1.145-.382-1.74v-8.403c0-.721.191-1.422.531-2.058l.467-.87-72.69 5.177c-2.483.425-4.075-1.315-4.478-3.416l-2.186-11.332c-.149-.658-.107-1.358.106-2.016l6.388-21.73 5.39-9.845 12.289-15.98.913-2.567-8.32-14.663c-.276-.467-.446-.998-.51-1.528L111.795.44.223 6.87l2.292 40.276 9.126 12.52 12.925 26.59c.17.402.318.827.382 1.272l1.91 13.793c.106.743 0 1.507-.297 2.207l-5.051 12.096-1.316 10.037 1.358 10.42c.085.615.021 1.273-.17 1.867l-2.122 6.514-5.221 9.72 1.082 1.527 20.778-3.183c.425-.085.87-.042 1.295-.021l19.398 2.907 10.57 3.523 13.816-1.55 2.865-5.24c.424-.744 1.04-1.359 1.804-1.74l6.218-3.163c.998-.509 2.207-.658 3.226-.276l7.089 2.271 22.39 11.947c.573.297 1.062.722 1.422 1.252l5.285 7.364 13.307 2.313 26.572-1.656 2.653-3.246 2.165-4.86c.53-1.294 1.697-2.207 3.077-2.483l5.306-.997c1.06-.255 2.1-.021 3.013.53l6.728 4.054 7.386 2.992c.488.19.913.467 1.316.849l6.26 5.984h.213l1.698-1.74-.17-.276-7.3-3.905-11.334-8.127c-1.4-1.019-2.08-2.801-1.613-4.499l1.486-5.878c.17-.594.445-1.188.87-1.655l8.49-10.25.53-4.838-1.125.425-9.317 6.344c-1.4.892-3.247.955-4.67.022l-3.968-2.547c-.467-.36-.913-.785-1.231-1.273"/>
</svg>
