<?xml version="1.0" encoding="utf-8"?>
<!-- Generator: Adobe Illustrator 21.0.0, SVG Export Plug-In . SVG Version: 6.00 Build 0)  -->
<svg version="1.1" id="Layer_1" xmlns="http://www.w3.org/2000/svg" xmlns:xlink="http://www.w3.org/1999/xlink" x="0px" y="0px"
	 viewBox="0 0 432 432" style="enable-background:new 0 0 432 432;" xml:space="preserve">
<style type="text/css">
	.st0{fill:#050505;}
	.st1{fill:none;stroke:#000000;stroke-width:0;stroke-linecap:round;stroke-linejoin:round;}
	.st2{fill:#050505;stroke:#050505;stroke-width:8.239910e-03;}
</style>
<polygon opacity="0.15" fill="#FFFFFF" points="285.2,170.5 280.1,186 301.2,194.5 300.1,201.7 301.2,213.4 300.1,220.6 305.7,229.5 316.2,226.4 
	323.8,244.3 330.3,253.2 316.2,269.5 300.1,274.7 298,281.7 284.1,280.6 272,289.3 262.9,289.3 262.9,296.6 257.3,299.9 
	254.5,307.9 246.2,307.9 239.1,317.4 230.5,304.6 227.7,317.4 219.6,307.9 213.3,307.9 213.3,317.4 202.5,325.1 195.4,325.1 
	182.4,334.6 174.7,334.6 170.8,341.3 161.1,337.8 150.9,346.3 142.7,354.1 141.6,360 131.1,370 124.9,387 113.1,379 109.3,365.1 
	101.7,217.3 109.3,213.4 114.8,220.6 117.7,207.8 127,210 121.6,198.5 138.4,186 138.4,177.6 147.4,170.5 145.2,146.9 157.5,129 
	161.1,108 204.4,45 213.3,49.1 213.3,59.9 219.6,67.5 249.8,59.3 249.8,52.8 258.5,53.9 274.4,67.5 281.9,76 "/>
</svg>
