<svg xmlns="http://www.w3.org/2000/svg" width="132" height="215" viewBox="0 0 132 215">
    <path opacity=".15" fill="#FFF" fill-rule="evenodd" d="M127.199 93.26l-1.74-5.263h-12.544c-1.422 0-2.78-.721-3.544-1.91L99.799 71.51h-4.35c-1.359 0-2.611-.636-3.396-1.719l-4.563-6.132c-.276-.34-.467-.722-.573-1.125L68.792 10.734l-4.797-4.583L53.47.654H49.16l-1.783 3.544c-.275.594-.7 1.104-1.252 1.507l-7.704 5.73c-.721.53-1.613.848-2.525.848H25.814c-1.103 0-2.164-.424-2.95-1.188l-3.29-3.162h-1.612l-2.314 3.183-5.496 30.09 2.822 38.049 4.712 13.05c.297.87.318 1.804.064 2.674l-6.962 22.897c-.276.848-.764 1.591-1.485 2.143l-5.497 4.202c-.743.572-1.656.89-2.59.89H.793l24.81 67.248 2.462 10.716 5.73 5.348c.298.297.573.615.786.997l3.12 5.496h1.422l.976-.849 5.709-15.257 3.077-17.528c.064-.594.319-1.146.658-1.655l3.82-5.624c.807-1.167 2.123-1.846 3.524-1.846h5.687l5.391-4.456 3.014-5.836c.212-.445.51-.848.891-1.188l4.882-4.52v-21.92c0-2.335 1.91-4.245 4.223-4.245h6.197c.446 0 .85.064 1.274.191l8.086 2.504h2.823l1.91-4.159c.254-.488.573-.933.933-1.315l29.628-27.905v-1.443l-3.247-2.631c-.679-.51-1.125-1.21-1.38-1.974"/>
</svg>
