<svg xmlns="http://www.w3.org/2000/svg" width="117" height="77" viewBox="0 0 117 77">
    <path opacity=".15" fill="#FFF" fill-rule="evenodd" d="M103.644 57.5l-8.659 1.591c-.233.042-.446.064-.679.064-.552 0-.997-.297-1.507-.467-.233-.106-.51-.106-.743-.255-.827-.51-1.485-1.252-1.804-2.207L72.15.46.138 18.115l5.879 1.74c.912.275 1.719.848 2.27 1.634l4.203 5.984 8.34 4.54c.68.404 1.274.977 1.656 1.698l2.95 5.433h6.792c.679 0 1.337.17 1.995.488l1.146.615 2.228-2.207c1.634-1.655 4.33-1.655 5.985 0l6.219 6.218c.785.806 1.252 1.889 1.252 3.013 0 1.125-.446 2.207-1.252 3.014l-4.967 4.944v3.926l2.335 7.766 5.433 2.292 15.43 1.74 1.337.276-4.67-6.281c-.276-.382-.445-.807-.615-1.273l-3.099-10.229-1.698-15.448-2.143-7.215c-.319-1.04-.212-2.143.276-3.098l3.077-6.048c.276-.51.616-.976 1.104-1.337l6.303-5.262c1.146-.955 2.674-1.231 4.075-.764 1.4.467 2.44 1.655 2.801 3.098l2.717 12.053.064 6.493 2.016 1.868c.36.318.637.7.849 1.103l2.992 5.602c.531.998.637 2.186.319 3.268l-1.359 4.33v4.901l1.104 3.99 2.016 1.994h4.86c.531 0 1.083.106 1.571.297l5.306 2.122c.828.34 1.55.913 2.037 1.677l5.051 7.979 5.328 1.379 4.202-1.082 1.485-2.462V58.921l.87-5.92-2.822.445-9.742 4.053z"/>
</svg>
