<svg xmlns="http://www.w3.org/2000/svg" width="113" height="60" viewBox="0 0 113 60">
    <path opacity=".15" fill="#FFF" fill-rule="evenodd" d="M76.326 1.902l-.743-1.38-15.45 14.473c-.468.445-1.04.785-1.699.976L3.254 32.33l-2.42.722v26.101l54.183-16.913 10.315-3.204c.955-.297 1.995-.254 2.929.149l3.374 1.421c.722.298 1.316.807 1.783 1.422l5.794 8.043 5.964 2.483 8.425 5.75 6.813-8.36c.807-.977 2.038-1.57 3.29-1.57l10.187-.065h-6.537c-1.21 0-2.334-.53-3.183-1.421l-8.341-9.422-6.961-5.2-4.542-1.909c-1.507-.679-2.526-2.207-2.526-3.883V19.45l1.762-8.149-.913-3.14-5.518-5.136c-.297-.318-.573-.7-.806-1.124"/>
</svg>
