<?xml version="1.0" encoding="utf-8"?>
<!-- Generator: Adobe Illustrator 21.0.0, SVG Export Plug-In . SVG Version: 6.00 Build 0)  -->
<svg version="1.1" id="Layer_1" xmlns="http://www.w3.org/2000/svg" xmlns:xlink="http://www.w3.org/1999/xlink" x="0px" y="0px"
	 viewBox="0 0 432 432" style="enable-background:new 0 0 432 432;" xml:space="preserve">
<style type="text/css">
	.st0{fill:#050505;}
	.st1{fill:none;stroke:#000000;stroke-width:0;stroke-linecap:round;stroke-linejoin:round;}
	.st2{fill:#050505;stroke:#050505;stroke-width:8.239910e-03;}
</style>
<g>
	<path opacity="0.15" fill="#FFFFFF" d="M429.3,272c2.2-4.8,3-18.2-1.3-18.7l-0.9-1.7l2.2-1.3c-1.7-10-22.1-55.2-36.9-35.2c3,1.7,4.3,6.5,9.1,4.3
		c-1.7,0.4-2.6,0-2.6,0c9.6-13.5,14.3,16.5,15.2,21.7c1.3-3.9,0.9-5.2,2.6-8.3c0,2.2,1.7,6.1,1.7,5.6c0.9,0.4,1.7,0.4,2.2,0.9
		c4.3,16.9-8.7,17.4-20.8,23.5c-4.8,2.2-9.1,3-6.5,2.2c-10.9-3.5-25.2-0.4-30.4-12.2c-2.2-4.3,1.7-13.5-1.7-16.9
		c-4.8-4.3-7.8,2.2-10.4-6.1c0.9-0.9,1.7-7.4,3.5-4.8c0.9,1.7-0.4,2.6-0.4,2.6c0.4,0,0.9-1.3,1.7-0.9c-5.2-8.7-7.4-14.8-13-23.5
		l-3,0.9c2.6-4.8,0-9.6-5.2-13.5c-0.9,0.4-1.7,1.3-1.7,2.6c-2.2-3.9-10.4-8.3-13.9-9.6c2.6,2.2,3.9,6.5,3.9,6.5v1.7
		c-1.3,0.4-5.6,0-6.5-0.9c-1.7,0.4-2.6-1.7-1.3-2.2c0,0-5.6,0.9-7.8-1.3c0,0-2.2-8.7-2.2-10.4c0,0,5.2-1.3,6.5,0.9l2.6,0.4
		c-1.7-1.7-2.2-3.9-1.7-6.1c-3-2.6,3-3,6.5-5.2c-3-0.4-3.5-2.6-3-6.1c3.9,0.4,6.5-1.7,9.1-5.2c0,0-1.7-2.6-1.7-3.5l-1.3-2.2
		c-0.4,0.4-9.1-2.6-6.1-1.7c6.9-1.3,13-2.2,19.1-5.2c3-1.7,6.5-5.2,8.7-6.1c-0.4,0.9-0.4,2.2-0.9,3c0-0.4,5.6-6.5,6.9-6.9
		c-0.9-3.5-1.3-4.3-3.5-7.4c-4.3,0.4-5.2,5.2-9.6,3.5c-1.3,0.9-2.2,0-2.2,0c-2.2-2.2-6.9-7.8-6.1-5.6c1.3-4.3-2.2-10.9-3.9-16.1
		c-0.4,5.6,0-6.1,0-8.7l1.3-0.4c-5.2,1.3-4.8,1.7-8.3-1.7l-2.2-0.4c-6.9,3.5-14.3,4.8-16.1,13l-5.2-0.4l-6.5,2.2v10.4l-5.6-0.9
		l-4.3,8.7H64.9l-23,99l1.7,4.3h72.5v5.2l5.6-0.9l0.9-4.8l16.1-0.4l0.4,1.3h3l1.3-1.7c27.4,0,55.2-1.3,83.4-1.3l0.9,1.7l44.3-3
		l0.4,18.7l5.6-1.7l-0.9,3l1.3,2.6l-0.9,1.3l0.4,1.3c-3,7.4,3,10,8.3,12.6c1.3,1.7,3.5,4.3,3.5,4.3s8.3,7.8,10.9,8.7
		c1.7,7.4,1.3,14.8,4.3,21.7v1.3c0.9-1.3,1.3-0.9,2.6-0.9c2.2-0.4,4.3,1.3,4.8,3.9c1.3-4.3,7.8-3.9,5.2-8.7l2.2,0.9
		c1.3,0,1.7,0.4,1.7,1.7c0-2.2,0.4-3.5,2.6-3.9c-2.2-3-1.7-6.1-1.7-6.1s3-3,3.5-2.6c-1.7-3.5,3.5-0.4,6.1,1.7
		c-0.4-2.2,3.5-6.9,6.1-7.8c-3-5.2,3.5-6.1,5.6-6.9c-1.7-0.9,3.5-10.4,3.5-10.4c3,2.6,3.5,1.7,9.6,0c0,3.9-1.7,8.7-0.9,7.8l-2.2,3.9
		l3,0.9c-5.6,6.1,2.2,14.8-5.6,19.5c6.9,2.2,8.3-3.5,11.7-6.5c0,0.9,0,2.2,0,3c3.9-0.4,5.6-2.2,6.9-4.8l-0.4,3.9
		c6.9-0.4,9.6-9.1,11.7-14.3c1.3,1.3,2.2,3,2.2,4.8c4.3-2.2,9.6-4.3,12.6-6.1l3,0.9c-2.6,0.4-3.5,1.7-2.2,4.3
		c5.2-6.9,22.6-13,30.4-9.6C425.4,272.9,427.1,283.7,429.3,272z"/>
	<path opacity="0.15" fill="#FFFFFF" d="M405.8,331.1v0.4l8.3,3.9c4.3,0,7.8-0.4,12.6,0c8.7-1.7,6.9-7.4,2.6-13.5c-1.7-3-3.5-9.6-7.4-10v1.3
		c5.6,3.9,0,9.1-3,13l0.9,0.4c2.6-0.4-3.5-0.4-3.5-0.4c-2.6-0.4-7.4,1.3-10.4,1.3l-0.4,0.4l1.7,1.3"/>
	<path opacity="0.15" fill="#FFFFFF" d="M377.6,311.5h-1.7l-0.4,3l-1.3,1.7h-1.7l-1.3-2.2l-4.3-0.4c-1.3-0.4-1.7-3-1.7-3s0.4-2.6-0.9-5.6l-1.3-0.4
		l-1.3,1.3l-1.7,3.9c0-0.4-0.4-6.1-0.4-6.9l-2.2,1.3l-1.7,0.9c-3.9,2.2-6.1,5.2-7.8,9.1c-4.3,2.6-6.1,8.7-6.1,8.7l-0.4-0.9l-3.5-0.4
		l-2.2,0.9l-0.9,0.4c2.6,3.5,3.9,6.1,8.7,7.4h0.4l2.6-5.2l27.8-3l1.7-0.9l1.7-0.4C379.4,319.4,378.5,313.7,377.6,311.5z"/>
</g>
</svg>
