<?xml version="1.0" encoding="utf-8"?>
<!-- Generator: Adobe Illustrator 21.0.0, SVG Export Plug-In . SVG Version: 6.00 Build 0)  -->
<svg version="1.1" id="Layer_1" xmlns="http://www.w3.org/2000/svg" xmlns:xlink="http://www.w3.org/1999/xlink" x="0px" y="0px"
	 viewBox="0 0 432 432" style="enable-background:new 0 0 432 432;" xml:space="preserve">
<style type="text/css">
	.st0{fill:#050505;}
	.st1{fill:none;stroke:#000000;stroke-width:0;stroke-linecap:round;stroke-linejoin:round;}
	.st2{fill:#050505;stroke:#050505;stroke-width:8.239910e-03;}
</style>
<g>
	<g>
		<path opacity="0.15" fill="#FFFFFF" d="M190.2,444.5c7.8-1.8,9.4-5.5,10.2-12.4c0.8-6.4,4-11.1,7.2-17.4c6-11.9,8.9-24,8.3-37.8
			c-0.6-15.3-6-27.6-12.4-41.3c-1.2-2.5-3.8-6-2.6-8.9c1-2.5,4.3-2.3,5.3-4.4c0.9-1.7,0.7-7.4,0.8-9.3c0-2.7-2.6-7.3-2.5-8.5
			c0.2-1.8,4.1-5.9,4.9-7.6c1.4-3,2.1-6.6,3.1-9.8c1.4-4.5,3.6-9,4.7-13.7c0.8-3.4,0.1-5.9,0.7-9.4c10.7,1.4,4.9-8.6,9.4-13.4
			c2-2.1,7.2-2.4,9.5-4.1c3.4-2.4,5.9-7.6,8.4-10.8c7.1,4.5-6.5,18.1,0.1,25.1c9.7-0.7,10.4-17.8,11.4-25c0.9-6.8,1.1-11.7,9.6-11.4
			c3.5,0.1,10.8,3.8,9.9-4.1c-5.3,0.9-8.9-5.6-6.7-9.6c0.5-1,4.2-3.3,5.1-4.3c2.4-2.6,0.7-3.9,5.3-5.4c7.2-2.4,5,2.5,9.5,5.4
			c-0.5-0.3,6.4,1.2,6.6,1.2c2.7,0.3,5.5-0.4,8.3,0c9.5,1.3,2.2,6.9,8.4,10c1.9,0.9,4.7,0.1,6.7,0.9c2.4,1,3.7,3.2,6,4.2
			c5.6,2.5,10.7-0.3,15.5,4.6c4,4.1,6.4,11,8.3,16c-3.7,1.3-9.7-1.8-10.2,4.3c-0.3,3.7,4.9,8.3,5.5,13.2c0.8,6.3,1,13.3,0.9,19.7
			c-0.1,7.2-1.8,6.1-5.7,10.3c-3.1,3.4-3.4,7.3-5.5,11.6c-2.9,5.9-4.4,3.3-9,7.9c-2.8,2.7-5.8,9.3-6,13.2c-0.3,5.4,3.1,6.6,4.9,11.3
			c7.3-3.6,21.5-12.3,23.3-20.9c0.6,0.4,1.7,0.7,2.2,1.1c-0.3-5.1,4.4-5.2,7.8-6.7c6.1-2.7,6.1-3.2,12,0.6c6.1,3.9,7.6,5.4,7.2,13.3
			c-0.4,6.9,0.4,11.1,2.8,17.6c2.3,6.1,3.8,12.1,6.1,18.3c3.4,9.1,2,13.3-0.6,21.3c-1.3,3.9,0.8,11.2-1.9,14.5
			c-4.1,5-5.5-0.2-5.3-4.7c-6.1-0.6-4.7,6.4-6.5,9.5c-1.3,2.4-4.1,2.4-5.5,4.8c-1.1,1.9-0.6,4.9-0.6,7.1
			c-9.9,1.3-5.8,10.9-10.1,17.6c-4.8,7.5-9.7,11.8-10.9,20.7c-11.9,0.7-23.5,3-35.2,3.7c-6.6,0.4-30.1,3.7-29.2-6.1L190.2,444.5z"/>
		<path opacity="0.15" fill="#FFFFFF" d="M52.1,137.9c1.5-0.4,6-1.5,7.8-2.4c2-1,3-4.7,5.4-6c2.9-1.6,5.2-0.9,8.4-1.3c6.6-0.9,14.1,0.6,19.2-3.6
			c2.8-2.3,4-6.6,7.7-7.9c2.2-0.8,5.1,0.6,7.3-0.3c4.2-1.8,9.2-8.7,12.6-12c4.3-4.3,8.6-8.7,14.3-10.9c3.4-1.4,20.4-5.4,23.4-1.4
			c3.3,4.3-8.2,5.1-10.9,7.9c-2,2.1-2.2,5.3-3.5,7.3c-2.2,3.2-6,5.3-8.5,8.3c-1.9,2.3-11.2,12.2-8.2,14.9c2.7,2.5,4.5-1.2,6.4-2.4
			c3.8-2.4,3.2-2.3,7.2-2.4c9.5-0.2,12.1,2.3,19.2,7.8c6.6,5.1,5.6,13.3,10.8,19.1c5.3,6,7.5,0,13.1-0.6c4.4-0.5,4.8,2.7,8.5,3.8
			c3,0.8,6.2-0.4,9-0.9c3-0.5,3.1,0.7,6-0.9c2.7-1.5,4.2-4.7,7.2-6.1c5.5-2.6,14.9-6.1,20.7-6c6.8,0.1,12.7,2.9,19.4,1.7
			c9.2-1.7,13.7-7.7,22.1-2.3c-2.1,1.8-4.7,6-4.3,9c0.6,4.9,2.2,3.6,6,4.8c2.6,0.8,5.2,1.7,7.8,2.4c0.7,0.2,3.6,0.5,4.2,0.4
			c3.6-0.4,2.8-1.8,5.7-2.9c4.5-1.7,14.3-2.8,16.4,3.6c2.4,7.1-7.2,9-6.5,14.9c6.5,0.4,4.9,4.6,8.3,7.9c2.5,2.4,1.3,2.1,4.8,1.8
			c3-0.3,3.4-2.2,5.4-3c11.1-4.2,20.8,8.3,6.2,8.3c-9.7,0-19.8,2.4-29.4-0.6c-2.8-0.9-9-5.4-11.4-5.2c-4.6,0.3-6.9,8.4-3.6,11.3
			c-8.5-0.2-13.6-7.9-20.9-11.4c-3.3-1.6-8.9-3.6-12.2-2.3c-4.1,1.6-6.7,6.4-11.2,8.2c-3.4-6.1-11.2,0.5-16.1,0.8
			c-4.2,0.2-4.1-2-7.9,0.6c-3.6,2.5-1.6,3.5-3.6,6.4c-1.7,2.5-8.9,11-12.4,9.6c-5.1-2,2.9-8.7,2.9-12.3c-2.4-1.5-5-0.6-7.1,1.2
			c-2.1,1.8-1.5,4.9-2.8,6c-0.6,0.5-7.4,1.9-8,1.7c-1.9-0.7-2.3-4.1-4.2-5.5c-3.1,2.5-4.2,8.4-6.1,12.1c-3,5.7-4.9,11.9-8.1,17.2
			c-2.6,4.4-5.9,11.8-12.7,9.6c-7.3-2.4-2.6-9.1,0.7-13.2c-1.3-3.3-4.7-2.4-7.7-2.5c-0.3-5.8,2.7-12.6,1.7-17.9
			c-1.4-7.4-8.2-3.1-11.9-7.2c-1.7-1.9-1.1-6-3.2-8.3c-2.3-2.6-5.6-3.5-8.7-4.3c-6.2-1.6-12.6-1.9-18.5-5.4
			c-11.2-6.7-23.2-8.5-35.6-12.3c-4.1-1.2-11.5-2.7-14.7-5.6c-3.3-3-4.4-9.2-7.3-12.6c-2.3-2.7-6.2-1.3-6-5.9L52.1,137.9z"/>
		<path opacity="0.15" fill="#FFFFFF" d="M97.5,67.2c-2.5-7.9,5.9-10.2,12-13c6.2-2.9,14.6-10.2,21.4-9c-0.8,8.9-9.5,10.3-15.9,13.7
			c-3.5,1.9-4.3,4.4-7.4,6.4c-3.1,2-6.6,0.8-9.4,2.5"/>
	</g>
</g>
</svg>
