<svg xmlns="http://www.w3.org/2000/svg" width="233" height="277" viewBox="0 0 233 277">
    <path opacity=".15" fill="#FFF" fill-rule="evenodd" d="M11.107 77.142l3.056 54.366 5.603 12.456c.255.552.382 1.146.382 1.74V168.093c0 1.04-.382 2.037-1.082 2.822l-7.513 8.425-.552 1.485 2.844 2.929 6.643 2.61c1.04.403 1.889 1.21 2.335 2.228l2.398 5.496c.255.53.382 1.125.382 1.719v81.168h115.476l61.57-6.79-1.062-5.858-6.24-8.212-11.014-6.366c-.573-.34-1.083-.806-1.401-1.358l-6.855-10.526-9.89-5.432-10.463-3.544c-.531-.19-1.04-.467-1.465-.87l-8.34-7.575c-.913-.807-1.401-1.953-1.401-3.141v-33.528l-4.776-3.226c-1.422-.976-2.143-2.716-1.761-4.413l2.313-10.653c.191-.849.594-1.592 1.231-2.186l8.214-7.724 5.9-8.637v-23.172c0-1.507.806-2.886 2.1-3.65l4.797-2.822c1.019-.573 2.186-.7 3.332-.425l1.104.318c.191-.403.446-.764.764-1.06l35.613-35.502 28.397-22.112 1.23-2.525-1.655-2.25-25.468-2.928-11.906 4.987c-.51.212-1.104.34-1.634.34h-7.046c-.765 0-1.486-.213-2.165-.573l-39.433-23.003-20.396 2.525c-.446.085-.955.042-1.4-.064l-18.02-3.883-18.676-2.058c-1.4-.149-2.653-1.019-3.31-2.292L68.388.303v12.732c0 2.334-1.931 4.244-4.244 4.244H.665v29.157l10.23 29.581c.106.34.191.743.212 1.125"/>
</svg>
