<?xml version="1.0" encoding="utf-8"?>
<!-- Generator: Adobe Illustrator 21.0.0, SVG Export Plug-In . SVG Version: 6.00 Build 0)  -->
<svg version="1.1" id="Layer_1" xmlns="http://www.w3.org/2000/svg" xmlns:xlink="http://www.w3.org/1999/xlink" x="0px" y="0px"
	 viewBox="0 0 432 432" style="enable-background:new 0 0 432 432;" xml:space="preserve">
<style type="text/css">
	.st0{fill:#050505;}
	.st1{fill:none;stroke:#000000;stroke-width:0;stroke-linecap:round;stroke-linejoin:round;}
	.st2{fill:#050505;stroke:#050505;stroke-width:8.239910e-03;}
</style>
<path opacity="0.15" fill="#FFFFFF" d="M386.1,100.2c-0.2,0.8,0.4,0.8,0.9,0.9c3.7-0.8,2.8,3.6,4.5,5.4c0.5,0.5,3.9-0.6,3.6,1.8
	c4-4.6,13.1-1.5,18.8-2.7c-1.2,3.9-5.8,4.4-8.9,6.3c-3.3,3.4-7,4.6-11.6,7.2c-0.4,0.2-1.5,1.7-1.8,1.8c-0.8,0.2-1.9-0.3-2.7,0
	c-0.8,0.4-0.6,1.5-1.8,1.8c-0.8,0.2-1.9-0.3-2.7,0c-0.5,0.2-1.5,1.7-1.8,1.8c-0.8,0.2-1.9-0.3-2.7,0c-0.5,0.2-1.5,1.7-1.8,1.8
	c-2,0.6-4.2,0.9-6.3,1.8c-7.9,3.6-14.8,9.2-21.4,15.2c-5,4.5-8.8,9.4-13.4,15.2c-2.3,2.8-4.5,6.3-7.1,8.9c-5,4.9-12.2,8.3-16.1,15.2
	c-5.6,1.5-8,6.3-12.5,8.9c-0.4,2.2,1.6,1.9,0.9,4.5c-5.8-3.8-4.6,8.8-9.8,5.4c-0.2,13.1,0.1,25.5,0.9,37.5c-1.6,0.8-3.1,1.7-2.7,4.5
	c-1.7,1.7-2.2,0.1-4.5,0c-1,1.2-0.7,2.8-1.8,3.6c-1,0.7-1.7-0.9-1.8-0.9c-1.2,0.2-0.2,1.3-0.9,1.8c-1.7,1.2-4.4,1-5.4,4.5
	c-1.8-1.8-1.8,0.4-3.6,0.9c-0.7,5.2-2.8,9.1-6.3,11.6c0,2.4,0,4.8,0,7.2c1.7,2.2,3.9-1.1,6.3,0.9c1.2,3.5,3.1,6.5,5.4,8.9
	c-1.4,3.9-3.5,7.2-5.4,10.7c0.2,3-0.7,7.3,0.9,8.9c-0.4,1.7-0.3,3.9-2.7,3.6c3,5.5,3.2,15,0,20.6c4.3,4.3,10.8,6.4,13.4,12.5
	c2.4,0.6,7.1-1.1,8,0.9c3.4,0.1,2.2,5,4.5,6.3c6.7,1.7,12.4,4.3,17,8c-0.5,3.8,1.6,5,1.8,8c4.4,3.3,9,6.5,13.4,9.8
	c1.5-0.1-0.9-3.7,0-6.3c3-0.5,7.7,0.7,10.7,2.7c0.6,0.4,0.5,1.5,0.9,1.8c1,0.6,2.7,0.2,3.6,0.9c0.3,0.2-0.3,1.5,0,1.8
	c0.3,0.3,1.5-0.3,1.8,0c0.5,0.5,0.4,1.3,0.9,1.8c1.6,1.6,3.5,6.9,1.8,10.7c0.4,3.7-2.2,0-3.6,0c2.6,3.5,0.3,8.2,0.9,12.5
	c0.5,3.9,2.8,6.9,2.7,10.7c-81,3.6-168.8,3.2-252.1,1.8c1.7-25.2-2.2-51.7,0-76.9c0.2-2.1,1.5-4.2,1.8-6.3c1.1-7.7-0.5-17.4,0-25.9
	c0.3-4.7,2.1-8.7,0-12.5c-1.8-3.9-7.3-4-10.7-6.3c-1.1-2.2-2.2-4.3-2.7-7.2c-1.1-2.1-3.9-2.6-3.6-6.3c1-5.1,6.8-5.8,9.8-8.9
	c1.1-1.2,0.4-3.6,2.7-3.6c2-11.9,1.1-21.3,0-33.1c-6.7-9.3-9.7-26.2-6.3-38.4c-0.1-3.2-2.6-4-2.7-7.1c1.2-8.1-0.3-23.5,0-32.2
	c0.2-7.4-1.4-12.2-3.6-18.8c-0.6-1.7-2.1-3.5-2.7-5.4c-0.4-1.3,0.4-3.1,0-4.5c-0.1-0.4-1.7-1.5-1.8-1.8c-1.1-5.1-0.3-9.5-3.6-13.4
	c3.7-9.1-2.4-25.8,3.6-34c-2.3-7.5-4.7-15-6.3-23.2c29.9,1.4,61.2,1.4,91.2,2.7c2-6.6,0.4-16.9,0.9-25c4.3,1.7,7.8-0.2,10.7,0.9
	c0.4,0.2,0.6,1.6,0.9,1.8c1.3,0.6,2.9,0.7,4.5,1.8c-0.4,7.6,3,19,5.4,26.8c0.4,3.1-0.4,5-0.9,7.2c2.4,5.6,8.7,7.1,16.1,5.4
	c3.4-0.4,2.8,3.2,4.5,4.5c6.7-0.7,10.7,1.3,17,0.9c0.8,2.2,2.1,3.9,1.8,7.1c3.2,1.2,8-0.8,12.5-0.9c1.4-1.1,0.8-2.5,1.8-3.6
	c1.3-1.5,5.7-3.3,7.1-3.6c1.6-0.3,3.6,0.7,6.3,0.9c2.2,0.2,8.6-1.2,9.8,0c0.2,0.2-0.3,1.7,0,1.8c0.7,0.4,2-0.4,2.7,0
	c2.8,1.5,7,4.3,11.6,4.5c1.2,3.9-2.5,2.8-3.6,4.5c1.5,3.7,6.8-1.1,9.8,1.8c1.4,4.8,1.3,11.3,6.3,12.5c2.1-2.4-0.5-4.1,0.9-7.1
	c2.9-1.3,7.5-0.8,11.6-0.9c1.9,1.7,2.8,4.4,3.6,7.2c5.1-0.4,5.8,3.7,11.6,2.7c1,1.1,1,3.2,0.9,5.4c1.7,1.5,7.4-0.8,6.3,3.6
	c5.2-0.8,7.3-0.3,12.5-1.8c4.7-4.8,10.2-8.8,17-11.6c3.7,0.5,2.4,6,5.4,7.2c1.6-3.7,0.5,3.1,0,2.7c0.8,0.6,2.9-1.5,6.3-1.8
	c3.1-0.3,7.9,1,10.7,0.9C378.5,101.7,382.9,99.7,386.1,100.2z M344,380.9c-0.2-0.2-1.4,0.4-0.9,0.9C343.4,382,344.5,381.3,344,380.9
	z"/>
</svg>
