<svg xmlns="http://www.w3.org/2000/svg" width="130" height="226" viewBox="0 0 130 226">
    <path opacity=".15" fill="#FFF" fill-rule="evenodd" d="M119.626.3l-2.27.297-63.714 5.602-11.651 1.018-7.704 12.35-3.247 13.497c-.17.7-.489 1.358-1.02 1.91l-7.279 7.83-8.362 16.7-3.544 16.361 5.836 43.523 8.85 15.64c.616 1.082.743 2.334.34 3.5l-1.783 5.03c-.17.446-.403.828-.636 1.188l-12.352 16-4.67 8.446L.67 189.076l1.294 6.62 74.58-5.326c1.082-.318 2.292.34 3.162 1.125.849.806 1.358 1.93 1.358 3.098v3.798c0 .722-.19 1.422-.552 2.059l-1.528 2.822v6.409l1.252 2.758 4.436 3.99c.488.445.87.976 1.082 1.57l2.76 6.854.785.87 4.16-1.634 2.886-2.08c.51-.339 1.04-.551 1.634-.657l7.832-1.337 5.178-3.183c.552-.36 1.231-.552 1.953-.594l16.575-1.125-9.826-62.96L119.626.3z"/>
</svg>
