<svg xmlns="http://www.w3.org/2000/svg" width="254" height="214" viewBox="0 0 254 214">
    <path opacity=".15" fill="#FFF" fill-rule="evenodd" d="M226.644 205.772l-5.751 7.873 14.623-1.846.976-2.653 2.653-16.318c.19-1.061.764-2.037 1.634-2.674l2.037-1.549 3.396-5.39c.36-.615.913-1.125 1.528-1.464l4.606-2.525 1.294-5.794-2.143-5.326-6.813-2.992c-.764-.318-1.358-.849-1.825-1.507l-5.964-8.827c-.828-1.231-.955-2.822-.318-4.16l1.613-3.458-2.017-3.671-2.143-7.512-14.644-10.632-14.666-9.082c-.53-.318-.933-.743-1.294-1.23l-3.693-5.455c-.594-.89-.87-1.994-.658-3.055l1.04-6.43c.064-.36.148-.7.318-1.04l4.266-9.74 1.274-8.34-.255-.339-7.47-.934-4.33 2.292c-.998.51-2.186.637-3.226.318-1.083-.34-1.995-1.082-2.505-2.08l-4.457-8.381-3.905-10.717-14.58-10.44c-.382-.276-.722-.615-.976-.997l-8.85-12.435c-.277-.404-.468-.828-.637-1.295l-3.587-12.605c-.106-.382-.17-.764-.17-1.167V10.757L138.44.232l-5.434 2.08c-.445.17-.87.254-1.337.276L57.175 6.216H.021l2.61 8.403 4.011 4.18c.276.298.51.659.722 1.04l4.648 9.253 6.961 5.39h6.325c1.422 0 2.759.721 3.544 1.888l2.526 3.82c.955 1.422.955 3.29 0 4.732l-3.693 5.517-1.634 4.626 7.322 12.436 6.367 2.249c1.634.573 2.737 2.08 2.844 3.798l5.157 106.017.912 19.268 169.724-8.34h.233c.892 0 1.762.277 2.462.807l4.67 3.353c1.103.806 1.761 2.08 1.761 3.438v5.177c-.021.892-.318 1.762-.849 2.504"/>
</svg>
