<?xml version="1.0" encoding="utf-8"?>
<!-- Generator: Adobe Illustrator 21.0.0, SVG Export Plug-In . SVG Version: 6.00 Build 0)  -->
<svg version="1.1" id="Layer_1" xmlns="http://www.w3.org/2000/svg" xmlns:xlink="http://www.w3.org/1999/xlink" x="0px" y="0px"
	 viewBox="0 0 432 432" style="enable-background:new 0 0 432 432;" xml:space="preserve">
<style type="text/css">
	.st0{fill:#050505;}
	.st1{fill:none;stroke:#000000;stroke-width:0;stroke-linecap:round;stroke-linejoin:round;}
	.st2{fill:#050505;stroke:#050505;stroke-width:8.239910e-03;}
</style>
<path opacity="0.15" fill="#FFFFFF" d="M418.7,305.9C418.7,305.9,418.2,305.9,418.7,305.9l-4.4-1.5l-4.4-6.8c0,0-0.5-0.5-0.5,0L407,299
	c0,0-0.5,0.5,0,0.5l1.5,4.4l-4.9-2.9l-4.9-13.2l0,0l-2.9-1.5l3.9-9.7c0,0,0,0,0-0.5l-5.4-10.2v-8.3c0,0,0,0,0-0.5l-22.9-18l0,0
	l-6.3-1l-18-16.6l-1-8.8l9.3-20l0,0l-1-6.3l3.4-6.3l0,0l0.5-2.4v-0.5l-8.3-5.8l0,0l-9.3-2.4h-0.5l-7.3,5.4l-3.4-0.5l-3.9-5.8
	l-5.8-22.4l0,0l-14.1-9.7l-3.4-5.8l0,0l-15.1-13.2l-7.8-27.8l1.9-17.5c0,0,0,0,0-0.5l-15.1-16.6c0,0,0,0-0.5,0l-32.1,1H53.4
	c0,0,0,0-0.5,0s0,0,0,0.5v4.4c0,0,0,0.5,0.5,0.5l3.4,1.5l1.9,14.1v0.5l9.3,5.4l-0.5,2.9c0,0,0,0,0,0.5l3.9,5.8L71,96.9v0.5
	l16.6,12.2c0,0,0,0,0.5,0l7.8-1.9l3.9,9.7l-4.4,0.5h-0.5L87,131v0.5l11.2,11.7l3.4,11.7c0,0,0,0,0.5,0.5l11.7,3.9l-1,186.1
	c0,0,0,0,0,0.5c0,0,0,0,0.5,0l247.9-4.4l5.8,8.8v6.3L350,377v0.5c0,0,0,0,0.5,0l0,0l36.5-1.5h0.5l6.3-9.7v-0.5L389,359l6.3-1
	c0,0,0.5,0,0.5-0.5V357l-3.4-4.4l5.4-3.4v-0.5l-2.9-11.7l2.9-0.5l1.5,7.3c0,0,0,0.5,0.5,0.5c0,0,0.5,0,0.5-0.5l4.9-12.2l7.3,3.4
	c0,0,0,0,0.5,0l0,0l5.8-14.6l0,0V305.9z"/>
</svg>
