<svg xmlns="http://www.w3.org/2000/svg" width="374" height="248" viewBox="0 0 374 248">
    <path opacity=".15" fill="#FFF" fill-rule="evenodd" d="M2.951 49.404l4.075 8.551c.36.764.488 1.634.36 2.483L5.732 70.836l7.089 13.687 11.354 25.72 4.945 4.795 3.396 1.104c1.231.403 2.207 1.358 2.674 2.588l1.21 3.268c.382 1.061.34 2.207-.127 3.226l-2.76 6.005-4.817 7.724-1.804 12.796c-.064.446-.191.87-.403 1.273l-3.375 6.855-1.995 7.363.616 2.122 1.931 1.507 4.202-1.04 3.417-3.268c1.422-1.38 3.63-1.57 5.285-.467l4.648 3.098c.934.616 1.592 1.592 1.804 2.695l5.964 29.56.063 9.061 4.054 3.12c.382.297.7.636.955 1.018l4.139 6.303c.36.53.573 1.146.657 1.761l1.465 10.844 5.306.827 31.601 1.486 7.153-1.337 1.761-2.568c.446-.636 1.04-1.146 1.762-1.464l3.162-1.422c1.04-.445 2.207-.488 3.268-.106 1.062.403 1.91 1.21 2.356 2.25l1.847 4.159.254-.51 1.337-10.674c.107-.976.552-1.867 1.274-2.546l3.714-3.565c.806-.764 1.846-1.188 2.95-1.188.255 0 .51.02.764.063l65.856 11.905 85.743 11.31 76.956 7.682 3.565-42.822 12.607-142.75-129.632-14.281-106.096-19.226L11.929.915.914 38.921 2.95 49.404z"/>
</svg>
