<?xml version="1.0" encoding="utf-8"?>
<!-- Generator: Adobe Illustrator 21.0.0, SVG Export Plug-In . SVG Version: 6.00 Build 0)  -->
<svg version="1.1" id="Layer_1" xmlns="http://www.w3.org/2000/svg" xmlns:xlink="http://www.w3.org/1999/xlink" x="0px" y="0px"
	 viewBox="0 0 432 432" style="enable-background:new 0 0 432 432;" xml:space="preserve">
<style type="text/css">
	.st0{fill:#050505;}
	.st1{fill:none;stroke:#000000;stroke-width:0;stroke-linecap:round;stroke-linejoin:round;}
	.st2{fill:#050505;stroke:#050505;stroke-width:8.239910e-03;}
</style>
<path opacity="0.15" fill="#FFFFFF" d="M424.7,147.5c-122.4,0-244.7,0-367.1,0c0,15.2,0,30.3,0,45.5l0.1,0.3l0.3,0.4l0.7,0.7l0.9,1.1l0.4,0.7l0.8,1
	l0.2,0.5L61,198l0.2,0.2l0.4,0.3l0.3,0.3l0.3,0.4l0.3,0.3l0.7,0.4l0.2,0.2l0.2,0.4l0.1,0.3l0.6,2.2l0.1,0.2l0.2,0.3l0.8,0.5l0.3,0.2
	l0.2,0.4l0.1,0.3l0.1,0.3l0.2,0.2l0.9,0.6l0.2,0.2l0.2,0.4l0.1,0.3l0,0.3l-0.1,1.1l0.1,0.4l0.8,1.3l0.2,0.5l0.1,0.4l-0.1,0.3
	l-0.2,0.5l-0.1,0.2l-0.1,0.2l-0.2,0.1l-0.7,0.5l-0.2,0.1l-0.1,0.2l0,0.2l0.2,0.2l0.8,0.5l0.3,0.3l0.2,0.5l0.2,0.9l0,0l0.3,0.2
	l0.5,0.2l0.3,0.2l0.1,0.3L70,217l-0.1,0.2l-0.2,0.1l-0.2,0.1l-0.2,0.1l-1.3,0.1l-0.2,0.1l-0.2,0.1l-0.1,0.1l-0.1,0.2l-0.1,0.2
	l0.1,0.2l0.2,0.2l0.5,0.3l1.2,0.4l2.3,1.5l0.3,0.3l1,1.2l0.5,0.7l0.3,0.6l0.3,0.6l0.2,0.2l0.2,0.2l0.4,0.2l1.5,0.3l2.8,1.1l0.3,0.2
	l0.2,0.3l0.3,0.5l0.3,0.6l0.1,0.2l0.2,0.3l0.1,0.2l0.1,0.2l0.1,0.5l0.1,0.2l0.2,0.2l0.3,0.2l0.2,0.2l0.2,0.2l0.3,0.4l0.3,0.3
	l0.8,0.6l0.3,0.3l0.8,1.2l0.4,1l2.7,3.1l0.1,0.2l0.1,0.8l0,0.1l0.1,0.1l0.1,0.2l0.2,0.2l0.4,0.2l0.6,0.2l0.2,0.1l0.2,0.2l0.9,1.2
	l0.2,0.2l0.3,0.2l0.8,0.5l0.2,0.2l0,0.2l0,0.2l-0.1,0.3l-0.1,0.3l0,0.3l0.1,0.8l0.1,0.5l0.1,0.4l0.3,0.6l0.2,0.2l0.3,0.2l0.9,0.6
	l0.3,0.3l0.4,0.5l0.3,0.3l0.5,0.2l0.9,0.2l0.2,0.1l0.2,0.2l0.1,0.3l0,0.3l0,0.3l-0.2,1.1l0,0.2l0.1,0.2l0.2,0.2l0.3,0.1l0.2,0
	l0.2-0.1l0.7-0.9l0.5-0.4l0.2-0.1l0.2-0.1l0.2,0l0.2,0.1l0.2,0.1l0.8,0.6l0.2,0.3l0.3,0.4l0.1,0.3l-0.1,0.3l-0.4,0.5l-0.1,0.2l0,0.3
	l0,0.2l0.1,0.2l0.2,0.3l0.3,0.3l0.7,0.5l0.4,0.2l0.4,0.1l0.5,0l0.4-0.1l0.7-0.3l0.2,0l0.2,0l0.5,0.2l0.2,0l0.2,0l0.2-0.1l0.4-0.2
	l0.5-0.4l0.2-0.1l2.1-0.5l0.2,0l0.3,0l0.2,0.1l0.2,0.2l0.1,0.3l0,0.3l0,0.3l0,0.8l-0.1,0.5l-0.2,0.5l-0.1,0.2l0,0.2l0,0.2l0.1,0.2
	l0,0.2l0,0.2l-0.1,0.2l-0.2,0.4l-0.1,0.2l0,0.2l0.1,0.2l0.1,0.2l0.1,0.2l0,0.2l-0.1,0.2l-0.1,0.2l-0.2,0.2l-0.2,0.1l-0.2,0.1
	l-0.8,0.3l-0.2,0.1l-0.1,0.1l-0.1,0.2l0,0.1l0,0.1l0.1,0.2l0.4,0.5l0.2,0.2l0.1,0.2l0,0.2l0,0.3l0,0.3l-0.1,0.3l-0.1,0.3l-0.7,1.5
	l-0.1,0.5l-0.1,0.5l0,0.6l0.1,0.5l0,0.3l0,0.2l-0.1,0.2l-0.6,0.9l-0.1,0.2l-0.1,0.2l0,0.5l-0.1,0.2l-0.1,0.2l-0.3,0.4l-0.1,0.2
	l-0.1,0.2l0,0.2l0.1,0.2l0.1,0.3l0.2,0.5l0.1,0.2l0,0.2l0.1,0.7l0.1,0.5l0,0.3l0,0.2l-0.1,0.2l-0.1,0.2l-0.2,0.1l-0.2,0.1l-1,0.1
	l-0.2,0.1l-0.1,0.1l-0.1,0.1l-0.1,0.2l0,0.2l0,0.2l0.1,0.3l1.2,1.3l0.1,0.2l0.1,0.2l0,0.2l0,0.2l-0.1,0.2l-0.1,0.2l-0.6,0.9
	l-0.1,0.2l-0.1,0.2l0,0.3l0.1,0.3l0.2,0.4l0,0.3l0,0.3l-0.1,0.2l0.1,0.3l0.3,0.3l0.7,0.3l0.8,0.2l0.2,0.1l0.1,0.3l0,0.3l-0.1,0.3
	l-0.3,0.6l-0.1,0.2l0,0.3l0,0.3l0,0.2l0.1,0.2l0.1,0.2l0.6,1l0,0.3l0,0.3l-0.1,0.2l-0.7,0.8l-0.2,0.1l-0.2,0.1l-0.2,0.1l-1,0.1
	l-0.2,0.1l-0.2,0.1l-0.3,0.3l-0.1,0.2l-0.1,0.1l-0.2,0.4l-0.3,0.6l-0.2,0.4l-0.1,0.2l-0.1,0.2l-0.1,0.2l-0.3,0.3l-0.1,0.2l0,0.2
	l0.1,0.3l0.3,0.4l0.2,0.6l0.1,0.2l0.2,0.3l0.8,0.8l0.2,0.3l0.1,0.3l-0.1,0.4l0,0.2l0.1,0.4l0,0.3l0,0.2l-0.1,0.2l-0.1,0.1l-0.1,0.1
	l-0.4,0.4l-0.6,0.5l-0.1,0.2l-0.1,0.2l0.1,0.3l0.2,0.4l0.1,0.3l0,0.3l0,0.2l-0.1,0.2l-0.4,0.5l0,0.2l0.1,0.2l0.4,0.1h0.6l1.4,0.3
	l0.3,0.1l1,0.8l0.2,0.2l0.1,0.2l0,0.2l0.2,0.2l0.3,0.2l1,0.6l0.2,0.3l0.1,0.2l0.2,0.2l0.3,0.1l0.6,0.1l0.3-0.1l0.3-0.1l0.2-0.1
	l0.7-0.4l0.1-0.1l0,0l0.1-0.2l0.3-0.9l0.1-0.2l0.1-0.2l0.1-0.2l0.2-0.1l0.2-0.1l0.2,0l0.5,0l0.2,0l0.2-0.1l0.7-0.5l1.2-0.5l0.2-0.1
	l0.1-0.2l0.1-0.2l0.1-0.2l0.1-0.2l0.2-0.2l0.5-0.3l0.1-0.1l0.1-0.2l0.1-0.2l0.1-0.2l0.2-0.4l0.1-0.2l0.2-0.2l0.2-0.1l0.2-0.1
	l0.8-0.3l0.1-0.1l0.1-0.1l0.1-0.2l0-0.2l0-0.2l-0.1-0.3l0-0.2l0-0.2l0-0.2l0-0.2l0.1-0.1l0.1-0.1l0.2-0.1l0.4,0.1l0.6,0.3l1.1,0.8
	l0.8,0.7l0.1,0.2l0.1,0.2l0,0.5l0.2,0.2l0.4,0.2l1.6,0.6l0.2,0.1l0.2,0.2l0.3,0.3l0.1,0.2l0.1,0.2l0,0.2l-0.1,0.2l-0.2,0.4l-0.1,0.2
	L126,302l-0.1,0.6l0,0.3l0.1,0.3l0.2,0.2l1,0.4l0.3,0.3l0.1,0.3l0,0.1l0,0.3l0.1,0.7l0,0.2l-0.1,0.2l-0.2,0.5l-0.1,0.2l0,0.2l0,0.3
	l0.1,0.2l0.1,0.2l0.1,0.5l0.1,0.3l0.9,0.7l0.2,0.3l0.1,0.3l0,0.5l-0.1,1.1l-0.1,0.5l0,0.3l0,0.5l0.1,0.2l0.1,0.2l0.2,0.2l0.7,0.5
	l0.2,0.2l0.2,0.2l0.1,0.2l0,0.5l0,0.2l0.1,0.2l0.5,0.4l0.6,0.7l0.5,0.4l0.4,0.5l0.2,0.4l0.1,0.2l0.1,0.4l0,0.2l0.1,0.2l0.1,0.2
	l0.2,0.3l0.1,0.2l0.1,0.2l0,0.5l0,0.2l0.2,0.2l0.3,0.1l1,0l0.2,0.1l0.2,0.3l0.2,0.8l0.1,0.2l1,1.4l0.2,0.4l0.5,1.2l0.1,0.2l0.1,0.7
	l0,0.1l0,0.3l-0.2,1l-0.1,0.2l-0.1,0.2l-0.1,0.2l-0.1,0.1l-0.6,0.3l-0.2,0.1l-0.1,0.2l0,0.2l0.1,0.2l0.1,0.2l0.3,0.3l0.2,0.3
	l0.2,0.4l0.4,1.2l0.2,0.4l0.3,0.4l0.4,0.3l1.4,0.7l0.4,0.3l0.3,0.2l0.1,0.2l0.1,0.7l0.2,0.2l0.3,0.1l0.6-0.1l0.3-0.1l0.2-0.1
	l0.6-0.6l0.2-0.1l0.2-0.1l0.2-0.1l0.5,0l0.7,0.2l0.8,0.4l0.7,0.6l0.6,0.6l0.1,0.2l0.4,0.7l0.1,0.2l0.4,0.4l0.1,0.2l0.1,0.2l0.1,0.2
	l0,0.2l0.1,0.2l0.1,0.2l0.1,0.2l0.3,0.3l0.1,0.2l0.1,0.2l0.2,0.6l0.1,0.2l0.3,0.5l0.2,0.4l0.1,0.2l0,0.2l0,0.2l-0.1,0.2l-0.1,0.2
	l-0.3,0.3l-0.1,0.2l-0.1,0.2l0,0.2l0,0.2l0.1,0.2l0.8,0.9l0.1,0.2l0,0.2l0,0.5l0.2,0.2l0.3,0.2l0.5,0.3l0.2,0.2l0.1,0.2l0,0.2
	l-0.3,0.7l-0.1,0.4l0,0.1l0,0.2l0.3,0.6l0,0.2l0,0.5l0.1,0.2l0.3,0.2l0.5,0.2l0.3,0.2l0.2,0.2l0.5,0.7l0.2,0.1l0.2,0.1l1.4,0.4
	l0.2,0.1l0.1,0.1l0.7,1l0.2,0.1l0.3,0l0.5-0.3l0.1-0.2l0-0.2l-0.5-0.9l-0.1-0.2v-0.2l0.1-0.2l0.1-0.2l0.1-0.2l0.1-0.2l1.8-1.8
	l0.2-0.1l0.9-0.2l0.2-0.1l0.5-0.4l0.3-0.1l0.3,0l1,0.3l3.7,0.5l0.2,0.1l0.2,0.1l0.3,0.3l0.2,0l0.8-0.1l0.4,0l0.6,0.2l0.3,0.2
	l0.2,0.2l0.1,0.2l0.2,0.1l0.3,0.1l0.3,0l0.5-0.2l0.3-0.2l0.2-0.2l0.5-1.4l0.2-1l0.1-0.2l0.1-0.2l0.2-0.1l0.4-0.2l0.5-0.2l0.8-0.2
	l0.2-0.1l0.1-0.1l0.3-0.3l0.2-0.1h0.3l0.4,0.2l0.5,0.4l0.2,0.1l0.3,0l0.7,0l0.6,0.1l0.9,0.2l0.7,0.3l0.3,0l2.9-0.5l0.5,0.1l0.6-0.1
	l0.3-0.1l0.2-0.1l0.2-0.1l0.2-0.1l0.3,0l1.3,0l0.5,0.2l0.3,0.2l0.2,0.2l0.2,0.4l0.1,0.2l0.1,0.2l0.2,0.1l0.2,0.1l0.3,0l0.6-0.3
	l0.3-0.1l0.6-0.1l0.5-0.1l0.2-0.1l1.4-1l0.4-0.1l3.3,0l0.4,0.1l0.9,0.5l0.4,0.3l0.2,0.1l0.3,0l0.5-0.1l0.3-0.1l0.2-0.1v-0.2
	l-0.1-0.2l-0.2-0.1l-0.7-0.2l-0.2-0.1l-0.1-0.1l-0.1-0.1l-0.1-0.1l-0.1-0.2l-0.1-0.4l0-0.2l0-0.2l0-0.3l0.1-0.2l0.2-0.5l0.1-0.2
	l0-0.5l0.1-0.2l0.2-0.1l0.8-0.3l0.2-0.1l0.1-0.2l0.1-0.2l0-0.3l0-0.2l-0.1-0.2l-0.1-0.2l-0.1-0.2l-0.1-0.2l-0.1-0.2l0-0.2l0.1-0.2
	l0.3-0.3l0.4-0.2l0.2-0.1l0.9-0.1l0.2-0.1l0.2-0.2l0.3-0.6l0.1-0.1l0.3,0l0.4,0.1l1.1,0.6l0.3,0.3l0.3,0.7l1.2,2l0.2,0.5l0.1,0.2
	l0.3,0.1l0.2,0.2l0.2,0.2l0.1,0.3l0,0.3l0,0.3l0,0.5l0.1,0.2l0.1,0.2l0.1,0.2l0.2,0.2l0.2,0.2l0.5,0.2l0.3,0.3l0.4,0.5l0.5,0.9
	l0.9,1.1l0.5,0.4l1.3,0.4c0-7.2,0-14.4,0-21.5c71.8,0,143.5,0,215.3,0l0-0.6c-0.1-13.5-0.1-26.9-0.2-40.4
	C425.1,239.2,424.9,193.4,424.7,147.5z"/>
</svg>
