<?xml version="1.0" encoding="utf-8"?>
<!-- Generator: Adobe Illustrator 21.0.0, SVG Export Plug-In . SVG Version: 6.00 Build 0)  -->
<svg version="1.1" id="Layer_1" xmlns="http://www.w3.org/2000/svg" xmlns:xlink="http://www.w3.org/1999/xlink" x="0px" y="0px"
	 viewBox="0 0 432 432" style="enable-background:new 0 0 432 432;" xml:space="preserve">
<style type="text/css">
	.st0{fill:#050505;}
	.st1{fill:none;stroke:#000000;stroke-width:0;stroke-linecap:round;stroke-linejoin:round;}
	.st2{fill:#050505;stroke:#050505;stroke-width:8.239910e-03;}
</style>
<path opacity="0.15" fill="#FFFFFF" d="M388.4,269.1c2.4-3.5-1.6-4.7-2.4-7.9c-0.4-2-5.5-6.3-7.5-5.9c2.4-2-0.4-5.9-1.6-8.3c-0.8-2,1.6-4.3-0.4-5.5
	c0,0.8-0.4,1.6-0.4,2c-2,0-2.8-1.6-2.8-3.5c0-4.7-3.5-3.9-4.7-7.5c-0.8-2,1.2-7.1,1.6-9.1c0.4-3.2-0.8-5.9-2-8.7
	c-0.4-1.2,0.8-2,0.4-3.2c-0.4-1.6-1.2-2,0-3.2c-2.8-0.8-2.8-2-3.2-4.3c-0.4-1.6,0-3.5,1.2-1.2c0.4-1.6-0.8-2.4-2-3.2
	c-0.8-0.8,0-3.5,0-4.7c0.4-3.2-4.3-0.8-2.4-5.1c-1.2,0.4-2.8,0.4-3.5-0.4c0.8,0.8-1.2-3.9-1.2-3.5c-0.4-2,0.4-2.8-0.4-4.3
	c-0.8-1.2,1.6-0.8,1.2-2c-0.8-3.2,0.4-4.3-1.2-7.1c-1.2-2.4-0.8-6.3-2.8-7.1c-2.8-1.6-3.5-3.5-4.3-6.3c-0.4-2-5.1-4.3-2.8-6.3
	c2.8-2.4-2.4-5.1-2.8-6.7c-0.8-2.4,2.4-6.3-0.8-7.5c-2.8,0.8-3.2-1.6-5.5-1.6c-2,0.8-6.7-5.1-5.1-7.5c-4.7-0.8-5.1-3.5-10.6-3.2
	c0.8-2.8-2.4-2-4.3-2.4c-2-0.4-3.2-0.8-4.7-2c-2-1.2-1.6-2.4-3.9-3.2c-1.6-0.4-3.5,0-5.1,0.4c-1.6,0.4-5.1,1.6-6.7,0.4
	c-1.6-0.8-1.6-0.4-2.8,0.4c-0.8,0.4-0.8-1.2-1.6-1.2c-1.2,0-2,1.2-2.8,0.8c-1.2-0.4-1.2-0.8-2.4-0.8c-2.4,0-1.6,2.8-3.2,3.5
	c-3.2,1.2-3.5,1.6-6.3,0c-1.6-0.8-2-2-3.9-2.8c-4.7-2-9.5-2.8-12.2-7.5c-1.2-2-14.2-0.4-16.2-0.4c-12.2,0-87.5-0.4-112.7-2
	c-29.9-1.2-59.9-2.8-89.4-4.3l-5.9,107.9l80.8,4.7l-2,53.6c52,1.2,104,2.8,156.4,2.4c39.8-0.4,79.6-0.8,119.8-2
	C391.9,270.7,390.3,269.9,388.4,269.1z"/>
</svg>
