<svg xmlns="http://www.w3.org/2000/svg" width="309" height="147" viewBox="0 0 309 147">
    <path opacity=".15" fill="#FFF" fill-rule="evenodd" d="M.23 90.948l69.167 5.9c2.207.19 3.884 2.015 3.884 4.222v42.568l65.007 2.929h169.936l-1.167-2.356-4.245-4.435c-.446-.467-.785-1.04-.976-1.676l-4.351-13.92-4.436-4.67c-.743-.785-1.188-1.846-1.188-2.928v-8.318l-2.144-16.213-8.447-30.217-12.861-34.207-.891-3.587-.022-.063h-13.519c-.891 0-1.783-.297-2.504-.828l-6.856-5.008h-16.702l-7.598 1.846c-.807.191-1.677.149-2.462-.17l-15.939-6.047c-.446-.17-.87-.425-1.231-.722l-5.518-4.626h-95.23L7.87.762.23 90.948z"/>
</svg>
