<svg xmlns="http://www.w3.org/2000/svg" width="47" height="102" viewBox="0 0 47 102">
    <path opacity=".15" fill="#FFF" fill-rule="evenodd" d="M39.039 39.528l-3.842-2.759c-1.337-.997-1.995-2.695-1.634-4.35l2.759-12.456-.127-.085c-.764-.594-1.316-1.422-1.529-2.377l-2.186-9.21L6.63.482.794 16.355l1.74 4.541c.34.85.382 1.762.128 2.653l-1.74 6.366 1.655 4.138 5.433 6.663 5.348 2.334c.552.255 1.125.637 1.507 1.125l7.322 8.53c1.507 1.783 1.316 4.457-.446 5.985l-7.258 6.239v2.419c0 1.103-.467 2.164-1.21 2.97l-9.805 10.08-1.761 3.714.615 2.461 2.908 3.162.53.594 21.882 7.937c.36.127.742.34 1.082.573l3.99 2.95 8.553-21.858 1.592-5.58.976-13.454c.021-.425.106-.828.276-1.21l1.91-4.923V44.196l-1.868-2.95-3.82-1.082c-.446-.127-.891-.36-1.294-.636"/>
</svg>
