<svg xmlns="http://www.w3.org/2000/svg" width="263" height="201" viewBox="0 0 263 201">
    <path opacity=".15" fill="#FFF" fill-rule="evenodd" d="M234.221 192.748c-1.655.87-3.714.552-4.988-.806l-3.714-3.82-6.706-4.923c-1.868-1.38-2.292-4.032-.913-5.92l2.696-3.714v-1.549l-10.103-38.027c-.106-.36-.148-.721-.148-1.082V98.339l-8.787-36.817-.7.34c-1.083.53-2.335.572-3.417.126-1.146-.445-2.016-1.358-2.42-2.482l-5.539-15.236-3.205-19.65-9.614-24.637-44.017 13.347-13.69 16.807-4.88 10.122-1.91 8.679c-.15.679-.447 1.316-.935 1.825l-8.256 9.422v1.57l4.563 4.88c1.231 1.295 1.486 3.205.68 4.797l-1.295 2.525 4.223 6.048c.658.976.892 2.164.637 3.31l-1.443 6.748c-.276 1.316-1.167 2.42-2.377 2.97l-5.2 2.378-9.741 12.435c-.467.615-1.125 1.082-1.847 1.337l-11.29 4.35-19.717 2.97-21.945 1.189-8.405 4.562-10.442 6.982 8.362 12.435c.425.7.68 1.528.68 2.355v3.544c0 .87-.276 1.74-.764 2.44l-6.728 9.55L.89 183.432l1.167 3.778 147.566-36.648c.87-.212 1.783-.148 2.569.17l12.288 4.86c.912.36 1.655.997 2.122 1.824l8.086 13.985h5.667c.403 0 .785.063 1.21.17l1.74.487s0 .022.021.022h.021l32.027 9.697c1.464.446 2.568 1.613 2.907 3.098l2.377 10.165 1.061.828v.02l5.476 4.33h.68l35.209-21.178-15.536 6.642-13.328 7.066z"/>
</svg>
