<?xml version="1.0" encoding="utf-8"?>
<!-- Generator: Adobe Illustrator 21.0.0, SVG Export Plug-In . SVG Version: 6.00 Build 0)  -->
<svg version="1.1" id="Layer_1" xmlns="http://www.w3.org/2000/svg" xmlns:xlink="http://www.w3.org/1999/xlink" x="0px" y="0px"
	 viewBox="0 0 432 432" style="enable-background:new 0 0 432 432;" xml:space="preserve">
<style type="text/css">
	.st0{fill:#050505;}
	.st1{fill:none;stroke:#000000;stroke-width:0;stroke-linecap:round;stroke-linejoin:round;}
	.st2{fill:#050505;stroke:#050505;stroke-width:8.239910e-03;}
</style>
<path opacity="0.15" fill="#FFFFFF" d="M314.4,336.3L314.4,336.3l4.9-8.9v-0.5l-3.5-5.4l10.4-7.4v-0.5l-3.5-5.4l0.5-45.9c0,0,0,0,0-0.5c0,0,0,0-0.5,0
	h-1l8.9-44.4l0,0l-2-5.4l-1-45.4l0,0l-3.5-4.9c0,0,0,0-0.5,0c0,0,0,0-0.5,0l-4.4,3.5l-0.5-3.5l2-6.4l0,0l-4.4-19.2l2-9.4l2.5-3.5
	c0,0,0,0,0-0.5l-1-6.9l1.5-5.4c0,0,0,0,0-0.5l-4.4-9.9l1-10.4l0,0l-2-3.9l1.5-3.5l0,0l-1-4.9c0,0,0-0.5-0.5-0.5l-72.5,4.4l0,0
	l-27.6,22.2l0,0l-7.9,18.7l-16.3,11.8l0,0l-3,3.5c0,0,0,0,0,0.5l1,4.4c0,0,0,0.5,0.5,0.5l0,0h5.9l2.5,2.5v3.5l-2.5,2l-3-0.5h-0.5
	l-1,2l0,0l0.5,2.5l0,0l3.9,4.9l2,7.9l-1.5,5.4l-13.8,3l0,0l-13.3,10.8l-7.9,3.5l-16.8,1l-3-0.5l0,0l-8.9,3l-6.9-5.4l0,0l-14.8-2l0,0
	l-45.9,10.4l0,0c0,0,0,0,0,0.5l8.4,24.7l-10.4,9.9l0,0l-3,4.9l-3,2l-3,0.5l0,0l-22.7,18.2c0,0,0,0,0,0.5v16.8c0,0,0,0,0,0.5
	c0,0,0,0,0.5,0l202.6-4.9l5.4,2.5l1,4.9c0,0,0,0,0.5,0.5l7.9,2.5l-1,2c0,0,0,0,0,0.5l0,0l2,0.5v10.4l0,0l4.4,7.9l0,0l11.3,3l2,3.5
	l0,0l39,21.7l-4.9,17.8v0.5l0,0h0.5l6.9-11.3L314.4,336.3z M400.6,319l-9.9-0.5l0,0l-6.9,3.9l0,0l-3.9,3.9l-4.9,1l0.5-2l9.9-10.4
	l0,0l2-3.9v-0.5h-0.5l-16.3,13.8l-41.4,8.4l0,0l-14.3,7.4l0,0l-2.5,4.4l-3.9,2c0,0,0,0,0,0.5l-0.5,6.4l0,0l0.5,1c0,0,0,0,0.5,0
	c0,0,0.5,0,0.5-0.5l0.5-2.5l3-1l0.5,3c0,0,0,0.5,0.5,0.5l3.5,1l0,0l0,0l83.3-34.5C400.6,320,400.6,319.5,400.6,319
	C400.6,319.5,400.6,319,400.6,319z"/>
</svg>
