<?xml version="1.0" encoding="utf-8"?>
<!-- Generator: Adobe Illustrator 21.0.0, SVG Export Plug-In . SVG Version: 6.00 Build 0)  -->
<svg version="1.1" id="Layer_1" xmlns="http://www.w3.org/2000/svg" xmlns:xlink="http://www.w3.org/1999/xlink" x="0px" y="0px"
	 viewBox="0 0 432 432" style="enable-background:new 0 0 432 432;" xml:space="preserve">
<style type="text/css">
	.st0{fill:#050505;}
	.st1{fill:none;stroke:#000000;stroke-width:0;stroke-linecap:round;stroke-linejoin:round;}
	.st2{fill:#050505;stroke:#050505;stroke-width:8.239910e-03;}
</style>
<path opacity="0.15" fill="#FFFFFF" d="M301.4,338L301.4,338l-0.7,1.9l-0.7,2.6h-1.5l-0.4-2.6l1.9-1.9l0.4-1.1l-1.1-0.7l0.4-1.5l-1.5-0.4l-5.2-4.5
	l-1.9,0.4l-0.4-0.4c0,1.9,0,2.6-1.1,4.1l0.4,1.1c1.5,0.4,2.2,1.1,1.9,2.2l-1.1,0.4l-1.9-1.1c-2.2,0-4.1,0.4-5.2,2.2c0-1.1,0-1.9,0-3
	c1.1,0.4,4.5-2.6,4.1-3.7h0.4l0.4,0.7l0.4-0.4l-0.4-3.3l-1.5-1.1v-0.7l1.1,0.4c0.7,0,1.9-0.4,1.9-1.1c0.4,0.7,0.7,1.5,1.5,1.9
	c1.1-1.1,0.4-2.2,0.4-3.7s1.1-3.3,0.4-4.8c0.7-0.7,1.5-3.3,1.5-4.5c0-1.9-1.1-1.9-2.2-3c-0.4-0.4-0.4-1.1-0.7-1.5
	c-0.4-0.4-1.1-0.4-1.5-0.7c-1.1-1.1-1.5-3-3.3-3.3V306H285l0.4-0.7l0.4-0.4v-0.4c-1.1-0.4-1.1-1.1-1.1-2.2l-1.5,0.7l-0.7,2.2h-1.9
	l-1.9-4.1c0-3.3-1.5-6-1.1-9.3c0-1.5,1.5-2.2,1.9-3.3c0.4-1.5,0-3,0.4-4.5l-1.5-1.1c1.1-3,1.9-4.8,1.1-7.8l0.7-0.4
	c0-0.7,0-1.5-0.4-2.2l-1.5-1.5L267.9,48.6l-1.5,0.7c-0.7,0.7-1.1,1.9-0.4,3l-0.7,0.4c-0.7,1.5-1.1,2.6-2.2,4.1
	c-2.6-1.1-5.6,0.4-8.2-1.1c-0.4-0.4-2.2-2.2-2.6-2.6c-0.7-1.1-0.4-2.6-1.9-3l-0.7-0.7l-4.5,3.3l-2.2,0.7l0.4,1.9
	c-1.1,0.4-1.9,1.5-2.6,2.2l-6,0.4v0.4l4.1,2.6l0.4,1.1c-1.1,1.9-1.9,4.1-3,5.6c-0.4,0.4-1.5,1.5-1.5,1.9c0,0.7,1.1,0.7,1.5,1.5
	c0.4,1.5-2.2,4.8-3.3,6c-1.5,1.9-2.2,2.6-3,4.8c2.2,0.4,0.4,3.3,0.4,4.5c1.1,0,2.2,0,3.3,0c-1.5,3-5.2-0.4-6.3,3.3
	c-0.4,1.5,0.4,1.5,0.7,3c0.4,1.1,0.4,1.9,0.7,3c0.4,1.5,1.1,2.2,1.5,3.7c0.7,2.6-3.3,5.2-4.1,6.3c-0.7,1.1-0.4,2.2-0.7,3.3
	c-0.4,0.7-0.4,1.1-1.1,1.9c-0.7,0.4-1.1,1.1-0.4,1.9c-0.4,1.5-0.4,1.9-1.1,3c-0.7,0.7-4.1,4.1-4.1,5.6c0,1.1,1.1,3,1.9,4.1
	c1.1,1.9,1.1,1.9,0.4,4.1c-1.1,2.6-0.7,3,1.9,3.3c0-1.5,1.1-2.2,2.2-1.9c0.4,2.2-0.4,3,0.7,4.5c0,0.4-0.4-0.4-0.4-0.4s0.7,3-0.7,4.1
	c0.4,0,0.7,0.4,1.1,0.4l-0.4,0.7l0.7-0.4l0.4,0.7h0.4l0.4,1.1l-1.1,0.7c0-0.4-0.4-0.7,0-0.4h-0.7l-0.4,1.5c-1.9,0.4-4.1,0.7-2.6,3
	c0.7,0.7,1.5,1.1,1.1,2.2c-0.7,0.4-1.9,0.4-2.2,0.4c-0.4,1.9-1.5,6-3.7,6.3V155c-1.1,0.4-1.1,1.1-0.4,1.9c-1.1,0.7-1.1,1.5-1.9,2.2
	c-0.7,1.1-3.7,3.7-6.3,4.8c-0.7,0-1.1,0.4-1.5,0.7c-0.4-0.4-1.1-0.4-1.5-0.4c-2.6,0.4-4.8,1.1-7.1,2.2c-1.9,1.1-1.5,1.5-1.5,3.3h1.5
	c-2.6,1.1-3.7,0.7-6.3,0.7c-2.6,0-5.2,1.1-7.4,2.2c-3.7,1.9-5.2,5.2-8.6,7.4l-1.5,1.1v1.9l2.6,1.5l-0.7,6.3l3,4.8
	c0,1.5,0.7,2.6,0.4,3.7c-0.4,1.5-1.9,1.5-0.7,3.3c0.4,0,0.4-0.4,0.7-0.4l0.7,0.4c0,0.7-0.4,1.5-1.1,1.5c0.4,0.4,0.7,0.7,0.7,1.1
	c-1.5,0-3.7,2.6-2.6,3.7c-2.2,0.7-0.4,3.7-3,3.7l0.4,1.5l-0.7-0.4c-1.9,1.1-0.7,4.1-1.1,5.6c0.7-0.4,1.5,0,1.9,0.7
	c-2.2,1.5-2.2,4.5-3.7,6.3c-0.7,1.1-2.6,2.2-3.3,3.7c0,0.4-0.4,0.4-0.7,0.7s0.4,1.1,0,1.5c0,0.4-1.1,0.7-1.5,1.1
	c-0.4,0.7-0.4,1.5-0.7,1.9c-0.7,1.1-1.5,2.2-2.2,3.3c-0.7,1.5-0.4,1.1-1.5,2.6c-0.7,0.7-1.5,1.5-2.2,1.9c-0.4,1.5,1.5,3.3,0.7,4.5
	c-0.4,0.7-1.9,1.5-2.6,1.9c-2.2,1.9-3,3.7-3,6.3c-0.4,2.6-0.7,3.7-1.9,6c-0.7,1.1,0,4.5-1.1,5.6l-3.3,1.9l-0.4,0.7l-0.4,4.1
	l-1.5,3.7c1.1,1.9,1.5,2.6,1.1,4.8c-0.4,1.5-0.4,3-0.7,4.5c-0.7,4.1-2.2,7.8-2.2,11.5l1.1,2.2l0,0.4v0.7l1.1,1.9
	c-0.4,1.5-1.1,3-1.9,4.5c-0.7,1.1-1.9,1.9-2.2,3c-0.4,1.1,0,2.6,0,3.7c0,1.5,0,2.6-1.1,3.7c0.7,1.9-0.7,4.1-0.4,6
	c0.4,1.1,1.5,2.2,1.5,3.7c0,0.7-0.4,2.2-0.4,3c0,1.1,0,1.5-0.4,2.6c-0.7,1.1-1.9,1.5-1.9,2.6c0,0,0.4,3,0.4,3.3
	c0.4,1.1,1.5,1.5,1.5,2.6l-7.4,1.9v1.5l2.2,1.1l-4.5,2.2l0.4,0.7c0.4,1.9,1.1,3.7,0.4,6c-0.7,1.5-2.2,2.6-2.2,4.5
	c0,4.1,1.5,8.2,4.1,10.8v2.2l1.9-0.7c1.5,0.7,1.5,2.2,1.9,3.3l1.1,2.2l109,4.8l3.3-4.8c1.1-1.1,1.9-1.1,3.3-1.5l3.7,1.1l-0.4-6.7
	c1.9-1.9,3-2.6,5.2-4.1l6.3,1.9l1.9-5.2c1.9-2.2,4.5-1.9,7.1-2.6c2.6-0.7,4.5-3.3,7.4-1.9l4.1,2.6l3-1.5l0.4-2.6h-0.4l-0.7,0.7
	c-0.4,0-0.7-0.4-1.1-0.7l1.1-1.1l-1.1-1.1h0.7l1.5,1.9l0.4-1.5l1.1-0.7c0-2.6,0.7-3.3,2.2-5.6l1.1-3.7l0.7,1.9l-0.4,1.9h0.4l0.4-3.3
	c0.7-2.6,1.5-5.2,1.5-7.8V338z"/>
</svg>
