<?xml version="1.0" encoding="utf-8"?>
<!-- Generator: Adobe Illustrator 21.0.0, SVG Export Plug-In . SVG Version: 6.00 Build 0)  -->
<svg version="1.1" id="Layer_1" xmlns="http://www.w3.org/2000/svg" xmlns:xlink="http://www.w3.org/1999/xlink" x="0px" y="0px"
	 viewBox="0 0 432 432" style="enable-background:new 0 0 432 432;" xml:space="preserve">
<style type="text/css">
	.st0{fill:#050505;}
	.st1{fill:none;stroke:#000000;stroke-width:0;stroke-linecap:round;stroke-linejoin:round;}
	.st2{fill:#050505;stroke:#050505;stroke-width:8.239910e-03;}
</style>
<g>
	<path opacity="0.15" fill="#FFFFFF" d="M184.5,372.4c0.5,1.2,1,2.5,1.5,3.7c-25.6,0.4-51.3,0.3-76.9,0.3c-2.1,0-6.3-0.9-8,0.6
		c-1.9,1.7-0.8,6.9-0.8,9.1c0,6.9-0.1,13.7-0.2,20.6c-13.2,0-26.9-0.9-40,0.1c0.4-78,0.1-156.1,0.1-234.1c0-39.3,0-78.6,0-117.9
		c0-9.1-0.1-18.2,0.2-27.3c0.1-3.2,1.1-2.1,3.9-2.1c1.9,0,3.8,0,5.7,0c5.5,0,11.1,0,16.6,0c19.7,0,39.5,0,59.2,0
		c39.5,0,79,0,118.5,0c19.7,0,39.5,0,59.2,0c9.5,0,19,0,28.4,0c4.3,0,8.6,0,12.9,0c2,0,4.1,0,6.1,0c0,3.1,0,6.3,0.1,9.4
		c0,6.7,2.3,18.8-1.3,23.9c-1.7,2.4-0.5,8.2-0.5,10.9c0,5.4,0,10.8,0,16.2c0,18.8,0,37.7,0,56.5c0,38,0.1,76,0.1,114.1
		c0,25.2,0.1,50.5,0,75.7c0,5.8,0,11.7-0.1,17.5c-0.1,3-0.1,6-0.2,9c0.7,2.2-0.1,3-2.3,2.3c-1.5,0-3,0.1-4.6,0.1
		c-13.3,0.3-26.6,0.1-39.9,0.1c-25.9,0-51.8,0-77.7,0c-13.3,0-26.7,0-40,0c-6.1,0-12.1-0.2-18.2,0
		C179.2,361.3,183.8,368.5,184.5,372.4C185,373.7,184.4,371.8,184.5,372.4z"/>
</g>
</svg>
