<svg xmlns="http://www.w3.org/2000/svg" width="56" height="123" viewBox="0 0 56 123">
    <path opacity=".15" fill="#FFF" fill-rule="evenodd" d="M.874 53.552l1.868 4.604c.233.51.34 1.061.34 1.613v14.748c0 .446-.065.891-.213 1.316l-1.55 4.817v16.233l2.675 8.68 2.78 16.509 30.307-8.976 17.891-16.743.297-.997c-.509 0-.933-.213-1.379-.382-.255-.085-.51-.085-.743-.213-.615-.382-1.167-.89-1.528-1.57l-4.054-7.087-6.197-5.794c-.615-.573-1.061-1.315-1.21-2.164l-2.61-11.46L13.056.544l-1.188.891L9.915 7.25l-.573 3.48c-.021.021 0 .064 0 .085l-1.91 11.31 4.266 5.963c.785 1.104 1.019 2.504.573 3.777l-2.038 6.282c-.148.466-.382.89-.679 1.294L2.19 49.01.874 53.552z"/>
</svg>
