<svg xmlns="http://www.w3.org/2000/svg" width="325" height="151" viewBox="0 0 325 151">
    <path opacity=".15" fill="#FFF" fill-rule="evenodd" d="M91.701 48.001l-1.082 12.414c-.085.934-.446 1.804-1.104 2.504l-5.454 5.963-2.95 6.897c-.531 1.23-1.613 2.143-2.93 2.44l-7.279 1.825-7.683 7.406c-.594.615-1.4 1.019-2.25 1.146l-7.406 1.146-3.481 6.069c-.255.446-.552.849-.976 1.167l-21.648 17.868c-.573.466-1.295.785-1.974.912l-8.68 1.464-4.776 3.841L8.336 131.1c-.383 1.104-1.231 1.974-2.271 2.44l-4.86 2.101-.552 1.061v2.59l10.993-2.017 12.968-3.756c.382-.106.785-.17 1.188-.17h15.175l5.688-3.586 21.372-11.522c.382-.212.828-.361 1.252-.446l21.69-3.883 27.379-2.504 8.383-.021c.467 0 .891.063 1.337.212l8.129 2.674c1.146.382 2.08 1.23 2.568 2.355l1.888 4.414 22.455-2.759 20.12-3.926c.275-.042.551-.084.827-.084.87 0 1.72.275 2.441.785l51.063 35.862 8.044-4.71 10.994-4.372 4.669-7.045 4.52-12.945c.234-.573.552-1.082.956-1.528l12.988-13.39c.276-.276.595-.53.934-.721l11.079-6.43 10.208-3.904 7.131-6.006v-4.095l-.721-.488-2.398 1.21c-2.144 1.018-4.648.211-5.71-1.868l-1.167-2.27c-.573-1.125-.615-2.441-.106-3.587l1.974-4.711v-4.817l-2.25-2.886c-1.146-1.422-1.23-3.374-.276-4.902l2.292-3.607c.786-1.231 2.123-1.974 3.587-1.974h3.438c.722 0 1.443.191 2.08.552l4.351 2.483 2.313-.552 4.266-5.814 3.608-9.146-.021-5.496-.637 1.867c-.382 1.061-1.146 1.952-2.164 2.44-1.02.488-2.187.552-3.226.213l-3.078-1.04c-.891-.319-1.655-.892-2.165-1.698l-1.103-1.655-3.523 1.676-9.615 3.162c-.827.297-1.74.276-2.589 0l-5.773-1.825c-1.761-.552-2.95-2.207-2.95-4.032v-4.371c0-1.867 1.21-3.544 3.035-4.074l6.41-1.889 8.34-5.75 7.874-3.587-.34-2.843-2.44-4.096c-.276-.446-.467-.955-.552-1.485L308.52.723l-134.556 31.66-82.262 15.618z"/>
</svg>
