<?xml version="1.0" encoding="utf-8"?>
<!-- Generator: Adobe Illustrator 21.0.0, SVG Export Plug-In . SVG Version: 6.00 Build 0)  -->
<svg version="1.1" id="Layer_1" xmlns="http://www.w3.org/2000/svg" xmlns:xlink="http://www.w3.org/1999/xlink" x="0px" y="0px"
	 viewBox="0 0 432 432" style="enable-background:new 0 0 432 432;" xml:space="preserve">
<style type="text/css">
	.st0{fill:#050505;}
	.st1{fill:none;stroke:#000000;stroke-width:0;stroke-linecap:round;stroke-linejoin:round;}
	.st2{fill:#050505;stroke:#050505;stroke-width:8.239910e-03;}
</style>
<path opacity="0.15" fill="#FFFFFF" d="M217.8,138.6c86,0,163.9-2.4,163.9-2.4l-0.4,2.4c1.6,2,4,8,2.8,10.4c0.8,0,2,0.4,0.8,0.8c1.6-0.4,1.6,4.4,2,5.2
	c0.4,0.8,1.2,1.2,1.6,2c0.4,1.6-0.8,3.2-0.4,4.4c-0.8,0-0.8,0-0.4,0.8c-0.4,0-0.8,0.4-1.2,0.8c0.8,0.4,0.4,2-0.4,2
	c2.4,1.6-3.2,0.4,0.8,1.6c-0.4,0-0.8,0-1.2,0.4c0.4,0.4,0.8,0.4,1.2,0.8c0,0.4-0.8,1.6,0.8,1.2c-1.6,0.8-1.2,0.8,0,2
	c-1.6,0.4-1.2,0.8,0.4,1.2c-1.6,0.4,0.8,1.6-0.8,2.4c1.2-0.4,0,0.8,1.2,1.6c-1.2,0-1.2,1.2-1.6,2.4c0.4,0.4,0.8,0.4,1.2,0
	c-0.8,0.8-1.2,3.6,0.8,4c-2,1.6,1.2,0.8-0.8,2.4c1.2,0.4,0.4,1.2-0.4,1.6c2,0.4,0,1.2,0,2c0,0.4,0.8,1.2,1.2,1.2
	c-0.4,0-0.8,0-1.2,0.4c0.8,0,0.8,0,1.6,0.8c-1.2-0.4-1.2,1.2-1.2,1.6c0.4,2,1.6,0.8,0,2.8c1.2,0,1.6,2.4,2,3.2c0.8,2,2,3.6,2.4,5.6
	c0.4,2.4,0.8,4,1.6,6s2,4.4,2,6.4c0,0.8,0,1.2,0,1.6c0.4,0.8,1.2,1.6,1.6,2c1.2,1.6,1.6,3.6,2.4,5.6c0.8,2,2,4,2.4,6
	c0.4,1.2-0.4,2.4,0.4,2.4c-0.4,0.8-0.4,1.2,0.4,1.6c-1.2-0.8-1.2,1.2,0,1.2c-0.8,0.4-0.4,2-0.8,2.4c1.6,0,0,3.6,0.4,4.4
	c0,0.4,0.4,1.2,0.8,1.6c0,0.4,0.4,0.8,0.4,1.2c0.4,0.4,0,0.4-0.4,0.8c0,0.8,0.4,0.4,0.4,1.2c0,0.8,0-0.4,0,0.8c0,0.8,0,2.4,0,3.6
	c0,0.8,0.8,2,0.8,3.2c0,0-0.4,0.4-0.4,0.8s1.2,1.6,0,2c1.6,0.4,0.4,2,0.8,2.4c0,0.4,0.8,2,0,2.4c2,0.8-0.4,5.2,1.6,5.6
	c-0.4,0.4-0.8,1.2-0.8,2c0,1.2,0.4,0,0.4,1.2c0,0.8,0,2.4,1.2,2c-0.4,1.2,0.4,3.6,1.6,2c0,0.8,0,2.8,0,3.6c0,0.8-0.8,2-0.8,2.8
	c0,0.8-0.4,1.6-0.4,2.8c0,0.8,0.8,1.6,0.8,2c0.4,0.8,0,2,0,3.2c0,1.6-0.8,4.8-0.4,6.4c0,0.4,1.2,1.6,1.6,2.4c0.4,0.8,0.4,2,0.8,3.2
	c0.4,3.2,2.4,6,2.4,8.8c0.8,0,4.8,6,5.2,6.8c0.8,2.4,0.4,4.4,0.8,6.8c0,2.4,1.2,4.8,2,7.6c0.4,1.6,0,2.8-0.4,4.4
	c-0.4,2.4,0.4,4,1.2,6.4v0.8c0,0-100.1,2.8-197.3,2.8s-164.3-4-164.3-4l5.6-135l2.4-74.3C68.8,135,131.8,138.6,217.8,138.6z"/>
</svg>
