<?xml version="1.0" encoding="utf-8"?>
<!-- Generator: Adobe Illustrator 21.0.0, SVG Export Plug-In . SVG Version: 6.00 Build 0)  -->
<svg version="1.1" id="Layer_1" xmlns="http://www.w3.org/2000/svg" xmlns:xlink="http://www.w3.org/1999/xlink" x="0px" y="0px"
	 viewBox="0 0 432 432" style="enable-background:new 0 0 432 432;" xml:space="preserve">
<style type="text/css">
	.st0{fill:#050505;}
	.st1{fill:none;stroke:#000000;stroke-width:0;stroke-linecap:round;stroke-linejoin:round;}
	.st2{fill:#050505;stroke:#050505;stroke-width:8.239910e-03;}
</style>
<polygon opacity="0.15" fill="#FFFFFF" points="358.4,198.6 349,83.2 316.8,97.5 280.3,124.2 234.1,138.8 201.5,136.4 160.5,120.7 160.5,120.7 
	136.1,122.7 106.7,123.9 73.6,125.9 76.2,204 78.7,288.1 80.4,347.9 103.5,349 115.8,356.9 134.5,375.6 149.1,381 159.9,387.5 
	175.9,384.3 188,388.6 202.3,383.1 215,380.9 221.1,392.7 234.2,400.2 250.9,397 258.9,384.4 258.8,365.3 267,346 276.3,347.5 
	277.8,357 283.5,353.2 285,344.6 286.7,328.9 300.6,313 308.8,314.4 317.6,311.3 325,306.5 341.6,285.4 342,276.5 347,257.4 
	351.9,234.4 353.4,214.3 349.7,203.6 "/>
</svg>
