<svg xmlns="http://www.w3.org/2000/svg" width="155" height="173" viewBox="0 0 155 173">
    <path opacity=".15" fill="#FFF" fill-rule="evenodd" d="M22.563 32.52L.809 35.81l4.52 29.877 13.116 86.876 1.359.786H30.33c.89 0 1.761.275 2.44.806l4.542 3.247c.552.403.998.89 1.316 1.506l2.313 4.52 10.103 2.207 8.128 2.907 5.221-1.485c.382-.106.764-.17 1.146-.17h4.69c.892 0 1.783.297 2.505.828l2.462 1.825 1.592-.616 4.18-5.368c.425-.573 1.04-1.019 1.698-1.295l4.224-1.782c.51-.234 1.082-.34 1.613-.34.148 0 .233.127.36.127.998.085 1.974.404 2.717 1.146l8.384 8.616 4.902 2.992 1.804-.87 2.016-1.952 1.72-5.412v-11.628c0-.722.17-1.422.53-2.059l4.139-7.512c.764-1.358 2.186-2.207 3.735-2.207h2.653c.679 0 1.38.17 2.016.51l1.21.657.955-10.334c.085-.785.382-1.528.828-2.164l4.414-5.857c.403-.51.891-.934 1.464-1.23l6.643-3.396 6.856-6.472 6.43-9.189V64.393l-1.931-2.61c-.998-1.38-1.083-3.247-.191-4.711l2.228-3.692c.573-.955 1.486-1.634 2.568-1.91l-8.51-42.844-1.677-8.36-38.775 27.67c-.36.255-.764.446-1.189.573L80.97 35.958c-.616.19-1.316.212-1.91.148L62.23 33.56l-14.072-4.966-25.595 3.926z"/>
</svg>
