<?xml version="1.0" encoding="utf-8"?>
<!-- Generator: Adobe Illustrator 21.0.0, SVG Export Plug-In . SVG Version: 6.00 Build 0)  -->
<svg version="1.1" id="Layer_1" xmlns="http://www.w3.org/2000/svg" xmlns:xlink="http://www.w3.org/1999/xlink" x="0px" y="0px"
	 viewBox="0 0 432 432" style="enable-background:new 0 0 432 432;" xml:space="preserve">
<style type="text/css">
	.st0{fill:#050505;}
	.st1{fill:none;stroke:#000000;stroke-width:0;stroke-linecap:round;stroke-linejoin:round;}
	.st2{fill:#050505;stroke:#050505;stroke-width:8.239910e-03;}
</style>
<g>
	<path opacity="0.15" fill="#FFFFFF" d="M397.1,303.7c0.6-0.2-6.7-1-10.5-2.3c-3.9-1.4-8-4.6-11-7.4c-2.8-2.6-6.2-7.8-11.2-7.1
		c-3.7,0.5-7.8,6.3-12.2,2.2c-5.3,2.1-9.8,3.4-15.1,4.9c-3.2,0.9-4.8,2.2-7.5,4.3c-1.4,1.1-4.6,4.7-6.2,4.9c-1.7,0.2-1-1.2-2.1-1.5
		c-2.5-0.5-3.6-2.4-5.3-3c-1.8-0.7-4,0.1-5.6-0.9c-1.7-1.1-1.4-3.9-3.4-4.8c-2.3-1-3.3,1.6-5.8,0.9c0.7-5.1-7.2-6.3-10.5-3.6
		c-2.8,2.3-1.6,9.8-8.6,8c0.3-1.7-0.7-3.3-0.7-4.9c-2.9,1.5-6.9,6.6-10.2,4.2c5.2-5.8-3.8-9.7-8.7-8.5c-4.8,1.2-8.6,8.8-12.7,4.7
		c-2.3-2.3-0.8-5.1-2-7.6c-1.1-2.3-4.1-4.2-6.2-5.4c-5.8-3.4-10.6-2.7-12.1,4.3c-2.6-2.4-3.6-3.3-7-4.3c-2.7-0.8-7.2,0.4-9.3-0.5
		c-2.7-1.1-2.9-5-6-6.1c-2.9-1-10,1.8-12.4,3.4c0.2-0.1,1.2-0.5,1.4-0.6c-1.1-4.1,2.1-9.6-3.2-11.9c-3.1-1.3-8.3-0.5-12.1,0.4
		c-1.8,0.4-1.5,2.2-4.2,2.1c-0.5,0-4.6-2-5.1-2.5c-2.8-2.7-5-7.7-7.6-11.1l0.5-99.4c0.2,0.2-125.1-3.8-125.1-3.8
		c0.5,0.3,0.2-22.7,0-22.4l345.7,1.6c0.8,6.5-1.6,12.6,0.1,19.5c1.5,5.8,3.3,12.9,4.1,19.2c1.1,8.8,1.5,15.9,4.6,24.2
		c2.4,6.5,2.9,11.7,3.2,18.7c-0.2-0.5-0.6-0.8-1.2-0.8L397.1,303.7z"/>
</g>
</svg>
