<svg xmlns="http://www.w3.org/2000/svg" width="331" height="161" viewBox="0 0 331 161">
    <path opacity=".15" fill="#FFF" fill-rule="evenodd" d="M115.518 28.181l1.189 89.932 7.3 4.18 6.431 1.74 7.386-1.04c1.528-.127 3.099.446 4.011 1.698l5.115 6.96 8.15 4.818 19.908 3.48 9.02-2.313c1.634-.403 3.353.148 4.393 1.464l9.232 11.714 1.486-.552 3.82-2.759c1.889-1.315 4.542-.849 5.9 1.104l1.952 2.843 14.666 4.117 7.3-3.056c.68-.276 1.423-.382 2.144-.297l11.694 1.422 11.61 4.329h4.096l8.065-4.562c.445-.213.827-.382 1.273-.446l12.394-2.483c.637-.106 1.253-.106 1.89.043l7.894 1.994 4.967-1.23 4.138-2.42c1.061-.615 2.356-.764 3.566-.34l11.524 4.075c.785.276 1.443.764 1.931 1.422l3.884 5.03 6.643 1.294v-32.319l-2.377-46.855-6.685-52.371-.021-.297v-.022l-.955-19.459H125.515l-91.75-5.602h-.126L.827.361v17.295l110.659 6.345c2.25.106 3.99 1.952 4.032 4.18"/>
</svg>
