<svg xmlns="http://www.w3.org/2000/svg" width="277" height="254" viewBox="0 0 277 254">
    <path opacity=".15" fill="#FFF" fill-rule="evenodd" d="M127.65 226.656l91.982 27.374 20.438-80.128 7.259-17.782-1.401-2.886-4.393-3.947c-1.168-1.04-1.656-2.632-1.316-4.138l1.804-7.725c.148-.615.424-1.188.828-1.676l9.168-11.416c.488-.616 1.146-1.083 1.868-1.337l5.115-1.847 7.11-13.814 10.887-15.979v-7.788l-5.009-8.233c-.276-.467-.467-.976-.552-1.507l-.275-1.613-62.843-16.34-69.422-5.071c-.785-.042-1.507-.318-2.143-.764l-9.275-6.578-27.166-2.016c-.637-.043-1.252-.234-1.804-.552l-7.152-4.095c-.658-.382-1.231-.934-1.592-1.613l-3.63-6.515c-.424-.764-.593-1.655-.508-2.525L87.41 9.551 84.524 3.97 80.98 2.378 74.782.723l-3.862.955-2.292 3.862-4.924 20.647L50.65 51.652l-23.727 58.25-3.545 11.437c-.318.977-.955 1.804-1.825 2.335l-6.6 4.032L5.7 145.382.394 167.26.5 183.303l127.15 43.353z"/>
</svg>
