<?xml version="1.0" encoding="utf-8"?>
<!-- Generator: Adobe Illustrator 21.0.0, SVG Export Plug-In . SVG Version: 6.00 Build 0)  -->
<svg version="1.1" id="Layer_1" xmlns="http://www.w3.org/2000/svg" xmlns:xlink="http://www.w3.org/1999/xlink" x="0px" y="0px"
	 viewBox="0 0 432 432" style="enable-background:new 0 0 432 432;" xml:space="preserve">
<style type="text/css">
	.st0{fill:#050505;}
	.st1{fill:none;stroke:#000000;stroke-width:0;stroke-linecap:round;stroke-linejoin:round;}
	.st2{fill:#050505;stroke:#050505;stroke-width:8.239910e-03;}
</style>
<path opacity="0.15" fill="#FFFFFF" d="M369.6,133.3c-1.7-2-2-5.5-4.1-6.5c-1-0.3-2,0-2.4-1c-1-0.7-1-1.7-2.4-1.7c-1,0-1.4,0.7-2.4,0
	c-0.7-0.3-0.7-1.7-1.4-2.4c-1-1.4-3.4-3.4-3.1-5.1l-1-1l-76.9,2l-1.4,1.7c-1.7,1-2.7,1.7-4.4,2c-2,0.3-3.4-0.3-5.5,0
	c-2.7,0.3-6.1,2-8.9,1c-3.1-1-3.1,2.4-6.1,3.1c-3.1,1-6.8,1-9.9,2c-2.4,0.7-5.8,2.4-7.9,3.8c-2.4,1.7-5.5,2.4-7.9,2.4
	c-1,0.3-2.4,0.3-3.8-0.3c-1-0.7-1.7-1.7-2.4-2c-1.7-0.3-2.4,0.3-3.4,1c-2,1.4-4.1,2-6.5,2.7c-2,1.7-3.1,1-5.5,1c-1,0-2.4,0-3.1,0.3
	c-1,0.7-1.4,1.7-2.4,2c-2.4,1-1.7-2.4-3.1-3.1c-1.7-1.4-3.8-1.7-5.8-1.7c-2.4,0-3.4-1.4-5.8-1.7s-4.8,1.4-6.8,1.7
	c-2.7,0-4.1-1.4-6.8,1c-2.4,2-3.8,3.1-6.8,4.4c-1.7,0.3-3.4,0.7-4.8,2c0,0,0.3-0.7,0.3-1c-1.4,1-3.1,2-4.8,1.7c-1-0.3-1-1-2.4-1.4
	c-1-0.3-1.7,0-2.4,0c-1.7,0.3-2.7,0-4.4-1c-2-1.4-2.4-1.4-4.8-1.7c-1-0.7-2.4-1.7-2.7-2.4c-0.3,0.3-0.7,0.7-0.7,1c0,0,0,1,0,1.7
	c-1.4-1.7,0.3-2,0.7-3.1s-0.3-2.4-0.3-3.1c0.3-1.7,0.3-2-0.3-3.4s-0.3-2,0-3.4c-0.3,0.7-0.7,0.7-1,1.4c0,0,0-0.3,0.3-0.3
	c-1,0.7-1.4,2-2.4,2.4c0.3-0.7,1-2,1.7-2c0,0-0.3,0-0.3-0.3c1,0,1.4-0.3,1-1c0.7-0.3-0.7-2.7-0.3-3.8h-0.3c0-2.4-1.4-3.1-2-5.1
	c-1-2.4-1-3.1-3.1-4.4c-0.7-0.3-1.7-0.7-2.4-1.4c-0.7-0.3-1-1.4-1.7-1.7c-1-0.7-1.7-0.3-2.4-0.7c-1.7-0.3-1-1-2.4,0.3
	c-1,2.4-6.1,1.4-7.5-0.3c0-1.4-1.7-4.8-3.1-4.8c-0.3,0-1.4,0-1,0.7h0.3c-0.3,0.7-1.4,1.7-2,2c-0.3,0.3-0.3,0.3-1,0.7
	c-0.7,0.3-1,0.7-1.7,0.7c-0.7-0.3-5.1,0-3.8-2.4c-1.4,1.7-2.4,0.7-3.8,1.4c0.7,1,2,0.7,2,2c0.7-0.3,1,0,1,0.7c-2-2.4,0,2,0,2.4
	c-0.3-0.7-1-1-1.4-1.4c-0.3-0.7-0.3-2-0.3-2.4c-0.7,0.3-1,0.7-1.7,1.4c0.3-0.7,0.3-1.4-0.3-1.7c-0.7,0-1-0.3-1-1
	c-0.3,0.7-0.3,0.7-0.7,1c0.3-0.3,0.3-0.7,0.7-1c-0.3,0-0.7,0-0.7,0.3c0.3-1-1-2.4-1.7-1.4V105c-0.7,0.3-1-0.3-1.4-1c0,0,1,0,0.7,0
	l-1.4,0.3l2.4,6.1c0.3,2,0.3,3.4,0.7,5.5c0.7,0,0.3,0.7,0,1.4c0-0.3,0-0.7,0-1c-0.7,2-1,1.7-2,2.7c-0.7,1-0.7,0-0.3,1.4
	c0,0.7,0.3,1.4,1,1.7c-1,1.4-0.7,4.8-0.7,6.5c-1,1-0.3,1.4,0.3,2.4c0.7,1.4,0.7,2.4,0.7,4.4c0.3-0.3,1-4.1,2-2c0-0.3,0-0.7,0-1
	c0,0,0,0,0.3,0c0,0.7,0,1,0,1.7c-1.7,0-1,0-1.7,0.7c-0.3,0.3-0.7,1.4-0.7,1.7c-0.3,0.7-0.7,2.4-0.7,3.1c0,0.7,0.7,1,1.4,1.4
	c0.3,0,0.7,0,1-0.3c-1.7,0.7,0.3,1.7,0,2.7c0.3,0.3,0.7,0.7,1.4,0.3c-0.7,0.3-1.4,1-1.4,1.7c-0.7-0.7-1.4-2-2.4-2v-1l-0.3,1.4
	c-1.4,0.7,0,2.4,0.7,3.1c0.7,1.7,0.3,2-0.7,3.1c0-0.7,0-2,0.7-2.4c0-0.3-0.3-0.7-0.3-0.7c-0.3,2.4,0,3.4-2,4.8
	c2,0.3,1.7,1.4,1.7,3.4c0.3-0.7,0.3-0.7,1-1c0,0.7-0.7,1.7-1.4,1.7c-0.7,2.4-0.3,3.1-0.7,5.5c1-1,0-1.7,0.7-2.4c0,1,1,2,0.7,2.4
	c0-0.3-0.3-0.7-0.3-1c0,0.7-0.7,1-1,1.7c-0.3,1-0.3,2-0.7,2.7c-0.3,0.7-1,1-1,2s1,1,1.7,1.7c-0.3-0.3-1-0.7-1.4-1l-0.7,6.1
	c0.3,0.7,1.4,1.7,0,2c0-0.7,0-1,0-1.7c-1.7,2.4-2.7,5.1-2.7,6.8c-0.3,2.4,1.4,4.4-0.3,6.5c1,0.7,0.3,2,0.3,2.7
	c0.3-0.3,1.4-0.7,2-0.3c1,0.7,0,1,0,1.7c0.3,0.7-0.3,1,1,1c0.7,0,1,0,1.4-0.3c-0.3,1-1.4,1-2.4,0.3s-0.3-0.7-0.7-1.7
	c-0.3,0.3-0.7,0.3-1,0.7c0.3-0.3,0.3-0.7,0.7-1c-2.4-1.4-2,2-2.4,3.8c-0.3,2.4-0.3,4.1-0.3,6.5c1-0.7,1.4-1.4,2.4-1
	c-0.3,1,0,1.7,1,1.7c-1,0-0.7-0.3-1.4,0.3c0.3-0.3-0.3-0.7-0.3-1.4c0,0.3-0.3,0.7-0.3,0.7c0-0.3,0-0.7,0-1c-1.7,0.7-1.4,3.4-1.7,5.1
	c-1.4,1.7-0.7,4.4-1,6.1c-0.3,2.4-1,4.4-0.7,6.8l-0.7,4.4l0.3,0.3c0.3-0.7,0,1.7,0,2c0.7,1,2,0,2.4-0.7c0.7,0.7-0.3,0.7-0.3,1
	c0,0.3,2.4-1,2-0.3c-0.7,0.3-1.4,0.7-1.7,1.7c-0.3-1.4-1.7,0-2.4-0.7c-0.7-0.3-0.3-2-0.7-2.7c-0.3,1.7-2,6.5-0.7,7.5
	c-1,0.7-1,2.7-1,3.8c-0.3,2.4-1,4.4-1.7,6.8c0.7-0.3,1.4-1,1.7-1.7c0.3-1-0.3-2,1-2.4c1.7-0.3,0.7,2.7,2.4,1.4
	c-1.4,1.7,2.4,1.4,3.1,1.4c1,0.3,2.7,1,2.7,2.4c-1.4-3.4-7.9,0-8.2-4.1c-0.7,0.7-0.7,1.4-1,2c-0.3,0.3-1.4,1-1.7,1.4
	c-1.4,1.7-1.4,3.8-2,6.1c-1,3.8-2.4,7.2-4.4,10.9c0.3,0,3.1-3.4,3.4-3.8c0,0,0.3,0,0.3,0.3c0-0.3,0.3-1,0.3-1.4c0.7,0.3,1,0,1.4-0.7
	c0,0.7-0.7,1.4-1,2c0.3,0.3,1,0.7,1.4,0.7c-1,1.4,0.7,2,0.7,3.1c-0.3-0.3-0.3-0.3-0.7-0.7c-2.4,1.7,0-3.1-2.4-2.4
	c-1,0.3-3.1,3.4-3.1,4.4c0.7-0.3,0.7,0,1.4,0v0.3c-1-0.7-1.4,0-1.4,0.7c0.3,0.7,0.3,1.4,0.3,2c0-0.3-0.3-1-0.3-1.4
	c0,0.3-0.3,1-0.3,1.4c0-0.7,0-1.4,0-2c0,0-0.3,0-0.3,0.3c1-1.7,0-2.4-1.4-1.4c-1.7,1.4-1.4,2.4-0.7,3.8c0,3.8-1.4,8.9-2.4,13.7
	c-0.7,2.4-2,7.2-4.4,8.2c2,1.4,1.7,3.8,2,5.8c1.4-1.7,4.1,5.8,4.1,6.8c0.3,2.4-1,4.8-1.4,6.8c-0.3,1.7,0,3.4,1.7,1.7
	c0,1-1,0.7-1.7,1.4c-1,1-0.7,2.4-0.7,3.4c0,2.4,0.3,4.4,1,6.8c1,2.4,1,4.1,1.7,6.5c0.3,1.4,1.4,3.8,2.7,3.8l3.4,0h282.2l-3.4-96.3
	l0.7-2.4c1-1,2.7-5.5,1-6.1c1-1,1.7-1.7,1.4-2.7c0-1-1.4-1.7-1.4-2.4c-0.3-1.7,2-2.4,2.4-4.1c0.7-2.4-1-1.7-2.4-2.7
	c-0.7-0.7-0.3-1.4-0.7-2c-0.7-1.4-1.7-0.7-2.7-0.7c-1.4,0-1.7-2.4-3.1-2c-0.7,0-0.7,1-1,1c-0.7,0-2-0.7-2.4-1.4c-0.7-1.4,0-1,0.3-2
	c0.3-1.7-0.3-1.4-1-2.4c-0.7-1.4-0.3-1.4,0-2.4c0.3-1.7,0-2.4,0-3.8c0.7,0,2-2,2.4-2.4c0.7-1,0.7-2.4,1-3.4c0.7-2.4,1.4-5.5,2.4-7.5
	c0.7-1,1.7-1.4,2.4-2c1.4-0.7,2-1.4,2.4-2.7c0.7-1.7,1.7-2.7,2.4-4.4c0.3-1,0-1.7,0-2.4s0.3-1.7,0.3-2.4c-1.4,1.7-0.7-1.7-0.3-2.4
	c0.7-1.7,2-3.1,2.7-4.4c2-3.8,2-7.2,3.1-11.3c0.7-2,1.7-3.4,2.4-5.1c0.3-0.7,1-1.7,1.4-2.4s0-1.7,0.3-2.4c0.3-1.4,1.4-2.4,2-3.8
	C370.9,135.7,370.9,135.4,369.6,133.3C368.9,132.6,369.9,133.7,369.6,133.3C368.2,131.3,369.9,133.7,369.6,133.3
	C368.2,131.3,369.9,133.7,369.6,133.3C368.2,131.3,369.9,133.7,369.6,133.3C368.2,131.3,369.9,133.7,369.6,133.3
	C368.2,131.3,369.9,133.7,369.6,133.3C368.2,131.3,369.9,133.7,369.6,133.3C368.2,131.3,369.9,133.7,369.6,133.3
	C368.2,131.3,369.9,133.7,369.6,133.3C368.2,131.3,369.9,133.7,369.6,133.3C368.2,131.3,369.9,133.7,369.6,133.3
	C368.2,131.3,369.9,133.7,369.6,133.3C368.2,131.3,369.9,133.7,369.6,133.3C368.2,131.3,369.9,133.7,369.6,133.3
	C368.2,131.3,369.9,133.7,369.6,133.3C368.2,131.3,369.9,133.7,369.6,133.3C368.2,131.3,369.9,133.7,369.6,133.3
	C368.2,131.3,369.9,133.7,369.6,133.3C368.2,131.3,369.9,133.7,369.6,133.3C368.2,131.3,369.9,133.7,369.6,133.3
	C368.2,131.3,369.9,133.7,369.6,133.3C368.2,131.3,369.9,133.7,369.6,133.3C368.2,131.3,369.9,133.7,369.6,133.3z"/>
</svg>
