<svg xmlns="http://www.w3.org/2000/svg" width="215" height="144" viewBox="0 0 215 144">
    <path opacity=".15" fill="#FFF" fill-rule="evenodd" d="M20.368 143.073l33.024-8.106 129.717-31.788 3.969-3.013 3.205-4.223c.806-1.04 2.08-1.676 3.374-1.676h4.606c.488 0 .997.084 1.464.254l1.083.403 7.173-7.363v-2.653c0-1.23.53-2.419 1.486-3.225l5.518-4.754-3.927-4.54-5.412-2.377c-.615-.276-1.167-.68-1.591-1.21l-6.452-7.958c-.297-.34-.488-.7-.658-1.103l-2.42-6.048c-.36-.87-.382-1.804-.148-2.695l1.74-6.387-1.825-4.732c-.36-.955-.36-2.016-.021-2.992l5.879-15.916h-3.99c-1.507 0-2.908-.827-3.672-2.143l-8.553-14.833-9.635-3.798L24.146 37.48c-2.271.488-4.436-.743-5.094-2.886l-1.4-4.669-6.198 3.672-11.1 9.082 1.104 5.623 18.91 94.77z"/>
</svg>
