<?xml version="1.0" encoding="utf-8"?>
<!-- Generator: Adobe Illustrator 21.0.0, SVG Export Plug-In . SVG Version: 6.00 Build 0)  -->
<svg version="1.1" id="Layer_1" xmlns="http://www.w3.org/2000/svg" xmlns:xlink="http://www.w3.org/1999/xlink" x="0px" y="0px"
	 viewBox="0 0 432 432" style="enable-background:new 0 0 432 432;" xml:space="preserve">
<style type="text/css">
	.st0{fill:#050505;}
	.st1{fill:none;stroke:#000000;stroke-width:0;stroke-linecap:round;stroke-linejoin:round;}
	.st2{fill:#050505;stroke:#050505;stroke-width:8.239910e-03;}
</style>
<path opacity="0.15" fill="#FFFFFF" d="M459.2,180.2l-0.6-0.9l-0.5-1.5l-0.4-0.7l-0.5-0.3l-0.8,0.2l-0.6,0.3l-0.7,0l-0.9-0.8l-1.3-0.8l-3.3,0.2
	l-1.6-0.4l-0.9-0.9l-0.7-1l-0.8-0.9l-3-0.8l-1.1-1l-0.9-1.4l-3.4-7.6l-0.8-0.9l-0.2-1l0.4-4.8v-1.9l-0.9-3.5l0.2-0.9l0.9-0.8
	l0.2-0.9l-0.3-2l-0.8-0.8l-1.2-0.4l-1.4-0.8l1.5-2l0.3-0.9l-0.8-0.4l-0.7-0.4l-1-1.7l-1.8-0.7l-1.5-1.3l-0.8-0.3l-3.7,0.6l-1.1-0.9
	l-0.4-2.1l-0.1-2.3l-0.4-1.7l-1.4-1l-2.1-1l-1.6-1.3l0-1.2c-98.8-0.1-197.6-0.2-296.3-0.2v-25l-8.5,3.6l-2.9,2.3l-2.8,0.9l-3,2.6
	l-2.9,1.1l-3.3,2.2l-1.6,0.5v-0.7l0.4-0.4l0.8-1.2l0.3-0.3l1.6,0l0.7-0.3l0.6-0.8l-1.5-0.7l-1.3,0.8l-1.1,1.2l-1.7,1.1l-0.9,2.1
	L94,114l-0.6,0.2l-1.9,1.7l-11.1,6.4l-4.2,0.9l-1,0.6l-1,0.9l-3.4,1.2c0,68.8,0,137.6,0,206.5c105.7,0,211.4,0,317.2,0l0.5,0
	l0.1-0.1c1.5-2.6,3.1-5.2,4.6-7.9l1.2-1.3l1.5-1l1.3-0.6l2.1-0.7l1.5-0.3l3-0.1l3.2,0.5l2.5,0.9l1.9,1.3l1.1,1l0.1,0.1l1.8-2.4
	l1-0.5l1.2-0.3l4.1-2.1l1.6,0.7l1.6-0.3l2.7-1.6l4-1.6l1-0.9l-0.4-1.9l0.4-2l0.9-1.6l1.2-0.7l1.5-0.4l2.2-2l1.5-0.7l2.3-1.1l0.9-0.6
	l2.6-3.1l1-0.7l2.5-0.8l0.7-0.3l2.3-2.2l0.6-0.3l1.7-0.3l2.2-0.7l1.9-1.3l0.8-1.8l-0.7-2l-1.7-1.9l-3.6-3.2l-2.1-2.7l-2.3-3.3
	l-0.2-0.5l-0.6-0.9L444,275l-0.9-3.5l-0.9-1.5l-2.6,1l-1.5-1.1l-1.2-1.8l-0.7-1.7l-0.5-7.1l-1.1-2.4l-3.4-1.1l-2,0.4l-0.9-0.4
	l-0.5-2.5l-0.3-1l-0.1-1l0.3-0.9l-0.2-2.9l0.1-0.9l0.2-0.7l-0.3-0.9l-0.2-1.1l0.3-1.2l0.9-2.6l-0.2-0.1l-0.3-0.7l-0.1-0.8l0.3-0.3
	l0.5-0.3l0.5-0.7l0.6-1.5l1.2,0.6l1.4-0.1l1.1-0.9l0.5-1.7l0.3-2.2l0.8-0.9l0.9-0.7l0.7-1.6l-0.2-1.7l-1-1.6l-1-1.2l-0.5-0.8
	l-0.1-0.5l-0.3-0.3l-0.4-0.1l-0.4,0l-0.2-0.1v-0.3l0.1-0.4l0-0.4l-0.8-1.1l-0.4-0.7l-0.2-0.6l0.7-1.4l1.5-1.4l1.6-1.1l1-0.4l1.5-0.4
	l1.3-1.1l2.7-3.6l0.3-0.1l0-0.2l0-1.1l0.3-0.4l0.6-0.5l0.7-0.4l0.5-0.2l0.9-0.8l3.5-4.9l1.6-4l0.6-2.6l0.1-0.6l0.5-1.2l3.6-3.5
	l0.1-0.3l0.4-0.9l0.2-0.4l0.3-0.3l0.7-0.1l0.9-0.8l0.7-0.3l1.5-0.1l1.3-0.9c-0.1-0.7-0.3-1.3-0.4-2L459.2,180.2z"/>
</svg>
