<?xml version="1.0" encoding="utf-8"?>
<!-- Generator: Adobe Illustrator 21.0.0, SVG Export Plug-In . SVG Version: 6.00 Build 0)  -->
<svg version="1.1" id="Layer_1" xmlns="http://www.w3.org/2000/svg" xmlns:xlink="http://www.w3.org/1999/xlink" x="0px" y="0px"
	 viewBox="0 0 432 432" style="enable-background:new 0 0 432 432;" xml:space="preserve">
<style type="text/css">
	.st0{fill:#050505;}
	.st1{fill:none;stroke:#000000;stroke-width:0;stroke-linecap:round;stroke-linejoin:round;}
	.st2{fill:#050505;stroke:#050505;stroke-width:8.239910e-03;}
</style>
	<path opacity="0.15" fill="#FFFFFF" d="M356.6,187c0,3.1,0,8.7-3.9,9.6c-4.8,0.9-3.9-6.1-6.5-8.3c-2.6-2.2-1.7,3.9-1.3,5.2c1.3,3.1,3.5,5.7,5.2,8.7
	c0.9,1.7,1.7,3.5,1.7,5.7c0,3.5-2.2,3.9-4.4,6.1c-1.7,1.3-2.2,3.9-3.1,6.1c-0.4,1.7-0.9,5.7-3.9,3.9c-2.2-1.3-1.3-3.9-2.2-5.7
	c-0.9-1.7-2.6-4.4-3.9-5.2c-3.9-3.9-4.8,3.9-5.7,6.5c-2.2,5.2-5.2,0.9-5.2-2.6c0-5.7,1.3-8.7,5.2-13.1c0-3.5-0.9-7,0-10.5
	c0.9-3.1,3.1-6.1,4.4-9.2c1.7-5.7,1.7-12.6-0.4-18.3c-1.3,1.3-2.6,2.6-3.5,4.4c-0.4,1.7-0.9,3.1-3.1,2.6c-3.1-0.9-3.9-4.8-3.5-7.4
	c0-1.7,1.3-3.1-0.9-4.4c-1.7-0.9-2.6-0.4-3.5,1.3c-0.9,2.6-0.4,6.5,1.3,8.7c3.5,4.8,10.5,7,8.3,14c-0.4,1.3-1.3,7-2.6,7
	c-2.2,0.4-2.6-5.7-3.1-6.5l-4.4-2.6l-6.1-1.7c-1.3-1.3-0.9-3.1-1.3-4.8c-0.4-1.7-1.3-3.1-2.2-4.4c-1.3-2.2-2.2-4.8-5.2-4.4
	c0-3.9-0.9-5.2-3.1-8.7c-1.3-2.2-0.4-2.6,0-4.8c1.3-5.2-1.7-10.9-4.8-14.8c-1.3-2.2-3.1-3.5-3.1-6.1c0.4-3.1,2.6-6.1,3.9-9.2
	c2.6-5.2,5.2-11.3,0.9-16.1c-1.3,2.6-6.1,21.8-8.7,22.2c-0.9,0.4-2.2-0.9-3.1,0c-0.9,0.9,1.3,6.5,2.2,7.4c1.3,2.2,3.9,2.6,4.8,4.8
	c1.3,2.6-0.9,4.4-1.3,6.5c-0.9,3.1,0.9,6.5,1.3,9.2c0.4,2.6,0.4,6.5,1.7,9.2c1.3,2.2,3.1,1.3,2.2,3.5c-0.4,0.9-0.9,1.3-1.3,2.2
	c-0.4,1.3-0.4,3.1-0.4,4.8c0,2.2,0.4,4.4,2.6,5.7c1.3,0.9,10,0.9,10,2.2s-6.1,2.6-7,3.1l0.4,10.5c-2.6,3.5-3.5,4.8-3.5,9.2
	c0,3.9-1.3,7-4.8,3.5c-0.9-0.9-2.6-2.2-2.6-3.1c-0.4-1.7,1.7-3.1,0.9-4.8c-1.3-1.7-17.4-1.3-23.1-3.5c0,2.6-1.3,13.1,3.1,13.1
	c2.6,0,3.9-3.1,6.1-1.7c0.4,0.4,1.7,1.3,2.2,1.7c1.3,0.9,2.6,1.3,3.9,1.7l-0.4,3.5c0.4,3.1,0,6.1,0.4,9.6c0.4,2.6,1.3,5.2,1.7,8.3
	c-1.7,0-3.5-0.4-4.8,1.3c2.2,0.9,6.5,2.6,4.8,5.7c-0.9,1.3-5.2,2.6-4.4,4.8c0.9,2.2,3.1,0.4,4.4,1.3c1.7,0.9,1.7,3.1,0.9,4.8
	c-1.3,3.1-5.7,3.5-8.7,4.4c-1.7,0.4-3.5,1.7-5.2,1.7c-1.3,0-2.2-0.9-3.5-0.4c-1.3,0.9-1.3,2.2-0.9,3.5c0.4,1.7,1.3,1.3,2.6,2.6
	c0.9,0.9,0.4,2.2,1.3,3.1c0.9,1.3,2.6,1.7,3.5,3.1c0.9,1.7,4.4,16.6,4.4,16.6c0,2.2,0.4,4.8,0.4,7c0,2.2-0.9,3.5-1.7,5.7
	c-1.3,3.1-1.3,7.9-0.4,11.3c0.4,2.6,1.3,3.1,0.9,6.1c-0.4,3.5-1.3,0.9-3.5,2.2c-1.3,0.9-1.3,3.1-0.9,4.8c0,1.3,1.3,2.6,1.3,3.5
	c0,0.9-0.4,1.3-0.9,2.2c-0.9,1.3-0.4,3.9-1.3,4.8c-0.4,0.4-2.2,0.4-2.6,0.9c-0.9,0.4-2.2,1.3-3.1,1.7c-3.9,2.6-2.6,7-1.7,10.9
	c1.3,7.9-7.4,14-10.5,20.5c-0.9,1.7-1.7,4.4-1.7,6.1c0,2.2,2.2,4.8-0.9,4.8c-2.6,0-3.1-3.1-4.4-4.4c-1.7-1.3-4.4-2.6-6.5-3.5
	l-0.4-1.7c0.9-3.9,5.7-4.8,7-8.3c0.9-1.7,0.4-4.4,0-6.1c-0.9-3.1-1.3-4.8-1.3-8.3c-2.6,0.4-3.1,0-3.9,2.2c-0.4,2.2-1.3,4.8-2.2,7
	c-0.9,2.2-0.9,4.8-1.7,7c-0.9,2.2-2.2,3.1-1.3,5.7l-0.9,2.2h-2.6c-6.1,2.2-17.9,1.7-38.4,7.4c-20.5,5.7-31.8,16.1-37.5,17
	c-6.1,0.9-39.3,5.2-45.4,7c-2.6,0.9-11.3,7-14,7.4c-0.9-4.4-3.5-2.6-7-1.3c-4.8,2.2-5.2-3.5-0.9-4.4c3.9-0.4,7.4,0.4,10-3.5
	c0.9-1.7,1.3-3.5,2.6-4.8c1.3-1.7,3.9-2.6,5.2-4.4c3.9-3.9,0.4-7.4-0.4-11.8c-1.3-4.8,1.7-9.6,0.9-14.4c-0.9-4.4-4.4-8.3-2.2-13.1
	c1.7-3.9,6.5-5.2,10-7l7,2.2l0.9-1.7l2.2-324.1l168.4-3.9l-1.3,70.2l17.4-3.9l0.4,2.6c-1.7,5.7,1.3,10.9,1.3,16.6
	c0,4.8-1.7,9.6-2.2,14.4c-0.9,5.7-1.7,10.5-1.3,16.1c0.4,4.8,3.5,8.3,5.2,12.2c2.2,4.4,6.5,6.1,10.5,8.3c4.4,2.6,9.6,4.8,14,8.3
	C347.4,170.9,351.4,179.1,356.6,187"/>
</svg>
