<?xml version="1.0" encoding="utf-8"?>
<!-- Generator: Adobe Illustrator 21.0.0, SVG Export Plug-In . SVG Version: 6.00 Build 0)  -->
<svg version="1.1" id="Layer_1" xmlns="http://www.w3.org/2000/svg" xmlns:xlink="http://www.w3.org/1999/xlink" x="0px" y="0px"
	 viewBox="0 0 432 432" style="enable-background:new 0 0 432 432;" xml:space="preserve">
<style type="text/css">
	.st0{fill:#050505;}
	.st1{fill:none;stroke:#000000;stroke-width:0;stroke-linecap:round;stroke-linejoin:round;}
	.st2{fill:#050505;stroke:#050505;stroke-width:8.239910e-03;}
</style>
<path opacity="0.15" fill="#FFFFFF" d="M407.4,328.4c-0.9-3.1-3.5-4.4-5.7-6.5c-2.6-2.2-0.4-4.8,0.4-6.5c1.7-3.1,2.2-4.4,2.6-8.3
	c0.9-3.9,0.4-9.6,3.1-11.3c2.6-1.7,0.4-9.6-2.2-10.5c-6.1-1.7-2.2-5.7-1.3-10c0.4-2.2-1.3-2.6-2.6-4.4c-1.3-1.3-1.3-3.5-1.7-5.2
	c2.6,0,4.8,0,7.4,0c-1.3-35.3-4.8-118.6-5.2-124.7c-0.4-7-6.5-8.3-11.8-9.6c-2.2-0.4-3.5-6.5-5.2-8.7c-2.2-2.6-5.7-5.7-1.7-8.7
	c7.8-6.5,10.9-9.6,11.3-20.1c-67.6,2.6-135.2,3.9-203.2,3.5c-54.9-0.4-109.4-1.7-164.4-3.5c0,12.2-7.8,207.5-7.8,207.5
	c151.7,12.2,285.6,3.5,285.6,3.5s9.6,7,16.1,9.6c2.2,0.9,3.1,2.2,4.8,3.5c3.9,2.2,3.9,1.7,8.3,0c2.6-0.9,0.9-4.8,4.4-4.8
	c1.3,0,1.7,0,3.1,0.9c1.3,0.9,2.2-0.9,3.5-0.9c0.9,0,0.9,1.7,2.2,1.3c1.7-1.3,1.7-1.7,3.9-0.4c1.7,0.9,6.5-0.4,8.7-0.9
	s4.8-0.9,6.5-0.4c3.5,0.9,2.6,2.2,5.2,3.9c2.6,1.3,3.5,2.2,6.5,2.6c2.6,0.4,6.5-0.9,6.1,3.1c7-0.9,7.8,3.1,14,3.9
	c-1.7,3.5,4.4,10.9,7,9.6c3.1,0,3.9,3.1,7.4,2.2C408.3,335.8,408.3,331.5,407.4,328.4z"/>
</svg>
