<svg xmlns="http://www.w3.org/2000/svg" width="188" height="137" viewBox="0 0 188 137">
    <path opacity=".15" fill="#FFF" fill-rule="evenodd" d="M121.448 7.686l-25.934 3.205c-1.953.148-3.693-.828-4.415-2.547l-2.377-5.58L83.034.916h-7.322l-26.614 2.42-20.65 3.713L2.746 21.395l-2.122 5.92-.446 3.098 1.974.552c.552.149 1.06.425 1.507.785l4.35 3.523 9.296 1.613c1.528.276 2.802 1.337 3.29 2.843l1.443 4.393 7.598 9.91 22.518 17.4 13.88 13.306 12.31 10.058 4.648 1.867c.827.361 1.528.934 1.995 1.677l6.791 10.758 2.61 7.13 5.222 3.31c.573.383 1.06.892 1.4 1.508l4.075 7.278c.191.318.34.658.446 1.019l1.422 5.75 4.011.7c.573.128 1.167.34 1.613.658l1.358-2.122c.34-.488.722-.912 1.21-1.23l6.303-4.923-1.697-3.926-2.696-3.31c-1.082-1.401-1.21-3.311-.276-4.818l1.146-1.867c.552-.934 1.507-1.613 2.568-1.91l13.774-3.501 9.742-1.677 18.592-24.148 6.961-6.515 1.931-5.03 1.274-8.72c.085-.383.17-.701.318-1.04l5.836-13.518c.191-.424.446-.785.722-1.125l8.362-9.4-47.944-33.656-18.613 3.671z"/>
</svg>
