<?xml version="1.0" encoding="utf-8"?>
<!-- Generator: Adobe Illustrator 21.0.0, SVG Export Plug-In . SVG Version: 6.00 Build 0)  -->
<svg version="1.1" id="Layer_1" xmlns="http://www.w3.org/2000/svg" xmlns:xlink="http://www.w3.org/1999/xlink" x="0px" y="0px"
	 viewBox="0 0 432 432" style="enable-background:new 0 0 432 432;" xml:space="preserve">
<style type="text/css">
	.st0{fill:#050505;}
	.st1{fill:none;stroke:#000000;stroke-width:0;stroke-linecap:round;stroke-linejoin:round;}
	.st2{fill:#050505;stroke:#050505;stroke-width:8.239910e-03;}
</style>
<path opacity="0.15" fill="#FFFFFF" d="M172.2,387c2.7,2.4,5.4,4.7,8,7.1c1.7-2.8,3.3-5.7,5-8.5c-0.8-0.3-1.5-0.7-2.3-1c0.4-2.5,0.9-5,1.3-7.4
	c1.5-0.7,3.1-1.4,4.6-2.1c0.1-2.3,0.2-4.6,0.3-6.9c-1.4-2.4-2.8-4.8-4.2-7.2c0.8,0.2,1.6,0.5,2.4,0.7c0.1-1.3,0.1-2.7,0.2-4
	c-0.6,0.2-1.3,0.4-1.9,0.5c0.1-2.3,0.2-4.5,0.2-6.8c-0.8-1.9-1.5-3.7-2.3-5.6c0.7,0.1,1.3,0.2,2,0.3c1.5,3.8,3.1,7.5,4.6,11.3
	c0.1,1.1,0.2,2.1,0.3,3.2c3.1,2.5,6.2,5,9.3,7.4c0.8,1.5,1.5,3,2.3,4.5c1.8-1.3,3.5-2.7,5.3-4c1.8-0.2,3.6-0.3,5.4-0.5
	c0.4-1.1,0.9-2.1,1.3-3.2c-1.5,0.3-3.1,0.7-4.6,1c-0.5-0.5-0.9-0.9-1.4-1.4c2.4-1.9,4.8-3.8,7.3-5.7c-0.7-1.5-1.5-2.9-2.2-4.4
	c-1.8-0.3-3.5-0.6-5.3-0.9c-1-0.9-2-1.7-3-2.6c-2.4-0.7-4.8-1.5-7.3-2.2c-0.3-0.7-0.7-1.5-1-2.2c2.8-0.1,5.6-0.2,8.5-0.3
	c-1.9-1.6-3.8-3.1-5.6-4.7c2.2,0.2,4.3,0.4,6.5,0.6c0.6,1,1.1,2,1.7,3.1c1.6-0.5,3.2-1.1,4.9-1.6c0.6,1.9,1.2,3.8,1.8,5.7
	c1.4,0,2.8,0.1,4.2,0.1c0.9-1.8,1.7-3.5,2.6-5.3c1.7,2.2,3.4,4.3,5.1,6.5c3-1.8,5.9-3.5,8.9-5.3c-0.4-1.6-0.9-3.1-1.3-4.7
	c-2.5-1.2-5-2.4-7.5-3.7c0.9-0.1,1.9-0.2,2.8-0.3c2-2.5,4-5.1,6-7.6c1.6-0.1,3.2-0.3,4.8-0.4c-1.7,1.6-3.4,3.2-5.1,4.8
	c-0.9,1.6-1.8,3.2-2.6,4.9c1.1,0.1,2.1,0.2,3.2,0.3c1.1,1.5,2.2,3.1,3.3,4.6c1.7-0.9,3.3-1.8,5-2.7c3.1-0.4,6.2-0.9,9.3-1.3
	c-0.2-1.1-0.5-2.2-0.7-3.2c1.2-0.2,2.4-0.3,3.6-0.5c2-1.2,4.1-2.5,6.1-3.7c0-1.8,0-3.7,0-5.5c-2.3-2.9-4.6-5.8-6.9-8.6
	c0.9-0.2,1.8-0.5,2.7-0.7c0.7,1.2,1.5,2.4,2.2,3.6c1.3,1.1,2.6,2.1,3.9,3.2c1.6-0.1,3.1-0.2,4.7-0.3c2.2-1.1,4.3-2.3,6.5-3.4
	c0.3-1.5,0.6-3.1,0.9-4.6c3.6-1.5,7.2-3,10.8-4.4c-1-1.4-2-2.7-3-4.1c1.2-2.2,2.4-4.4,3.6-6.6c2.1-0.7,4.2-1.4,6.3-2.1
	c1.3,0.5,2.5,1.1,3.8,1.6c1.7-0.1,3.4-0.1,5.1-0.2c0.8-1.7,1.5-3.5,2.3-5.2c4.1-2.7,8.2-5.5,12.3-8.2c-0.1-2.7-0.2-5.3-0.3-8
	c-2.3-1.5-4.6-2.9-6.8-4.4c0.6-1.7,1.2-3.4,1.7-5.1c0.2,1.1,0.3,2.2,0.5,3.3c1.7,0.1,3.3,0.2,5,0.3c1-0.7,2.1-1.4,3.1-2.2
	c1.8-5,3.6-9.9,5.4-14.9c5.5-6.5,10.9-13,16.4-19.5c3.7-3.2,7.4-6.3,11-9.5c5.5-2.6,11-5.1,16.5-7.7c-30.1-30.8-60.3-61.6-90.4-92.4
	h-90.3c0.5-4,1.1-8.1,1.6-12.1c-3.9-5.4-7.7-10.8-11.6-16.1c-3.2,1.7-6.4,3.3-9.6,5c0.4-3.3,0.7-6.5,1.1-9.8
	c-36.2-1.2-72.4-2.4-108.6-3.5c-8.2,1.9-16.3,3.8-24.5,5.7c-1.9,2-3.7,4.1-5.6,6.1c-1.1-0.7-2.1-1.4-3.2-2c-8.5,2.9-17,5.8-25.5,8.6
	c0,1.9,0,3.8,0,5.7c-1.9,1-3.7,2-5.6,3c-3.9,3.9-7.8,7.7-11.7,11.6c-0.7,2.8-1.4,5.7-2.1,8.5c3.2,3.1,6.3,6.3,9.5,9.4
	c0.9,0,1.7,0,2.6,0c4.3,4,8.6,8,12.9,12c4.3,0.3,8.6,0.6,12.9,0.9c3.5,6.7,6.9,13.3,10.4,20c0.4,3,0.7,5.9,1.1,8.9
	c2.3,2.4,4.6,4.7,6.8,7.1c0.3,1.3,0.7,2.7,1,4c1.4,1.1,2.7,2.2,4.1,3.2c0.6,2.7,1.3,5.4,1.9,8c1.3,0.1,2.6,0.3,3.9,0.4
	c1.9,2.4,3.8,4.8,5.6,7.3c4.7,2.3,9.5,4.7,14.2,7c2,5.6,4.1,11.1,6.1,16.7c5,2.6,10,5.2,14.9,7.9c0.4,1.5,0.7,3,1.1,4.5
	c2,1.8,4,3.6,6.1,5.4c-0.6,3-1.2,6.1-1.8,9.1c2.5,1.7,5,3.4,7.5,5c0.9,2.8,1.8,5.6,2.6,8.4c1.3-0.2,2.7-0.3,4-0.5
	c0.1,1.6,0.3,3.2,0.4,4.9c7.3,4.9,14.7,9.7,22,14.6c-0.8,1.7-1.5,3.3-2.3,5c2.8,6.7,5.7,13.3,8.5,20c-0.1,4.5-0.1,8.9-0.2,13.4
	c3.3,1.5,6.5,3,9.8,4.4c2.9,3.4,5.8,6.8,8.7,10.2c-0.8,0.9-1.5,1.9-2.3,2.8c1.4,3.1,2.8,6.2,4.3,9.3c0.8-0.1,1.6-0.3,2.4-0.4
	c0.2,1.5,0.4,3,0.6,4.4c0.2,6.5,0.3,12.9,0.5,19.4C166.4,388.6,169.3,387.8,172.2,387z"/>
</svg>
