<svg xmlns="http://www.w3.org/2000/svg" width="262" height="159" viewBox="0 0 262 159">
    <path opacity=".15" fill="#FFF" fill-rule="evenodd" d="M247.885 18.627c.191-.488.446-.933.806-1.315l6.94-7.81V7.254H102.823L13.388 1.142c-.489-.043-.955-.191-1.401-.382L8.485 40.866l-.36 4.202-7.514 90.25 91.706 7.64 96.418-.022c.998 0 1.974.36 2.717.997l6.155 5.157 14.07 5.326 7.302-1.676 19.037-.106c.891 0 1.783.297 2.504.827l6.856 5.008h10.187c0-.297.042-.594.127-.89l2.314-8.935v-7.427l-3.396-13.602c-.34-1.358.042-2.822.997-3.862l2.186-2.377c.382-.424.828-.742 1.316-.976V39.7l-1.358-3.078-5.88-2.313c-.55-.212-1.06-.552-1.485-.976l-5.37-5.517c-1.166-1.189-1.506-2.929-.933-4.457l1.804-4.732z"/>
</svg>
