<svg xmlns="http://www.w3.org/2000/svg" width="317" height="118" viewBox="0 0 317 118">
    <path opacity="0.15" fill="#FFF" fill-rule="evenodd" d="M225.174 91.654v-5.008c0-.7.17-1.38.488-2.016l1.783-3.31c.445-.85 1.21-1.507 2.08-1.89l4.52-1.951 3.438-9.422c.298-.722.743-1.358 1.316-1.825l6.537-5.284c.552-.467 1.252-.764 1.974-.891l8.638-1.465 20.204-16.658 4.097-7.15c.658-1.125 1.761-1.89 3.035-2.08l8.043-1.252 7.513-7.258c.53-.51 1.21-.891 1.953-1.06l6.346-1.592 2.398-5.624c.212-.445.446-.849.785-1.21l4.988-5.432.721-8.615-39.433 7.49-9.678 1.231-71.204 14.558-84.766 11.459-34.658 2.1-1.613 4.414c-.467 1.273-1.486 2.228-2.78 2.632l-10.697 3.183-39.964 3.904-1.676 1.273h-.022l-1.294.976-2.59 15.406-2.08 5.836v.021L8.25 89.49l-6.048 13.2v9.188c0 .573-.128 1.146-.361 1.676L.227 117.31l77.126-6.981 147.82-18.674z"/>
</svg>
