<?xml version="1.0" encoding="utf-8"?>
<!-- Generator: Adobe Illustrator 21.0.0, SVG Export Plug-In . SVG Version: 6.00 Build 0)  -->
<svg version="1.1" id="Layer_1" xmlns="http://www.w3.org/2000/svg" xmlns:xlink="http://www.w3.org/1999/xlink" x="0px" y="0px"
	 viewBox="0 0 432 432" style="enable-background:new 0 0 432 432;" xml:space="preserve">
<style type="text/css">
	.st0{fill:#050505;}
	.st1{fill:none;stroke:#000000;stroke-width:0;stroke-linecap:round;stroke-linejoin:round;}
	.st2{fill:#050505;stroke:#050505;stroke-width:8.239910e-03;}
</style>
<polygon opacity="0.15" fill="#FFFFFF" points="291.1,216 294.9,202.2 303.3,200.9 305.7,191.1 316.6,184.6 328.3,184.6 335.4,178.9 347.3,171.4 
	352.3,171.4 355.4,164.4 368.5,156.7 368.5,163 376.1,159.5 380.6,152.3 389.1,153.2 394.1,152.3 402.9,140.2 410.2,140.2 
	410.2,125.1 132.6,124.2 131.6,122.2 121.8,122.2 122.7,131.6 59.5,131.6 54.7,140.2 47.5,145.3 54.7,152.3 45.7,157.6 49.9,165.3 
	44.8,165.3 45.7,170 37.4,175.4 37.4,187.7 27.6,191.1 27.3,196.3 31.2,206.7 21.8,216 "/>
</svg>
