<svg xmlns="http://www.w3.org/2000/svg" width="536" height="508" viewBox="0 0 536 508">
    <path opacity=".15" fill="#FFF" fill-rule="evenodd" d="M533.62 258.285l-12.204-25.316-9.465-12.86c-.489-.657-.764-1.442-.828-2.248l-2.61-45.773V147.473h-15.748c-2.314 0-4.245-1.91-4.245-4.244v-.213l-9.869-1.91c-1.019-.19-1.952-.763-2.568-1.59l-4.032-5.306-8.511-3.013-2.971 1.74c-.361.212-.743.36-1.146.445l-6.58 1.613c-.657.17-1.337.17-2.037 0l-8.001-2.016-10.824 2.165-8.447 4.795c-.68.361-1.38.531-2.101.531h-5.964c-.53 0-1.04-.106-1.528-.297l-11.355-4.371-9.55-1.061-7.64 3.183c-.892.403-1.847.445-2.802.17l-17.573-4.924c-.955-.276-1.783-.87-2.356-1.676l-.424-.616-1.231.85-5.306 2.121c-1.74.658-3.672.106-4.797-1.337l-9.444-11.947-7.237 1.868c-.53.148-1.189.17-1.783.063l-21.584-3.756c-.51-.085-.976-.275-1.422-.53l-9.572-5.645c-.488-.318-.912-.7-1.273-1.167l-4.118-5.623-5.751.806c-.552.043-1.167.043-1.72-.127l-7.788-2.122c-.34-.106-.68-.255-.998-.425l-9.869-5.687c-1.294-.742-2.122-2.122-2.143-3.607l-1.167-88.404L156.904.013l-1.952 3.395-9.53 209.063c-.02 1.188-.551 2.249-1.443 3.034-.912.785-2.058 1.04-3.226 1.019L.445 201.776v2.822l10.23 8 45.29 48.7 12.29 7.895c.975.615 1.655 1.612 1.888 2.758l6.791 35.247 21.181 26.08 19.823 13.072 12.013 5.814 3.31-2.037 14.814-28.053c.382-.68.892-1.252 1.57-1.634l10.124-6.09c.743-.467 1.635-.828 2.484-.595l34.89 2.377 11.186 2.801c.806.233 1.549.637 2.08 1.252l24.046 26.44c.275.255.445.552.636.892l17.255 33.061 17.785 23.003 7.068 14.854 12.797 8.785c.828.573 1.401 1.422 1.677 2.377l8.107 30.006 9.19 17.146 14.114 11.607 65.007 18.377 5.009.7-8.447-19.544-2.95-16.764c-.085-.467-.064-.955 0-1.4l3.799-22.324 5.433-21.242c.148-.615.445-1.167.827-1.634l7.195-8.848 1.634-8.743c.213-1.061.828-2.037 1.72-2.674l10.123-7.257c.403-.319.785-.51 1.273-.637l6.75-1.995 1.103-2.886-1.167-3.904c-.34-1.167-.149-2.462.53-3.502.68-1.04 1.74-1.718 2.993-1.888l17.7-2.356 17.934-.042 11.8-7.767 7.004-9.294 3.82-34.122c.128-1.316.892-2.483 2.059-3.141l3.056-1.825c1.082-.68 2.44-.806 3.65-.36 1.231.445 2.144 1.379 2.526 2.588l3.566 10.313 5.772-1.04 20.8-7.915-.956-1.358c-.955-1.294-1.019-3.034-.254-4.477l6.176-11.332 1.485-4.86-1.358-10.016c-.043-.381-.043-.742 0-1.124l1.464-11.14c.064-.383.17-.722.319-1.083l4.796-11.544-1.655-12.01z"/>
</svg>
