<?xml version="1.0" encoding="utf-8"?>
<!-- Generator: Adobe Illustrator 21.0.0, SVG Export Plug-In . SVG Version: 6.00 Build 0)  -->
<svg version="1.1" id="Layer_1" xmlns="http://www.w3.org/2000/svg" xmlns:xlink="http://www.w3.org/1999/xlink" x="0px" y="0px"
	 viewBox="0 0 432 432" style="enable-background:new 0 0 432 432;" xml:space="preserve">
<style type="text/css">
	.st0{fill:#050505;}
	.st1{fill:none;stroke:#000000;stroke-width:0;stroke-linecap:round;stroke-linejoin:round;}
	.st2{fill:#050505;stroke:#050505;stroke-width:8.239910e-03;}
</style>
<g>
	<path opacity="0.15" fill="#FFFFFF" d="M183.3,92.8c-0.5,1.8-1,3.6-1.5,5.4c4.3,3.3,7.9,7.4,12.7,9.1c1.2,0.4,2.6-0.9,3.6-0.5c1,0.5,0.9,2.3,2,3.1
		c4.1,3,6.3,3.1,11.1,4.1c6.6,1.4,14.5,2.7,20.5,5.5c3.2,1.5,6.3,5.3,9.3,6.4c2.7,1.1,3.1-0.8,6.5-0.4c5.6,0.6,8.6,6.4,15.2,4.8
		c2.7-0.7,4.8-3.5,7.4-4c3.6-0.8,5.5,1.4,8.6,2.7c2.5,1.1,3.4,2.3,6.4,1.6c3.6-0.8,3.2-3,5.9-5c5-3.6,14.1,0.2,20.5-0.8
		c6.6-1,11.2-1.6,17.1,2.7c6.5,4.7,7.4,9.3,15.9,8.1c2.7,4.8,0.1,11.1,0.6,16.4c0.6,7.2,2.8,12.5,4.7,19.3c2,7.2,0.7,12.7,4.5,19.4
		c2.8,4.9,5.6,10.3,7.5,15.5c2,5.3,5.3,11.1,6.3,16.1c1.2,5.7-0.8,11.9-2.8,17.1c-2.4,6.1-3,15.1-7.6,19.9c-3.8,4-12.8,8.8-18.5,8
		c-0.2-4,1.1-7.4-2.7-8.5c-3.7-1.1-7.7,2.8-8.6,6c-2.1,7.3,7.5,8.1,4.8,14.9c-3.9,9.8-19.9,16.6-29.3,18.8
		c-6.2,1.5-13.5,1.3-19.8,1.7c-0.7,6.3-6.4,7.3-9.2,11.1c-2.3,3.2-2.1,8.7-4.8,11.3c-2.2,2.2-4.2,0.9-5.9,2.2
		c-3.2,2.5-2.9,6.3-3.7,10.6c-0.8,4.1-5.3,7.6-5.4,10.3c-0.1,1,2.6,1.1,2.8,2.1c0.3,1.3-0.6,2.1-0.6,3.2c-0.1,2.3-1.7,3.8-1.6,6
		c0.1,3.3,3.3,8,4.2,11.2c1.3,4.4,2,8.5,3.5,12.8c1.7,4.9,3.3,5.7,7.3,9.1c-0.5,3.5-6,4-9.1,3.3c-4.3-1-7.8-6-12.3-7
		c-3.3-0.8-5.7,1.6-8.6,1.6c-4.4,0.1-4.7-2.2-8.1-4.2c-9.3-5.5-17.2-7.1-23-17.2c-3.6-6.1-4.6-13-8.6-18.8c-1.6-2.3-2.1-4.3-3.2-6.4
		c-1.4-2.7-2-2.9-4.8-5.1c-6.1-4.6-7.6-10-9.8-17c-2.2-7-6.6-12.7-9.1-19.6c-4.5-12.5-13.1-20.9-21.3-30.7c-2.8-3.3-2.2-4.1-6.4-5.4
		c-3.2-1-6.8-0.6-10.1-1.1c-2.9-0.4-5.7-0.7-8.7-1.1c-3.2-0.4-3.1-1.2-6.3-2.7c-11.7-5.5-16.3,9.2-20.1,17.2
		c-1.5,3.3-7.3,9.3-11.1,10.2c-5.6,1.4-8.5-5-12.3-7.7c-10.4-7.4-22.1-12.7-25.2-25.6c-1.1-4.5-2.7-8.8-3.8-13.4
		c-0.7-2.8,0.1-5.5-1.6-8.2c-1.6-2.7-5.3-4.5-7.5-6.8c-7.6-8-17.3-14.4-24.5-22.5C9.9,197-2.4,189.8,0.4,182.4l99.2,4.8
		c-1.1,1.2,3.8-149.3,3.8-149.1l81.5,1.6c0,0.2,0,0.4,0,0.5L183.3,92.8z"/>
</g>
</svg>
