<?xml version="1.0" encoding="utf-8"?>
<!-- Generator: Adobe Illustrator 21.0.0, SVG Export Plug-In . SVG Version: 6.00 Build 0)  -->
<svg version="1.1" id="Layer_1" xmlns="http://www.w3.org/2000/svg" xmlns:xlink="http://www.w3.org/1999/xlink" x="0px" y="0px"
	 viewBox="0 0 432 432" style="enable-background:new 0 0 432 432;" xml:space="preserve">
<style type="text/css">
	.st0{fill:#050505;}
	.st1{fill:none;stroke:#000000;stroke-width:0;stroke-linecap:round;stroke-linejoin:round;}
	.st2{fill:#050505;stroke:#050505;stroke-width:8.239910e-03;}
</style>
<path opacity="0.15" fill="#FFFFFF" d="M282.1,78.9l-8.8,0.7l-42.2-0.3l-7.8-1h-67.8l-1,3.7c2.4,5.1,0.3,8.4-1.3,13.2c-0.7,2-1.7,4.4-1,6.4
	c0.7,2,3,2.7,3.4,4.7c0.7,3.7-2.7,7.8-2.7,11.8c0,4.7-2.4,9.1-1.7,14.2c0.7,5.1,4.4,7.8,6.1,12.1c2,4.4,2.7,9.4,0.3,13.8
	c-1,2-2.4,3.7-2.4,5.7c0,2.4,0.7,4.7,1.3,6.7c0.3,2,1,4.7,0.7,6.7c-0.3,2.4-2.4,3.4-4,5.4c-1.7,1.7-3.4,4-3.7,6.4
	c-0.3,2.4-1.3,4-2,6.4c-0.7,2.7-2,5.4-2.4,8.1c-0.3,2.7,2,4,2.7,6.4c0.3,1.3-0.3,2.7-0.3,4c0,2,0.3,5.1,0.7,7.4
	c0.3,2.7,2.4,4.7,2.7,7.4c0,0.7-0.3,1.7-0.3,2.4c0,0.3,0.3,1,0.3,1.3c0,1-1.7,2-1.7,3.4c0.3,2.4,3.7,4,3.4,7.1
	c0,1.3-1.3,2.4-1.7,3.4c-0.3,1.3-0.3,2-1,3c-1.7,2.4-2,4.7-3,7.1c-0.3,1-1.3,1.7-1.7,2.7c-0.3,1.3,0.7,2,0.7,3.4c0,1-1,2.7-1,3.7
	c0.3,1,2,2.7,3,2.4c1.7-0.3,1-2.7,1-3.7c0-0.3,0.7-1,1-1.7c0.3-1-0.3-2,1-2.4h6.1c0,1.3,0.7,1.7,1,3c0.3,1.3-0.7,2.4,0.3,3.4
	c0.7,0.7,2.4,1,3,2c0.7,1,0.7,2.7,1,3.7l-0.3,1.7l-3.4,91.1l-0.7-0.3l-0.3,3l-0.3,1l2.4,7.8l78.3,2.7l-1.3-2.4c-0.7-2-1.3-4-3.7-3
	c0-3-2.4-4.4-3.4-7.4s-1.7-6.1,0-8.8c2-3,0.7-4.7,1.3-7.8c0.7-2.7,5.4-2,5.7-3.7l-0.3,0.3l1.7-3.7c0.3-1.3,0.3-1.3-0.7-2.7
	c-0.3-1,0-1.7-0.3-2.7c0-1-0.7-1.3-0.3-2.4c0.3-0.7,1.3-1,1.7-2c0.7-1,0.7-3.7,0.7-5.1c0-2.4-1.7-3.7-1.3-6.4c0.3-1,0.3-2,0.3-3
	c0-1.3,0.3-1.3,0.7-2.4c0.7-1.7,0.3-4,0.3-5.7c0.3-2,1.7-3.4,2.7-5.4c1-2.4,0.7-2.7,0.3-5.1c0-1.3,1-2.4,1-3.7c0-1.7-2-1.3-2-3.4
	c0-0.7,0.7-1.7,1-2.4c0.3-1.3,0.7-2.7,0.7-4c0.3-2,0.3-4,0.7-6.1c0.3-1.3,1-2,0.3-3.4c-0.3-1-1-1-1.3-2c0-1.3,1.3-4,1.7-5.7
	c0.3-2,1-3.4,2.7-4.4c2.7-1.7,1.7-4.7,3-7.4c0.7-1.7,1.3-3,1.7-4.7c0.3-1.3,0-2.7,0.7-4c1.3-2.7,5.1-3.7,6.7-6.1
	c1.7-2.4,3.4-5.4,3.4-8.4c0-1.3-0.7-3.4-0.3-4.7c0.3-1,1.3-1,1.7-2c0.3-0.7-0.3-1-0.3-1.7c0-0.3,1-1,1.3-1.3c1-1.3,2-2,3-3
	c1.3-1.7,0.7-5.7,3.4-6.7c-0.7-0.7-1.3-0.7-2-0.7c0-1-0.3-7.4,2-5.4c-1-2,0-1,0.7-1.7c0.7-0.7,0.7-2.4,1-3c0-0.3,0.7-0.3,0.7-0.7v-1
	c0.7-1.3,1.3-2.4,2.7-2.7c-0.3-0.3-0.7-0.7-1-1c1.7-0.3,0.7-2.7-0.3-1.7c-1.3-1.7,0-2.4,0.3-3.4c0.3-1,0.3-1,0-2.4
	c-0.3-2.7-1.3-4.4-2.4-6.7c1-3.4,1.7-6.1,1-9.4c-0.3-1.7-0.3-2.4,1-3.7c0.7-0.7,1-0.7,1.3-1.3c0.3-0.7,0.3-1.7,1-2
	c1.3-1.3,4.4-2,6.1-2c1,0,2,0,2.7-0.3c0.7-0.3,1-1,2-1c2,0,2.7,1.3,4.7,1c1.3-0.3,3.4-1.3,4-2.7c0.7-1.3-0.3-2.7,1-4
	c1.3-1.3,2.7-1.7,4.4-1.7c1.3,0,2-0.7,3.4-1c1.7-0.7,3.4-2,4.7-3.4c1.3-1.3,1-2.7,2.7-4c-1-0.7-0.3-1.3,0.3-1.7
	c0.3,0.3,0.7,0.7,1,0.3c0.3-0.3,0.7-0.7,1-0.7c1-0.7,3-2,2.7-3c1.7,1.3-0.3-1.3-0.7-2c4.4-1-0.7-3.7,0-5.1c0.3-0.7,1.3-0.7,1.7-0.7
	c0.7-0.3,1.7-0.7,2.4-1c-0.3-0.3-0.7-1.3,0-1.7c0.7,1.3,1.3-0.7,1-1.3c-1,0.3,0-1-1.3-0.3c0.3-1,0-1-1-1c1.7-0.7,0-2.7,1.7-2.7
	c-0.7-0.3-1.7-1,0-1c-0.3-0.3-1-0.3-1.3-0.7c0,0-0.3-1.3,0-1c-0.7-0.7-2-1.3-1.3-1.7c-1.7,0-0.7-1-1-1.7c-0.3-0.7-0.7-1.3-1-2
	c-0.3-1-0.3-2-1-3c-0.7-1.3-1.7-2.4-2-3.4c-1.3-3.4,2.4-5.1,4-7.4c1-1.7,0.3-3,1-4.4c0.3-0.7,1-0.7,1-1.3c0.3-0.7,0-1.7,0.3-2.7
	c0.7-2.7,4-4,5.1-6.4c0.3-1.3-0.7-1.7-1-3c-0.7-1.7,0-3.4-0.7-5.1c-1-2-3.4-3.4-0.7-5.4c2-1.7,4,0.7,5.4-1.7L282.1,78.9z"/>
</svg>
