<svg xmlns="http://www.w3.org/2000/svg" width="56" height="111" viewBox="0 0 56 111">
    <path opacity=".15" fill="#FFF" fill-rule="evenodd" d="M13.62 60.143l3.82 10.25c.148-.022.318-.022.466-.022.85 0 1.677.255 2.377.743l3.927 2.674c.891.615 1.464 1.528 1.719 2.568l7.789 34.164 7.513-2.228 9.338-2.78-2.865-16.976-2.738-8.743c-.127-.424-.212-.849-.212-1.273V60.97c0-.445.085-.89.212-1.315l1.57-4.817V41.597l-2.122-5.2c-.382-.89-.424-1.845-.19-2.758l1.93-6.706c.15-.509.404-.997.7-1.421l7.45-9.634 1.146-3.544-4.053-5.666c-.658-.912-.934-2.08-.722-3.183l.53-3.29L.737 15.518l9.657 24.913 3.226 19.713z"/>
</svg>
