<svg xmlns="http://www.w3.org/2000/svg" width="272" height="159" viewBox="0 0 272 159">
    <path opacity=".15" fill="#FFF" fill-rule="evenodd" d="M216.042 40.57c-.446-.043-.785-.149-1.188-.297l-7.81-3.29c-1.168-.488-2.08-1.485-2.42-2.673l-3.12-10.27c-.106-.404-.17-.829-.17-1.232v-4.562l-4.987-4.944c-.68-.7-1.125-1.656-1.21-2.632h-7.216c-1.55 0-3.014-.87-3.735-2.228l-3.545-6.578-1.846-.998c-.127.637-.382 1.252-.764 1.783l-3.438 4.71c-1.083 1.465-3.035 2.08-4.754 1.529l-5.54-1.783c-.445-.148-.912-.382-1.294-.679l-4.966-3.862-1.55-.34v3.502l-2.886 12.308c-.149.551-.403 1.082-.764 1.549l-10.103 13.369c-.785 1.06-2.08 1.697-3.374 1.697h-3.056l-6.643 18.08c-.616 1.676-2.207 2.78-3.99 2.78h-5.136c-.722 0-1.422-.191-2.08-.53l-4.054-2.25-4.032 17.146-7.237 19.608-2.356 15.49c-.191 1.189-.87 2.229-1.868 2.886L80.15 120.167l-13.583 6.727-16.364 5.432c-.445.149-.89.213-1.315.213-.382 0-.68-.043-1.062-.128l-8.807-2.207c-.807-.212-1.55-.636-2.123-1.273l-4.032-4.477-12.883 13.708-6.855 4.944-4.627 8.807-.742 2.865c-.446 1.506-1.72 2.652-3.248 2.97l-3.735.743-.042.17 6.579-.828 44.654-8.488 85.233-16.212 134.684-31.703-.255-1.083h-11.312l-4.924 1.443c-1.082.34-2.27.191-3.29-.382l-3.65-2.08c-.976-.572-1.698-1.485-1.974-2.588-.297-1.082-.127-2.25.446-3.226l2.462-4.265c.425-.658.934-1.21 1.613-1.57l-.34-.212c-1.273-.786-2.037-2.144-2.037-3.629v-6.472l.722-3.183-2.653-2.335c-.552-.509-1.019-1.188-1.231-1.93l-1.592-5.22c-.191-.574-.233-1.19-.149-1.783l.892-6.833-5.922-12.308-6.96-1.4-15.685-1.804z"/>
</svg>
