<?xml version="1.0" encoding="utf-8"?>
<!-- Generator: Adobe Illustrator 21.0.0, SVG Export Plug-In . SVG Version: 6.00 Build 0)  -->
<svg version="1.1" id="Layer_1" xmlns="http://www.w3.org/2000/svg" xmlns:xlink="http://www.w3.org/1999/xlink" x="0px" y="0px"
	 viewBox="0 0 432 432" style="enable-background:new 0 0 432 432;" xml:space="preserve">
<style type="text/css">
	.st0{fill:#050505;}
	.st1{fill:none;stroke:#000000;stroke-width:0;stroke-linecap:round;stroke-linejoin:round;}
	.st2{fill:#050505;stroke:#050505;stroke-width:8.239910e-03;}
</style>
<path opacity="0.15" fill="#FFFFFF" d="M118.5,156.4c4.3-3.7,8.6-7.4,12.9-11.1c0.1,0.6,0.3,1.2,0.4,1.7c-0.6,0.5-1.2,1.1-1.7,1.6
	c0.8,0.4,1.6,0.8,2.4,1.2c0,1.2,0,2.4,0,3.5c1.2,1.4,2.3,2.9,3.5,4.3c0.9,0.1,1.9,0.3,2.8,0.4c1.2,1.2,2.4,2.5,3.7,3.7
	c0.8,0,1.5,0,2.3,0c0.5-0.3,1-0.6,1.5-0.8c2.2-1,4.3-1.9,6.5-2.9c0.6-1,1.2-2,1.8-3c1.9,1.7,3.8,3.5,5.8,5.2
	c0.6-0.6,1.3-1.3,1.9-1.9c4.2-1.2,8.4-2.4,12.6-3.6c-0.3-0.5-0.6-1-1-1.5c0.1-1,0.3-1.9,0.4-2.9c1.6,1,3.3,1.9,4.9,2.9
	c3-1.7,6-3.5,8.9-5.2c0.7,0.9,1.4,1.8,2.1,2.7c2.3-1.5,4.5-3,6.8-4.5c-0.5-0.3-1-0.7-1.5-1c0.2-0.6,0.5-1.2,0.7-1.8
	c1-0.8,2.1-1.6,3.1-2.4c-1-1-2-2-2.9-3c0.6-1.2,1.2-2.3,1.7-3.5c2.7-3.4,5.5-6.8,8.2-10.2c0.8-1,1.5-2,2.3-3
	c0.9-1.6,1.8-3.1,2.6-4.7c0.1-1.2,0.2-2.4,0.3-3.7c1.5-1.3,3.1-2.5,4.6-3.8c-0.2-0.8-0.3-1.6-0.5-2.4c1.1-0.8,2.2-1.6,3.3-2.4
	c0.9-3.7,1.9-7.4,2.8-11.1c1.6,0.5,3.1,0.9,4.7,1.4c0.8,1.7,1.5,3.4,2.3,5c2.6,0.7,5.3,1.4,7.9,2.1c3.8-7.3,7.6-14.6,11.5-21.9
	c1.5,1.5,2.9,3,4.4,4.5c1-2.2,2-4.3,3-6.5c0.6-0.3,1.1-0.6,1.7-0.9c0-0.3,0-0.6,0-1c0.4-0.2,0.8-0.4,1.2-0.7c0,0.6,0,1.2,0,1.8
	c0.4-0.3,0.9-0.6,1.3-0.8c0.7-1.1,1.4-2.2,2.1-3.3c0.6,0.3,1.2,0.6,1.7,0.9c0.3-0.6,0.6-1.1,0.9-1.7c0-0.7,0-1.4,0-2.2
	c2.2-2.1,4.3-4.2,6.5-6.3c-0.4-0.5-0.9-1-1.3-1.6c1.2-3,2.3-6,3.5-8.9c0.8-0.9,1.6-1.9,2.4-2.8c5.8,5,11.6,10,17.3,15
	c1.6-3.1,3.2-6.3,4.8-9.4c2.1,0.3,4.2,0.6,6.3,0.8c0.3,0.8,0.5,1.5,0.8,2.3c0.9,0.3,1.8,0.7,2.6,1c0.3,0.4,0.5,0.8,0.8,1.2
	c-1,0.6-2.1,1.3-3.1,1.9c0,0.8,0,1.7,0,2.5c0.7,0.3,1.3,0.5,2,0.8c0.2,0.6,0.4,1.2,0.6,1.8c2.1,0.3,4.2,0.6,6.2,0.9
	c2.3,1.8,4.7,3.7,7,5.5c1,1.3,2,2.7,3.1,4c0,2.6,0,5.3,0,7.9c-1.1,0.5-2.1,1-3.2,1.6c0,0.8,0,1.6,0,2.5c-1.6,0.7-3.2,1.4-4.8,2.1
	c-0.9,1.8-1.9,3.7-2.8,5.5c0.5,2.2,1,4.4,1.4,6.6c1.6,0,3.3,0.1,4.9,0.1c1.6-1,3.2-1.9,4.8-2.9c0.4,0.6,0.7,1.2,1.1,1.8
	c-0.2,1.1-0.5,2.1-0.7,3.2c0.9,0.8,1.9,1.7,2.8,2.5c0,0.8,0,1.5,0,2.3c1.7,0.8,3.4,1.7,5,2.5c2.9,0.1,5.8,0.3,8.8,0.4
	c0,0.7,0.1,1.4,0.1,2.1c1.1,1.1,2.1,2.2,3.2,3.3c1.2,1.2,2.4,2.4,3.7,3.6c2,0.8,4.1,1.7,6.1,2.5c0.3,0.6,0.6,1.2,0.9,1.8
	c-0.6,1.5-1.2,3-1.7,4.5c-0.2,1.6-0.4,3.3-0.6,4.9c-0.4,0.3-0.8,0.6-1.2,0.9c0,0.8,0.1,1.6,0.1,2.5c-1.6-1-3.2-1.9-4.8-2.9
	c0.1-0.6,0.2-1.2,0.3-1.8c-0.8-0.3-1.6-0.6-2.4-0.9c0.3,1,0.5,2.1,0.8,3.1c-0.3,0.5-0.6,1.1-0.8,1.6c-1.4-2.8-2.7-5.6-4.1-8.4
	c-0.5,0-0.9-0.1-1.4-0.1c-1.1-0.7-2.2-1.5-3.4-2.2c-0.2,0.2-0.5,0.4-0.7,0.6c0.8,1,1.5,2,2.3,3c1.1,1,2.2,2.1,3.3,3.1
	c0.4,1,0.7,2,1.1,3.1c0.8,0.8,1.7,1.7,2.5,2.5c2.9,0.8,5.8,1.5,8.8,2.3c-1.3,0.5-2.6,1-4,1.6c1.7,1.1,3.4,2.1,5.1,3.2
	c0.2,0.5,0.4,1,0.6,1.5c0,1.2,0,2.3,0,3.5c-0.7,0.6-1.3,1.2-2,1.7c-0.6-0.9-1.3-1.7-1.9-2.6c-1.3-0.9-2.5-1.8-3.8-2.7
	c0,0.4,0,0.7,0,1.1c0.5,0.7,1,1.3,1.6,2c-0.7-0.2-1.3-0.4-2-0.6c0.6,0.7,1.3,1.3,1.9,2c-0.4,0.5-0.9,1-1.3,1.6c0,0.3,0,0.7,0,1
	c0.7-0.1,1.4-0.3,2-0.4c0,0.6,0,1.2,0,1.8c-0.5,0.1-0.9,0.1-1.4,0.2c0.1,0.8,0.1,1.7,0.2,2.5c1.1,0.8,2.2,1.6,3.2,2.4
	c0.6,0.7,1.2,1.4,1.8,2.1c-0.3,0.3-0.7,0.6-1,0.9c0.3,0.6,0.6,1.2,0.8,1.8c0.3-0.4,0.6-0.7,0.9-1.1c-0.2,1.2-0.4,2.5-0.6,3.7
	c-0.7,0-1.4-0.1-2.1-0.1c-0.9,0.7-1.7,1.5-2.6,2.2c-0.5-0.8-1-1.6-1.6-2.4c-1-1-2-2.1-3-3.1c-1.2-0.8-2.3-1.5-3.5-2.3
	c0-0.9,0.1-1.8,0.1-2.7c-0.4-0.7-0.9-1.3-1.3-2c-2,0.3-3.9,0.7-5.9,1c0.8,1,1.7,1.9,2.5,2.9c1,0.4,1.9,0.9,2.9,1.3
	c-0.1,1-0.3,2-0.4,3.1c1.2,0.6,2.4,1.2,3.6,1.9c1.2,1,2.3,2,3.5,2.9c-0.2,1.2-0.5,2.5-0.7,3.7c0.7,0,1.3,0,2,0
	c0.4-0.2,0.8-0.5,1.3-0.7c0.9,0,1.9,0,2.8,0c0.3-0.6,0.6-1.2,0.9-1.8c0.8-0.4,1.5-0.9,2.3-1.3c1,0.7,2,1.5,3,2.2c2.1,0,4.2,0,6.3,0
	c0.6-0.2,1.1-0.4,1.7-0.6c0.3,1.8,0.7,3.7,1,5.5c0.3,1.4,0.7,2.8,1,4.1c-0.4,0.8-0.8,1.5-1.2,2.3c0.1,0.4,0.3,0.8,0.4,1.2
	c-0.4,0.3-0.7,0.6-1.1,0.9c0.2,1.4,0.3,2.8,0.5,4.2c-32.8,0.2-65.5,0.4-98.3,0.7c-24.3-0.1-48.6-0.3-72.9-0.4
	c-17.3-0.7-34.6-1.5-51.9-2.2c-26.1,0-52.1,0-78.2,0c2-1.2,4-2.3,6.1-3.5c1.2,0,2.4,0,3.7,0c0.8-0.6,1.5-1.1,2.3-1.7
	c3-0.7,6-1.4,9-2.2c0.8-1.7,1.5-3.5,2.3-5.2c2.4-0.4,4.9-0.9,7.3-1.3c0.4-1,0.7-2,1.1-3.1c-0.1-0.7-0.3-1.3-0.4-2
	c1.6-0.9,3.3-1.9,4.9-2.8c0.2-1.3,0.4-2.7,0.6-4C107.2,162.6,112.8,159.5,118.5,156.4z"/>
</svg>
