<?xml version="1.0" encoding="utf-8"?>
<!-- Generator: Adobe Illustrator 21.0.0, SVG Export Plug-In . SVG Version: 6.00 Build 0)  -->
<svg version="1.1" id="Layer_1" xmlns="http://www.w3.org/2000/svg" xmlns:xlink="http://www.w3.org/1999/xlink" x="0px" y="0px"
	 viewBox="0 0 432 432" style="enable-background:new 0 0 432 432;" xml:space="preserve">
<style type="text/css">
	.st0{fill:#050505;}
	.st1{fill:none;stroke:#000000;stroke-width:0;stroke-linecap:round;stroke-linejoin:round;}
	.st2{fill:#050505;stroke:#050505;stroke-width:8.239910e-03;}
</style>
<path opacity="0.15" fill="#FFFFFF" d="M400.6,303.9l-4-5.9l2.5-5v-0.5l-6.9-13.9l-4-180.7c0,0,0-0.5-0.5-0.5l-212.4,0.5l-53.5-1h-0.5v0.5l7.4,12.9
	c0,0,0,0,0.5,0h5.9l6.9,2.5l2.5,3l-0.5,1.5l-3-2h-0.5l-2.5,1c0,0-0.5,0-0.5,0.5l-0.5,7.9l-4,5l-3.5,1.5c0,0-0.5,0-0.5,0.5v1
	c0,0,0,0,0,0.5l8.9,6.9l5,16.3l-2,24.3l0,0l-3-5.9l0,0l-1.5-1.5c0,0,0,0-0.5,0l-5,1.5l0,0l-7.4,12.4l-7.9,6.4l0,0l-2.5,4
	c0,0,0,0,0,0.5c0,0,0,0,0,0.5l2,1l-1,5h-5.9V195l10.9-19.8l4.5-2l0,0l1.5-2.5l0,0l1.5-7.4l0,0l-2.5-6.9c0,0,0-0.5-0.5-0.5l-9.9,1
	l-11.4-5.4l0,0l-11.9,0.5l-52-19.8h-0.5l-3.5,4l0,0l-3,7.4l0,0l-0.5,8.4l0,0l1,6.4l0,0l9.9,15.8l12.4,54l0,0l1,1c0,0,0,0,0.5,0
	c0,0,0,0,0.5,0l4-5l2.5,3.5l-1.5,5l-4,5.9l0,0v6.4l0,0l1.5,2.5l0,0l3,1c0,0,0,0,0.5,0l3-0.5l0.5,1.5l-0.5,16.3l-1,2.5l-2,0.5v-9.4
	c0,0,0,0,0-0.5l-3.5-3h-0.5c0,0-0.5,0-0.5,0.5v19.3c0,0,0,0,0,0.5l5.9,5c0,0,0,0,0.5,0h18.8l24.8,18.3l3,6.9l2.5,21.8
	c0,0,0,0.5,0.5,0.5l22.8,6.4l0,0l0,0l14.4-4l0,0l8.9-5.9l23.8,0.5l7.4,6.9h0.5l26.2-8.9l6.9,3.5l0,0l12.4-2l0,0l13.4-6.4l13.9-2l0,0
	l4.5-4.5l23.8-1.5l0,0l4.5-3.5l102.5-2C400.6,304.9,400.6,304.4,400.6,303.9C400.6,304.4,400.6,303.9,400.6,303.9z"/>
</svg>
