<svg xmlns="http://www.w3.org/2000/svg" width="227" height="182" viewBox="0 0 227 182">
    <path opacity=".15" fill="#FFF" fill-rule="evenodd" d="M9.565 107.368c.806.276 1.485.785 1.995 1.464l5.496 7.385.255.488c.021.042.085.064.106.106l4.16 8.043c.382.742.53 1.57.446 2.397l-1.783 16.51 2.398 4.308 5.306 3.034 27.4 2.037c.785.043 1.506.319 2.143.764l9.275 6.579 68.997 5.114 59.956 15.49-.488-2.97c-.064-.404-.064-.807-.021-1.21l2.016-16.17L226.468 46.89l-74.982-20.647L76.142.31l.361 1.677 3.354 2.652c1.018.807 1.613 2.038 1.613 3.332v3.268c0 .891-.276 1.761-.807 2.483l-4.032 5.602-1.359 3.544 2.144 7.703c.17.657.19 1.337.064 2.016l-2.675 12.817c-.106.551-.34 1.06-.658 1.528l-4.18 6.09c-.658.933-1.656 1.57-2.76 1.761l-8.15 1.422-6.855 5.475-7.215 4.413c-.977.573-2.144.722-3.226.489-1.083-.276-2.038-.977-2.61-1.932L37.982 62.7c-.764-1.273-.807-2.822-.128-4.138l3.65-7.087c.256-.467.595-.913.998-1.274l8.129-7.002c.34-.297.722-.53 1.146-.7l2.823-1.168.827-1.93-.445-1.507-6.219-3.565-18.57-8.764L16.929 14.89l-5.518-6.833-3.29 3.692-1.337 9.273 3.863 12.52c.17.531.233 1.104.17 1.656L6.72 77.638l.02 13.178c0 .849-.254 1.698-.742 2.398L.99 100.578l-.594 2.08 2.44 2.333 6.729 2.377z"/>
</svg>
