<svg xmlns="http://www.w3.org/2000/svg" width="141" height="144" viewBox="0 0 141 144">
    <path opacity=".15" fill="#FFF" fill-rule="evenodd" d="M135.749 16.43l-8.405 1.463-7.11 5.645-11.778 13.581c-.786.913-1.974 1.443-3.184 1.443h-1.931c-1.89 0-3.523-1.23-4.054-3.034l-4.966-16.552c-.128-.403-.191-.807-.191-1.231v-1.21l-32.048 7.852c-.34.085-.658.127-1.018.127-.807 0-1.592-.233-2.271-.658-.977-.615-1.656-1.612-1.89-2.758L52.809.535V25.3c0 .892-.297 1.74-.785 2.462l-7.747 10.95-7.874 7.512c-.297.275-.615.509-.976.7L29.1 50.148l-3.077 4.117-1.019 10.844c-.064.658-.276 1.294-.615 1.846l-1.444 2.334c-.764 1.252-2.143 2.016-3.608 2.016h-3.31c-.7 0-1.38-.17-2.017-.51l-.87-.466-2.207 3.99V85.5c0 .446-.064.87-.191 1.295l-2.25 7.066c-.212.68-.594 1.295-1.103 1.762L4.1 98.785c-.34.319-.7.573-1.125.786l-2.1.997v9.719l9.89 11.416 17.317 13.666 6.283 6.94 6.367 1.548 14.623-4.817 12.564-6.26 16.766-11.034 2.25-14.451 7.322-19.905 4.67-19.926c.211-.891.7-1.719 1.4-2.292l2.653-2.207c.891-.721 2.08-.976 3.12-.954 1.146.106 2.186.679 2.886 1.549l1.274 1.549 4.456 1.867 6.643-18.08c.595-1.676 2.208-2.78 3.99-2.78h3.905l8.32-10.992 2.568-10.44-.127-7.767c0-.764.212-1.485.573-2.122l-4.84 1.634z"/>
</svg>
