<?xml version="1.0" encoding="utf-8"?>
<!-- Generator: Adobe Illustrator 21.0.0, SVG Export Plug-In . SVG Version: 6.00 Build 0)  -->
<svg version="1.1" id="Layer_1" xmlns="http://www.w3.org/2000/svg" xmlns:xlink="http://www.w3.org/1999/xlink" x="0px" y="0px"
	 viewBox="0 0 432 432" style="enable-background:new 0 0 432 432;" xml:space="preserve">
<style type="text/css">
	.st0{fill:#050505;}
	.st1{fill:none;stroke:#000000;stroke-width:0;stroke-linecap:round;stroke-linejoin:round;}
	.st2{fill:#050505;stroke:#050505;stroke-width:8.239910e-03;}
</style>
<path opacity="0.15" fill="#FFFFFF" d="M58.1,233.8c0,1.8-0.7,4-0.4,5.8c0,0.7,0.7,1.1,1.1,1.8c0.4,1.1,0,1.1,0,2.2s0.4,2.9,0,3.6
	c-0.4,1.4-1.8,1.1-2.2,2.5c-0.4,2.2,1.4,6.5-2.5,5.8c-0.4,2.5,1.1,3.2,2.5,4.7c2.2,2.2,3.6,4.3,4.3,7.6c0.7,2.5,1.8,4,4.3,4.7
	c-1.4,1.1-0.4,0.7-0.7,2.2c-0.4,0.4-1.1,0.4-1.1,0.7c-0.4,0.7,0,0.7-0.7,1.1c0.4,0,1.1,0.4,1.4,0.4c-0.4,0.4-0.4,1.8,0.4,2.2
	c0,0,0.4-0.4,0.4-0.7c0.7,0.7,5.1,4,2.5,4.7c1.1,1.4,2.2,2.9,1.4,4.3c1.1-0.7,1.1,0.4,1.8,0.7c1.1,0.7,3.6,2.2,2.5,3.2
	c0.4,0,0.7,0,1.4,0c-1.4,2.2-0.7,2.2,0,4.7c0.7,2.5,0.4,2.9,2.2,3.6c0.7,0.4,2.2,0.7,2.5,1.1c1.1,0.7,0.7,1.8,1.4,2.5
	c1.8,1.8,1.1-1.8,2.5-1.8c0.4,1.4-0.7,2.5,0.7,2.5c-0.4,1.1,0.7,1.4,0.7,2.5c1.8-0.7,2.5,1.8,0.7,2.2c0.7,1.8,1.4,0.7,2.9,1.1
	c1.8,0.4,2.2,2.2,3.6,2.5c0-0.4,0-1.1,0-1.4c2.2,1.1,2.9,0.4,5.1,0c0,0.4-0.4,1.4,0,1.8c0,0.4,0.7,0.4,0.7,0.4l0.7,0.4
	c0.4,0,0,1.1,0,1.4l0.7-0.4c0,0.7,0,0-0.4,0.7c-0.7,1.1-1.1,1.1-2.2,1.8c-2.2,1.1-1.8,2.2,0,3.6c1.4,1.1,2.2,1.1,2.5,2.9
	c0.4,1.4-0.4,2.9,0,4c0.4,1.4,1.4,2.2,2.5,3.2c1.4,1.1,1.4,2.2,2.2,3.2c1.8,2.2,4.7,0,6.5,2.5c0.4,0.4,0.4,1.1,0.7,1.8
	c1.4,1.8,0-0.4,1.4,0.7c0.7,0.7,1.4,1.4,2.2,2.2c1.8,1.8,4.7,1.1,6.9,1.1c1.4,0,2.2-0.7,3.2-1.4c0.7-0.4,1.1-0.4,1.8-0.7
	c0.7-0.7,0.4-1.8,1.1-2.2c0.7,1.4,2.9-0.7,4-1.1c0.7-0.4,1.1,0,1.8-0.4c1.1-0.7,1.1-2.5,2.2-3.2l1.1-0.4c0.4,0,0.4-1.1,0.4-1.1
	c1.8,2.2,6.5,9,9.7,8.7c1.1,0,2.9-1.8,4-2.2c1.4-0.7,3.2-1.1,4.7-1.4c1.8-0.4,5.8-2.2,7.2-1.4c0.7,0-0.7,0.7,0.7,0.7
	c0.7,0,2.2-0.7,2.5-0.7c2.2-0.7,3.2-2.9,5.4-3.6c-0.7-1.1-2.2-1.8-2.2-3.6c0-1.1,1.1-2.5,1.4-3.6c0.4,0.4,0.7,0.4,1.1,0.4
	c1.4,0.4,1.4,1.1,2.5,2.2c1.4,1.1,2.2,2.2,3.6,2.2c2.2-0.4,5.4-2.5,7.2-4c1.8-1.1,3.2-2.5,4.7-3.6c1.1-0.7,2.9-0.4,4-1.4
	c0,0.7,1.1,1.4,1.1,2.2c0,0.7,0,1.4,0.7,2.2c0.4,0.7,1.1,0.7,1.4,0c0.7-0.7,6.9-3.6,6.1-4.7c0.4,0,2.5-0.7,2.9-1.1
	c0.7-0.4,1.4-0.7,1.8-1.4c0.4-0.4,1.4-1.8,0.4-1.8c-0.4,0-0.7,0.4-0.7,0.4c-0.7,0.4-1.4-0.4-1.8-0.7c0.4,0,0.4-0.7,1.1-0.7
	s-0.7-1.4-0.7-1.8c1.8-1.1,3.6-1.8,5.1-2.9c0.7-0.7,1.4-1.8,2.2-2.5c-1.8-0.7-3.2-1.4-4.3-3.2c-1.4-2.2-0.4-2.5,1.1-4
	c1.4-1.4,0.4-1.1,0.7-2.9c0.4-1.1,1.4-2.9,2.9-2.5c-2.5-0.4,2.2-5.1,2.2-5.4c0.4-0.7,1.4-5.1,2.9-3.6c0.7-1.8,3.2-3.6,4.7-5.4
	c1.4-1.4,3.2-2.9,4.7-4.7c1.4-1.8,1.8-4,2.9-6.1c0.7-1.4,1.8-2.2,1.8-3.6c0-0.4-0.7-0.7-0.7-1.4c0-1.1,0.4-0.4,0.7-1.1
	s1.1-1.4,1.1-2.5c0-0.4-0.4-1.1-0.4-1.4c0.4-1.1,3.2-2.9,4.3-4c1.1-1.1,2.2-1.4,2.9-2.2c1.8-1.4,1.1-1.1,0.7-2.9
	c0-0.7-0.7-1.1-0.4-1.4c0-0.7,2.2-2.5,2.5-2.9c0-0.4,0.4-0.7,0.4-1.1c0.4-0.4,0.7-0.4,1.1,0c0.4-0.4,0.7,0,1.4-0.7
	c0.4-0.4,0-1.8,0.4-2.2c0.4-1.1,1.1-1.4,1.4-2.5c0.7-1.1,1.1-1.4,1.1-2.9c0-0.7-0.4-1.1-0.4-1.4c0-0.7-0.4-1.4,0-1.8
	c0.4-0.7,0.4-0.4,0.7-0.7c0.4-0.4,1.1-0.7,1.1-0.7c0.7-1.1,0-2.9,0.4-4.7c0,0.4,0.4,0,0.4-0.4c0-0.4,0.4-1.8,0.7-2.2
	c0,0,1.1,0.4,1.4,0.7c1.8,0.7,4,1.4,5.4,2.5c2.9,1.8,2.5,7.6,5.4,8.7c2.5,1.1,5.1,1.8,7.6,2.5c0.7,0.4,1.4,0.4,1.8,0.7
	c0.4,0,2.5-0.7,2.5-0.7c0.4-1.1,0.4-0.7,1.1-1.8c0.4-0.4,0.4-0.7,0.7-1.1c0,0,0.7,0.4,0.7,0c0.4-0.4,0-1.1,0.4-1.1
	c0.4-0.4,0.7-0.4,1.1-1.1c0.7-0.7,0.7-1.4,1.1-2.2c0.7-2.5,2.2-4.7,2.9-7.2c0.4-1.4,0.7-4.7,2.2-5.8c1.1-0.7,1.8,0.7,2.5-1.4
	c0.4-1.8-0.4-2.9,0.4-4.7c0.4-1.1,1.1-2.2,1.8-3.2c0-0.4,0-1.8,0.4-1.8c0.4-0.7,1.4-0.4,1.8-1.1c0.4-0.4,0.4-1.1,1.1-1.8
	c0-0.4,0.7-1.8,0.7-1.8c0-0.4,0.4-0.7,0.4-0.7c0.7,0.7,1.4,1.4,2.2,2.2c1.8,1.8,4,3.6,5.8,5.4c0.7-1.1,1.1-2.5,1.8-3.6
	c1.1-2.2,1.8-4.7,3.2-6.5c0.7-0.7,1.4-1.1,2.2-2.2c0.4-0.4,0.7-1.1,1.1-1.8c0.4-0.4,1.1-0.4,1.4-1.1c-0.4,0.4-0.4,2.2,0,2.5
	c0.7,0.7,3.6-4,4-4.3s2.5-3.2,2.2-1.4c0.7-0.4,0.7,0.7,1.1,0.7c-0.4-1.1,2.9-4,3.2-4.7c-0.7-0.4-1.1-0.7-1.4-1.1
	c1.4-0.7,2.9-3.2,4-4.7c1.1-1.4,2.2-1.4,3.6-2.5c0.7-0.4,0.7-1.1,1.4-1.8c0.4-0.4,1.8-2.2,1.8-2.2c0-0.7-1.4-2.5-2.2-2.9
	c0,0,2.2-3.2,2.2-3.6c0-0.7-1.1-1.1-1.1-1.8c0-0.7,1.4-1.8,1.8-2.5c0.7-1.1,1.8-2.5,2.2-3.2c1.1-1.8,1.4-2.5-0.7-3.2
	c0.4-0.4,1.4-1.8,1.4-2.5c0,0-0.7-0.7-0.7-1.1c0-0.7-0.4-2.5,0-3.2c0.4-0.4,0.7-1.4,0.4-1.8c0,0-0.4,0,0-0.4c0,0,0,0,0-0.4
	c0.7,0.7,34.3,28.2,34.3,28.2c0.4-0.7,0.4-1.4,0.7-2.2c0.4-1.1,0.7-1.8,1.1-2.9c0.4-0.7,0.4-2.2,1.1-2.9c0.7-0.7,1.1-2.2,0.7-2.2
	c0-0.7,0.7-1.1,0.7-1.4s0-1.1,0.4-1.4c0.4-1.1,0.7-2.9,1.8-3.2c0.4,0,0.4-0.4,0.7-0.4c-1.1-0.4-2.9-1.1-3.6-2.2
	c0.7-1.4,0.7-2.2,0.4-4c0.7-0.4,1.1-0.4,0.7-1.1c-0.4-0.7-0.7-1.4-1.1-2.5c-0.4-0.7-1.1-0.7-1.8-0.7c-0.7,0-1.1-0.4-1.4-0.7l1.1-0.4
	l-0.7-1.4h1.4c-0.4-0.4-1.1-0.7-1.4-1.4c0.7-0.4,1.8-0.7,2.2-1.4c-0.7,0-0.7-0.4-1.4,0c-0.4,0.4-0.7,0.7-1.1,0.4
	c-0.7-0.4-2.5-0.4-2.9-1.1c0.7-0.7,1.1-1.1,1.1-2.2c-1.1-0.4-0.7,0.7-1.4,1.1c0.7,1.4,0.4,1.4,0,0.4s0.4-1.1-0.7-1.8
	c-0.4-0.4-0.7-0.7-0.7-1.4c1.4-0.4,2.9,0,3.2-1.4c0.7-2.2-0.7-2.2-2.5-2.9c-2.2-0.7,0.4,1.4-1.8,1.1c-0.4,0-1.4,0-1.8-0.4
	s-0.7-1.4-1.4-0.7c0.4,0.4,1.1,2.2,0.4,2.5c-1.1,0.7-1.1-1.4-1.1-1.8c-0.7,0-1.1,0.4-1.4,0.7c-0.4,0.4-0.7,0-1.1,0
	c-1.1,0-1.4-0.7-2.2-1.8c-1.1-1.8-2.5-3.2-4-4.3c-1.8-1.1-4-1.4-5.8-1.8c-0.4,0-1.1,1.4-1.8,1.8c-1.4,0.4-2.2,0.4-1.1,1.4
	c-1.4,1.4-2.2,2.2-2.9,4l-5.4-2.5c-0.4,0.4,0,0.7,0,1.1c-0.4,0-2.5-0.4-1.4,0.7c1.1,1.1-0.4,1.1-1.1,0.7c-0.4-0.4-2.2-1.4-2.5-0.4
	c-0.4,0.7,1.1,1.4,1.8,1.8c0.7,0.4,1.4,1.4,0,1.8c-0.7,0-1.8-1.1-2.5-1.1c-2.2,0.4,1.4,2.9,1.8,3.6c-0.7,0.4-0.7-0.4-1.4-0.4
	c0,0.4,0.4,0.7,0,1.1c-0.4-0.4-0.7-1.1-1.4-1.1s0.4,0.7,0.4,1.1c-1.1,0.4-0.4,2.2-1.8,1.8c-0.7,0-0.7,0-1.4,0
	c-0.4,0-1.1-0.4-1.4-0.7c-0.7-0.4-2.2,0.7-2.9,0.4c-0.4,0-0.7-0.7-1.1-0.7c-0.7,0-1.1,0-0.7-0.7c-0.7,0.7-1.8,0-2.5,0
	c-1.1,0.4-1.8,0-3.2-0.4c-1.1-0.4-1.8-1.4-2.9-1.8c-0.7-0.4-0.4-1.8-1.1-1.8c-0.4,1.4-2.2,0-2.2-1.1c0-1.4,1.8-0.4,2.2-1.1
	c0.4-0.7,0.4-1.1-0.4-1.4c-0.4,0-1.1,0.4-1.4,0.4c-1.4,0-0.4-1.8,0-2.5c-0.4,0.4-1.8,1.1-2.2,1.4c-0.4,0.7,0,1.4,0,2.2
	c-0.7-0.4-1.8,1.1-1.8,2.2c0,0.4,1.8,1.8,0.4,1.8c-0.7,0-0.7-0.4-1.4-0.4c-0.4,0-0.4,1.1-0.4,1.1c-0.7,1.1-1.1,1.1-1.4,2.5h-1.1v0.7
	c-1.4,0.4-0.7,2.5-2.2,2.5c-0.7,0-0.7,0.7-1.1,1.1c-0.4,1.1-1.8,1.4-1.1,3.2c-1.4,0.7-5.8-4.7-6.5-2.5c-0.7-1.1-1.8,0-2.9-0.4
	c0,0.4,0,0.7,0.4,1.1c-0.4,0-0.4,0-0.7,0.4c0.4,1.1-0.4,1.4,0,2.5c-1.1-0.4-2.2,1.8-2.2,2.2c-0.4-0.4-0.7-0.7-0.4-1.1
	c-1.1,0-0.7,1.8-0.7,2.5c0,0-1.1-1.1-1.1-0.7c0.4,0.7-0.7,0.7-1.4,1.4c-0.7,0.7-0.7,1.4-1.4,1.8c-0.4,0.4-1.1,0-1.4,0.4
	c-0.7,0.4-1.4,2.2-1.8,3.2c-0.4,0.4-0.7,1.8-1.1,1.8c-0.7,0.4-1.8-0.4-2.9,0c-0.7,0.4-2.2,1.8-2.9,2.5c-1.1,1.1-2.5,2.2-2.9,3.6
	s-2.5,0.7-2.9,2.2l-1.1-0.4l0.4-47.3l-65.3,1.4l1.4-79.8l-1.8,0.7c-0.4,0.4-1.1,0.7-1.4,1.1c-0.7,0.4-2.2-0.7-3.2-0.4
	c-0.7,0.4-1.8,1.4-2.2,1.8c-1.4,2.2,0.7,3.2,1.4,5.4c0.7,1.4,2.2,4.7,1.8,6.1c-0.4,1.8-0.7,5.1-2.2,6.5c1.4,1.8,1.8,4.7,1.4,6.9
	c0,0.7-0.7,2.5-1.1,3.2c-0.7,1.4-1.8,1.8-2.5,3.2c-0.7,1.1-0.7,2.5-1.1,4c-0.7,1.4-1.8,2.5-2.2,4c-0.4,1.4,0.4,2.5-0.4,4
	c-0.7,1.4-1.4,1.4-1.8,2.9c-0.4,2.2,0,5.1-0.4,7.2c-0.4,1.1-0.7,1.1-1.1,2.2c-0.7,1.4,0,1.8-0.4,3.2c-0.4,2.5-0.7,0.4-2.2,0.7
	c-1.1,0.4-0.7,0-1.1,0.7c0,0.7,0.7,1.8,0.7,2.2c0,1.4,0,1.1-1.1,2.2c-1.8,1.8-0.4,3.2-1.8,5.1c-0.4,0.7-2.2,1.4-2.2,2.5
	c-0.4,1.1,0.7,2.2,1.4,2.9c1.4,2.9-0.4,2.2-1.1,4.3c-0.4,1.1,0,2.9-0.7,4c-0.7,1.8-1.1,1.4-2.9,1.8c-5.1,1.4-10.5,8.3-13.4,12.6
	c-1.4,2.5-4,1.8-5.4,4c-0.4,0.7-0.7,2.2-1.4,2.5c-0.7,0.4-2.9,0-3.6,0.4c-1.4,0.7-2.9,2.2-4.3,2.9c-3.6,1.8-3.2-2.2-4.7-4.3
	c-2.2-2.9-4,1.1-5.8,2.2c-1.4,1.1-2.5,1.1-3.2,2.9c-0.4,1.8-0.4,4-0.7,5.4c-2.5-0.7-6.5-2.2-7.9,0.7c-0.4,0.7,0,2.5-0.4,2.9
	c-0.4,0.4-1.1,0-1.8,0.4c-0.4,0.4-0.7,1.1-1.1,1.4c-1.1,1.4-1.1,1.1-1.1,3.2c0,1.1,0.4,2.5,0.4,3.6c0,1.1-0.4,2.2-1.1,2.9
	c-1.1,1.1-1.8,0-2.9,0.4c-2.5,1.1,1.1,3.6,1.8,5.1c0.7,1.8,0,2.5-0.4,4c-0.4,1.1,1.1,4,0.7,4.7c-0.7,0.7-2.2-1.4-2.9-1.4
	c-1.8-0.4-1.8,0.4-2.5,2.2c-0.4,1.1-1.1,3.2-2.5,3.6c-1.1,0.4-2.9-0.7-2.9-2.2c0-1.1,1.8-1.8,1.8-3.2c0-0.7-1.4-4-1.8-4.3
	c-1.1-1.4-1.4,0-2.5-0.7c-1.4-0.7-0.7-2.2-2.2-2.9c-1.4-1.1-2.2,0-2.9,1.1c-0.4,0.7-0.4,1.1-0.7,1.8c-0.4,0.4-0.7,0.4-1.1,0.7
	c-1.8,1.4-3.6,4.7-4.3,6.9c-1.1,2.5,0.7,4.7-1.8,6.9c-2.5,1.8-4,1.8-2.9,5.1c0.4,1.1,1.1,2.5,1.1,4s-0.4,2.5-0.4,4
	c0,2.2,2.2,6.1-1.4,6.9c-1.1,0.4-2.5-0.7-4-0.4c-1.8,0.4-1.8,2.2-2.2,3.6c-0.4,2.5-0.7,7.6-2.9,9.4c-1.1,0.7-2.5,0.4-4,0.4
	c-1.8,0-2.9,0.4-4.3,0.7C64.2,235.3,60.3,237.8,58.1,233.8C57.7,235.6,60.3,237.8,58.1,233.8C57.7,235.6,60.3,237.8,58.1,233.8
	C57.7,235.6,60.3,237.8,58.1,233.8C57.7,235.6,60.3,237.8,58.1,233.8C57.7,235.6,60.3,237.8,58.1,233.8
	C57.7,235.6,60.3,237.8,58.1,233.8z"/>
</svg>
