<svg xmlns="http://www.w3.org/2000/svg" width="191" height="205" viewBox="0 0 191 205">
    <path opacity=".15" fill="#FFF" fill-rule="evenodd" d="M23.56 11.75L19.271 10.5l-1.125.657v22.07c0 .87-.276 1.718-.764 2.419l-7.237 10.398-7.81 7.49-1.444 6.579 4.266 2.886c1.168.785 1.868 2.1 1.868 3.522v33.89l6.303 5.729 10.315 3.543 11.482 6.24c.594.339 1.125.827 1.485 1.4l6.856 10.567 10.887 6.282c.467.276.913.658 1.252 1.103l7.386 9.698c.425.53.68 1.146.785 1.804l6.665 36.71 2.865 7.28 5.008 4.477 5.943 2.228c.573.212 1.104.552 1.55.997l5.475 5.602 94.126-9.76-5.306-31.513c-.064-.446-.064-.913 0-1.38l7.343-45.517 1.74-23.024c.022-.382.107-.764.213-1.125l.764-2.08-10.081 9.613c-.786.764-1.826 1.189-2.93 1.189h-3.034c-1.273 0-2.483-.573-3.31-1.57l-1.784-2.207c-1.103-1.359-1.252-3.268-.36-4.796l11.396-19.714-5.92-5.008c-.574-.467-.998-1.103-1.253-1.804l-2.228-6.217-3.99-5.093c-.574-.743-.913-1.676-.913-2.61v-6.897l-8.574-6.217-12.48-5.645-58.067-13.241c-1.082-.234-1.995-.892-2.61-1.804l-3.354-5.157h-9.975c-1.188 0-2.292-.488-3.098-1.358l-4.181-4.52c-.34-.36-.595-.764-.786-1.188L60.658.843l-6.346 2.759-15.96 10.78c-1.083.7-2.356.87-3.523.552l-11.27-3.183z"/>
</svg>
