<?xml version="1.0" encoding="utf-8"?>
<!-- Generator: Adobe Illustrator 21.0.0, SVG Export Plug-In . SVG Version: 6.00 Build 0)  -->
<svg version="1.1" id="Layer_1" xmlns="http://www.w3.org/2000/svg" xmlns:xlink="http://www.w3.org/1999/xlink" x="0px" y="0px"
	 viewBox="0 0 432 432" style="enable-background:new 0 0 432 432;" xml:space="preserve">
<style type="text/css">
	.st0{fill:#050505;}
	.st1{fill:none;stroke:#000000;stroke-width:0;stroke-linecap:round;stroke-linejoin:round;}
	.st2{fill:#050505;stroke:#050505;stroke-width:8.239910e-03;}
</style>
<g>
	<polygon opacity="0.15" fill="#FFFFFF" points="362.8,175.2 361.2,179.9 366.2,180.5 366.5,178.3 366.9,176.8 	"/>
	<path opacity="0.15" fill="#FFFFFF" d="M357.5,183l-4.7,9l-2.5-1.6c-0.9,2.8-1.2,6.2-3.1,8.4c-1.2,1.2-1.9,1.6-2.5,3.1c-0.6,1.6-1.6,3.4-2.2,5
		c0,0.2,0.1,0.4,0.1,0.6c0-0.1-0.1-0.2-0.1-0.2l-5.6,4.4v-1.6l-2.8,0.9c-1.9,4-4,8.1-6.5,11.8l-4.7,1.6l-2.8,5h-1.6
		c-0.6-0.3-2.8-1.6-3.1-2.2c-0.3-0.6,1.2-3.7,1.6-4.4c0.3-1.6,0.6-3.1,0.6-4.7l7.2-9.3l-0.3-3.4c3.1-1.9,6.2-2.8,9.7-4
		c0-2.8,0-3.7,1.6-6.2l-3.4-0.9c-0.3-1.9-1.6-2.8-2.5-4.4c-0.6-0.9-0.3-1.2,0-2.2c1.2-3.1,2.2-6.2,3.7-9l-2.5-1.9l-3.1,2.5l-2.8-0.3
		l-0.9,0.9l-0.9-1.6h-0.3v0.3h-0.3c0.3-0.6,1.2-1.2,1.2-2.2c0-0.6-0.3-1.2-0.3-1.9c0.3-1.2,0.6-0.9,1.6-1.9c1.9-1.9,1.6-5-0.3-6.5
		c5,0-0.9-4.7,0.6-6.2c2.5-0.6,1.6-1.6,0-3.1c-1.9-1.6-3.7-1.6-5.6-2.8c-0.9-0.3-0.9-1.6-1.9-1.9c-0.6-0.3-1.9,0-2.5,0
		c-1.9,0.3-4.4-0.3-3.1-2.8c1.2-1.9,2.2-1.6,0.9-4c-1.6-2.5-4.7-2.5-7.2-3.1c-1.2-0.3-2.2-1.2-3.4-1.6c-1.2-0.6-2.5-0.3-3.7-0.6
		c-1.6-0.3-2.5-1.2-3.7-1.6s-2.8,0.3-3.7-0.3l-0.9,1.6h-1.2l-1.6-1.9l-1.2,0.3l-0.9-0.9l-1.9,0.3l-0.3-0.9h-0.6l-0.3,0.3
		c-3.7-2.5-7.5-4.7-11.2-7.2c-2.2-1.6-37.1-11.8-43.9-14c-0.9-3.7-2.5-7.2-4-10.6l-2.5-0.3l-0.3-0.9c-1.6,0.6-0.9-0.9-1.6-1.9
		l-3.1,0.9l-1.2-1.9c-2.2-0.3-4.4-0.6-6.2-1.6c-2.5-1.2-4.7-2.8-7.2-4l-8.7,3.4c2.5-6.5,6.2-13.4,7.5-20.2l-3.4-2.5
		c-9,3.1-18.4,6.5-27.4,9.7c-2.8,0.9-5.6,1.9-8.7,2.5c-4.7,0.9-8.7,2.5-13.4,1.9l-3.4-4l-5.6,5.6l-1.6-0.3l-0.9-1.6
		c-0.9,12.1-1.9,24.3-2.8,36.4l-1.6,0.9l-0.6,1.9l-1.2,0.3c-0.6,0-1.9-0.6-2.2-0.6c-0.6,0.3-0.9,1.6-1.6,2.2
		c-0.9,0.9-1.6,0.3-2.5,0.6c-1.2,0.3-1.6,1.2-2.5,1.9c-2.2,1.6-4.7,1.6-6.5,3.4c-1.9,1.9-2.2,4.7-3.4,6.9c-1.9,2.8-9,7.8-4.4,11.8
		c1.6,1.2,4,1.2,5.6,2.8c1.9,1.9,3.1,5.6,2.5,8.1c-0.6,2.5-2.8,4-4,6.2c-1.2,2.2-1.6,4.4-1.6,6.9c0,1.9,0.6,3.1-0.3,4.7
		c-0.6,0.9-1.2,1.6-1.6,2.8c-0.6,2.2,0.6,4.4,0.6,6.2c0.3,2.8-0.3,5.9-1.2,8.7c-0.6,1.6-1.9,3.4-1.6,5c0.6,1.9,3.4,3.1,4.7,4.4
		c1.6,1.2,2.2,3.4,3.7,5c3.4,3.4,9.3,1.6,12.1,5.9c1.2,2.2,2.2,4,4.4,5.3c1.9,0.9,3.7,1.6,5.6,2.5c5,2.2,6.5,5.9,8.4,10.6
		c1.9,4.7,5.6,9,9.7,11.8c4.4,3.1,9,4.7,12.5,9c3.7,4.7,4.4,10,4.4,15.6c0,5.3-0.9,11.5,0.3,16.8c0.6,2.5,1.9,3.4,3.7,5
		c1.6,1.2,3.4,2.2,3.1,4.4s-2.8,4-3.7,5.9c-1.2,2.5-1.2,4.7-1.2,7.5c0.3,5.9,1.6,10.9,2.8,16.5c1.2,4,4.4,6.2,8.4,7.2
		c2.5,0.6,5,0.6,7.2,1.9c1.9,1.2,1.9,3.1,2.8,5c0.9,1.6,2.2,2.2,1.2,4c10.3,0.3,112.7,4.4,129.9,4.7c0-3.1,0-6.5,0.3-10
		c0.3-2.5,1.9-4.4,1.6-6.9c0-2.5-2.2-4-2.8-6.2c-0.6-2.2,0-4.7-0.9-6.9c-0.9-1.9-1.2-2.8-0.9-5c0.9-4.4-1.2-8.7-0.9-13.1
		c0.3-4.4,2.8-8.1,4-12.5c0.6-2.2,0.9-4.4,1.9-6.5c0.6-2.2,2.2-4,2.5-6.2c0.9-4.7-0.6-9-0.3-13.7c0.3-4,1.2-8.7,3.4-12.1
		c2.2-3.1,5.6-4,5.6-8.1c0-2.2-0.6-4.4-0.6-6.5s0.6-4,1.2-6.2c1.6-5,3.4-9.7,5.6-14.3c1.2-2.5,2.5-5.3,3.4-8.1
		c-0.2-0.1-0.3-0.2-0.5-0.3l1.4-1.9c1.9-1.9,3.1-3.4,4.4-5.9l-0.6-3.1l3.1-5l1.2,0.9v-2.5l1.6-0.3l-1.2-3.1l2.5-0.3l-1.2-5.9
		l2.5,1.9l1.2-1.6l-0.9-3.4C359.4,183.3,358.8,183.3,357.5,183z"/>
</g>
</svg>
